<?xml version="1.0" encoding="UTF-8"?>
<svg xmlns="http://www.w3.org/2000/svg" viewBox="0 0 1040 1034">
        <style>
            text { font-family: "Times New Roman, serif"; }
        </style>
        
        <defs>
            <filter id="shadow" x="-20%" y="-20%" width="150%" height="150%">
                <feGaussianBlur in="SourceAlpha" stdDeviation="2"/>
                <feOffset dx="2" dy="2" result="offsetblur"/>
                <feComponentTransfer><feFuncA type="linear" slope="0.15"/></feComponentTransfer>
                <feMerge><feMergeNode/><feMergeNode in="SourceGraphic"/></feMerge>
            </filter>
            
            <marker id="arrow" markerWidth="6" markerHeight="6" refX="5" refY="3" orient="auto" markerUnits="strokeWidth">
                <path d="M0,0 L0,6 L6,3 z" fill="#222222" />
            </marker>
            
            <linearGradient id="grad_bb" x1="0%" y1="0%" x2="0%" y2="100%">
                <stop offset="0%" style="stop-color:#FFFFFF;stop-opacity:1" />
                <stop offset="100%" style="stop-color:#FFFFFF;stop-opacity:1" />
            </linearGradient>
            <linearGradient id="grad_neck" x1="0%" y1="0%" x2="0%" y2="100%">
                <stop offset="0%" style="stop-color:#FFFFFF;stop-opacity:1" />
                <stop offset="100%" style="stop-color:#FFFFFF;stop-opacity:1" />
            </linearGradient>
            <linearGradient id="grad_head" x1="0%" y1="0%" x2="0%" y2="100%">
                <stop offset="0%" style="stop-color:#FFFFFF;stop-opacity:1" />
                <stop offset="100%" style="stop-color:#FFFFFF;stop-opacity:1" />
            </linearGradient>
            <linearGradient id="grad_concat" x1="0%" y1="0%" x2="0%" y2="100%">
                <stop offset="0%" style="stop-color:#FFFFFF;stop-opacity:1" />
                <stop offset="100%" style="stop-color:#FFFFFF;stop-opacity:1" />
            </linearGradient>
            <linearGradient id="grad_node" x1="0%" y1="0%" x2="0%" y2="100%">
                <stop offset="0%" style="stop-color:#FFFFFF;stop-opacity:1" />
                <stop offset="100%" style="stop-color:#FFFFFF;stop-opacity:1" />
            </linearGradient>
        </defs>
        
        <rect x="820" y="30" width="220" height="1004" fill="#F5F7FA" />
<rect x="220" y="30" width="600" height="1004" fill="#FFFFFF" />
<rect x="0" y="30" width="220" height="1004" fill="#F5F7FA" />
<rect x="35.0" y="100" width="150" height="44" rx="0" fill="url(#grad_bb)" stroke="#333333" stroke-width="1.0" filter="url(#shadow)"/>
<clipPath id="clip_35_100"><rect x="35.0" y="100" width="150" height="44" rx="0" /></clipPath>
<rect x="35.0" y="100" width="5" height="44" fill="#00ACC1" clip-path="url(#clip_35_100)" />
<text x="112.0" y="114.0" font-weight="bold" font-size="14" fill="#000000" text-anchor="middle" dominant-baseline="middle">Conv</text>
<text x="112.0" y="133.0" font-size="10" fill="#424242" text-anchor="middle" dominant-baseline="middle">3→64 /2x</text>
<rect x="35.0" y="180" width="150" height="44" rx="0" fill="url(#grad_bb)" stroke="#333333" stroke-width="1.0" filter="url(#shadow)"/>
<clipPath id="clip_35_180"><rect x="35.0" y="180" width="150" height="44" rx="0" /></clipPath>
<rect x="35.0" y="180" width="5" height="44" fill="#00ACC1" clip-path="url(#clip_35_180)" />
<text x="112.0" y="194.0" font-weight="bold" font-size="14" fill="#000000" text-anchor="middle" dominant-baseline="middle">Conv</text>
<text x="112.0" y="213.0" font-size="10" fill="#424242" text-anchor="middle" dominant-baseline="middle">64→128 /4x</text>
<rect x="35.0" y="260" width="150" height="44" rx="0" fill="url(#grad_bb)" stroke="#333333" stroke-width="1.0" filter="url(#shadow)"/>
<clipPath id="clip_35_260"><rect x="35.0" y="260" width="150" height="44" rx="0" /></clipPath>
<rect x="35.0" y="260" width="5" height="44" fill="#546E7A" clip-path="url(#clip_35_260)" />
<text x="112.0" y="274.0" font-weight="bold" font-size="14" fill="#000000" text-anchor="middle" dominant-baseline="middle">C3k2</text>
<text x="112.0" y="293.0" font-size="10" fill="#424242" text-anchor="middle" dominant-baseline="middle">128→256 n=2 /4x</text>
<rect x="35.0" y="340" width="150" height="44" rx="0" fill="url(#grad_bb)" stroke="#333333" stroke-width="1.0" filter="url(#shadow)"/>
<clipPath id="clip_35_340"><rect x="35.0" y="340" width="150" height="44" rx="0" /></clipPath>
<rect x="35.0" y="340" width="5" height="44" fill="#00ACC1" clip-path="url(#clip_35_340)" />
<text x="112.0" y="354.0" font-weight="bold" font-size="14" fill="#000000" text-anchor="middle" dominant-baseline="middle">Conv</text>
<text x="112.0" y="373.0" font-size="10" fill="#424242" text-anchor="middle" dominant-baseline="middle">256c /8x</text>
<rect x="35.0" y="420" width="150" height="44" rx="0" fill="url(#grad_bb)" stroke="#333333" stroke-width="1.0" filter="url(#shadow)"/>
<clipPath id="clip_35_420"><rect x="35.0" y="420" width="150" height="44" rx="0" /></clipPath>
<rect x="35.0" y="420" width="5" height="44" fill="#546E7A" clip-path="url(#clip_35_420)" />
<text x="112.0" y="434.0" font-weight="bold" font-size="14" fill="#000000" text-anchor="middle" dominant-baseline="middle">C3k2</text>
<text x="112.0" y="453.0" font-size="10" fill="#424242" text-anchor="middle" dominant-baseline="middle">256→512 n=2 /8x</text>
<rect x="35.0" y="500" width="150" height="44" rx="0" fill="url(#grad_bb)" stroke="#333333" stroke-width="1.0" filter="url(#shadow)"/>
<clipPath id="clip_35_500"><rect x="35.0" y="500" width="150" height="44" rx="0" /></clipPath>
<rect x="35.0" y="500" width="5" height="44" fill="#00ACC1" clip-path="url(#clip_35_500)" />
<text x="112.0" y="514.0" font-weight="bold" font-size="14" fill="#000000" text-anchor="middle" dominant-baseline="middle">Conv</text>
<text x="112.0" y="533.0" font-size="10" fill="#424242" text-anchor="middle" dominant-baseline="middle">512c /16x</text>
<rect x="35.0" y="580" width="150" height="44" rx="0" fill="url(#grad_bb)" stroke="#333333" stroke-width="1.0" filter="url(#shadow)"/>
<clipPath id="clip_35_580"><rect x="35.0" y="580" width="150" height="44" rx="0" /></clipPath>
<rect x="35.0" y="580" width="5" height="44" fill="#546E7A" clip-path="url(#clip_35_580)" />
<text x="112.0" y="594.0" font-weight="bold" font-size="14" fill="#000000" text-anchor="middle" dominant-baseline="middle">C3k2</text>
<text x="112.0" y="613.0" font-size="10" fill="#424242" text-anchor="middle" dominant-baseline="middle">512c n=2 /16x</text>
<rect x="35.0" y="660" width="150" height="44" rx="0" fill="url(#grad_bb)" stroke="#333333" stroke-width="1.0" filter="url(#shadow)"/>
<clipPath id="clip_35_660"><rect x="35.0" y="660" width="150" height="44" rx="0" /></clipPath>
<rect x="35.0" y="660" width="5" height="44" fill="#00ACC1" clip-path="url(#clip_35_660)" />
<text x="112.0" y="674.0" font-weight="bold" font-size="14" fill="#000000" text-anchor="middle" dominant-baseline="middle">Conv</text>
<text x="112.0" y="693.0" font-size="10" fill="#424242" text-anchor="middle" dominant-baseline="middle">512→1024 /32x</text>
<rect x="35.0" y="740" width="150" height="44" rx="0" fill="url(#grad_bb)" stroke="#333333" stroke-width="1.0" filter="url(#shadow)"/>
<clipPath id="clip_35_740"><rect x="35.0" y="740" width="150" height="44" rx="0" /></clipPath>
<rect x="35.0" y="740" width="5" height="44" fill="#546E7A" clip-path="url(#clip_35_740)" />
<text x="112.0" y="754.0" font-weight="bold" font-size="14" fill="#000000" text-anchor="middle" dominant-baseline="middle">C3k2</text>
<text x="112.0" y="773.0" font-size="10" fill="#424242" text-anchor="middle" dominant-baseline="middle">1024c n=2 /32x</text>
<rect x="35.0" y="820" width="150" height="44" rx="0" fill="url(#grad_bb)" stroke="#333333" stroke-width="1.0" filter="url(#shadow)"/>
<clipPath id="clip_35_820"><rect x="35.0" y="820" width="150" height="44" rx="0" /></clipPath>
<rect x="35.0" y="820" width="5" height="44" fill="#546E7A" clip-path="url(#clip_35_820)" />
<text x="112.0" y="834.0" font-weight="bold" font-size="14" fill="#000000" text-anchor="middle" dominant-baseline="middle">SPPF</text>
<text x="112.0" y="853.0" font-size="10" fill="#424242" text-anchor="middle" dominant-baseline="middle">1024c /32x</text>
<rect x="35.0" y="900" width="150" height="44" rx="0" fill="url(#grad_bb)" stroke="#333333" stroke-width="1.0" filter="url(#shadow)"/>
<clipPath id="clip_35_900"><rect x="35.0" y="900" width="150" height="44" rx="0" /></clipPath>
<rect x="35.0" y="900" width="5" height="44" fill="#546E7A" clip-path="url(#clip_35_900)" />
<text x="112.0" y="914.0" font-weight="bold" font-size="14" fill="#000000" text-anchor="middle" dominant-baseline="middle">C2PSA</text>
<text x="112.0" y="933.0" font-size="10" fill="#424242" text-anchor="middle" dominant-baseline="middle">1024c n=2 /32x</text>
<rect x="255.0" y="100" width="150" height="44" rx="0" fill="url(#grad_neck)" stroke="#333333" stroke-width="1.0" filter="url(#shadow)"/>
<clipPath id="clip_255_100"><rect x="255.0" y="100" width="150" height="44" rx="0" /></clipPath>
<rect x="255.0" y="100" width="5" height="44" fill="#43A047" clip-path="url(#clip_255_100)" />
<text x="332.0" y="114.0" font-weight="bold" font-size="14" fill="#000000" text-anchor="middle" dominant-baseline="middle">nn.Upsample</text>
<text x="332.0" y="133.0" font-size="10" fill="#424242" text-anchor="middle" dominant-baseline="middle">1024c /16x</text>
<rect x="255.0" y="220" width="150" height="44" rx="0" fill="url(#grad_concat)" stroke="#333333" stroke-width="1.5" filter="url(#shadow)"/>
<clipPath id="clip_255_220"><rect x="255.0" y="220" width="150" height="44" rx="0" /></clipPath>
<rect x="255.0" y="220" width="5" height="44" fill="#FFB300" clip-path="url(#clip_255_220)" />
<text x="332.0" y="234.0" font-weight="bold" font-size="14" fill="#000000" text-anchor="middle" dominant-baseline="middle">Concat</text>
<text x="332.0" y="253.0" font-size="10" fill="#424242" text-anchor="middle" dominant-baseline="middle">1024→1536 /16x</text>
<rect x="255.0" y="340" width="150" height="44" rx="0" fill="url(#grad_neck)" stroke="#333333" stroke-width="1.0" filter="url(#shadow)"/>
<clipPath id="clip_255_340"><rect x="255.0" y="340" width="150" height="44" rx="0" /></clipPath>
<rect x="255.0" y="340" width="5" height="44" fill="#546E7A" clip-path="url(#clip_255_340)" />
<text x="332.0" y="354.0" font-weight="bold" font-size="14" fill="#000000" text-anchor="middle" dominant-baseline="middle">C3k2</text>
<text x="332.0" y="373.0" font-size="10" fill="#424242" text-anchor="middle" dominant-baseline="middle">1536→512 n=2 /16x</text>
<rect x="255.0" y="460" width="150" height="44" rx="0" fill="url(#grad_neck)" stroke="#333333" stroke-width="1.0" filter="url(#shadow)"/>
<clipPath id="clip_255_460"><rect x="255.0" y="460" width="150" height="44" rx="0" /></clipPath>
<rect x="255.0" y="460" width="5" height="44" fill="#43A047" clip-path="url(#clip_255_460)" />
<text x="332.0" y="474.0" font-weight="bold" font-size="14" fill="#000000" text-anchor="middle" dominant-baseline="middle">nn.Upsample</text>
<text x="332.0" y="493.0" font-size="10" fill="#424242" text-anchor="middle" dominant-baseline="middle">512c /8x</text>
<rect x="255.0" y="580" width="150" height="44" rx="0" fill="url(#grad_concat)" stroke="#333333" stroke-width="1.5" filter="url(#shadow)"/>
<clipPath id="clip_255_580"><rect x="255.0" y="580" width="150" height="44" rx="0" /></clipPath>
<rect x="255.0" y="580" width="5" height="44" fill="#FFB300" clip-path="url(#clip_255_580)" />
<text x="332.0" y="594.0" font-weight="bold" font-size="14" fill="#000000" text-anchor="middle" dominant-baseline="middle">Concat</text>
<text x="332.0" y="613.0" font-size="10" fill="#424242" text-anchor="middle" dominant-baseline="middle">512→1024 /8x</text>
<rect x="255.0" y="700" width="150" height="44" rx="0" fill="url(#grad_neck)" stroke="#333333" stroke-width="1.0" filter="url(#shadow)"/>
<clipPath id="clip_255_700"><rect x="255.0" y="700" width="150" height="44" rx="0" /></clipPath>
<rect x="255.0" y="700" width="5" height="44" fill="#546E7A" clip-path="url(#clip_255_700)" />
<text x="332.0" y="714.0" font-weight="bold" font-size="14" fill="#000000" text-anchor="middle" dominant-baseline="middle">C3k2</text>
<text x="332.0" y="733.0" font-size="10" fill="#424242" text-anchor="middle" dominant-baseline="middle">1024→256 n=2 /8x</text>
<rect x="255.0" y="820" width="150" height="44" rx="0" fill="url(#grad_neck)" stroke="#333333" stroke-width="1.0" filter="url(#shadow)"/>
<clipPath id="clip_255_820"><rect x="255.0" y="820" width="150" height="44" rx="0" /></clipPath>
<rect x="255.0" y="820" width="5" height="44" fill="#00ACC1" clip-path="url(#clip_255_820)" />
<text x="332.0" y="834.0" font-weight="bold" font-size="14" fill="#000000" text-anchor="middle" dominant-baseline="middle">Conv</text>
<text x="332.0" y="853.0" font-size="10" fill="#424242" text-anchor="middle" dominant-baseline="middle">256c /16x</text>
<rect x="255.0" y="940" width="150" height="44" rx="0" fill="url(#grad_concat)" stroke="#333333" stroke-width="1.5" filter="url(#shadow)"/>
<clipPath id="clip_255_940"><rect x="255.0" y="940" width="150" height="44" rx="0" /></clipPath>
<rect x="255.0" y="940" width="5" height="44" fill="#FFB300" clip-path="url(#clip_255_940)" />
<text x="332.0" y="954.0" font-weight="bold" font-size="14" fill="#000000" text-anchor="middle" dominant-baseline="middle">Concat</text>
<text x="332.0" y="973.0" font-size="10" fill="#424242" text-anchor="middle" dominant-baseline="middle">256→768 /16x</text>
<rect x="555.0" y="100" width="150" height="44" rx="0" fill="url(#grad_neck)" stroke="#333333" stroke-width="1.0" filter="url(#shadow)"/>
<clipPath id="clip_555_100"><rect x="555.0" y="100" width="150" height="44" rx="0" /></clipPath>
<rect x="555.0" y="100" width="5" height="44" fill="#546E7A" clip-path="url(#clip_555_100)" />
<text x="632.0" y="114.0" font-weight="bold" font-size="14" fill="#000000" text-anchor="middle" dominant-baseline="middle">C3k2</text>
<text x="632.0" y="133.0" font-size="10" fill="#424242" text-anchor="middle" dominant-baseline="middle">768→512 n=2 /16x</text>
<rect x="555.0" y="220" width="150" height="44" rx="0" fill="url(#grad_neck)" stroke="#333333" stroke-width="1.0" filter="url(#shadow)"/>
<clipPath id="clip_555_220"><rect x="555.0" y="220" width="150" height="44" rx="0" /></clipPath>
<rect x="555.0" y="220" width="5" height="44" fill="#00ACC1" clip-path="url(#clip_555_220)" />
<text x="632.0" y="234.0" font-weight="bold" font-size="14" fill="#000000" text-anchor="middle" dominant-baseline="middle">Conv</text>
<text x="632.0" y="253.0" font-size="10" fill="#424242" text-anchor="middle" dominant-baseline="middle">512c /32x</text>
<rect x="555.0" y="340" width="150" height="44" rx="0" fill="url(#grad_concat)" stroke="#333333" stroke-width="1.5" filter="url(#shadow)"/>
<clipPath id="clip_555_340"><rect x="555.0" y="340" width="150" height="44" rx="0" /></clipPath>
<rect x="555.0" y="340" width="5" height="44" fill="#FFB300" clip-path="url(#clip_555_340)" />
<text x="632.0" y="354.0" font-weight="bold" font-size="14" fill="#000000" text-anchor="middle" dominant-baseline="middle">Concat</text>
<text x="632.0" y="373.0" font-size="10" fill="#424242" text-anchor="middle" dominant-baseline="middle">512→1536 /32x</text>
<rect x="555.0" y="460" width="150" height="44" rx="0" fill="url(#grad_neck)" stroke="#333333" stroke-width="1.0" filter="url(#shadow)"/>
<clipPath id="clip_555_460"><rect x="555.0" y="460" width="150" height="44" rx="0" /></clipPath>
<rect x="555.0" y="460" width="5" height="44" fill="#546E7A" clip-path="url(#clip_555_460)" />
<text x="632.0" y="474.0" font-weight="bold" font-size="14" fill="#000000" text-anchor="middle" dominant-baseline="middle">C3k2</text>
<text x="632.0" y="493.0" font-size="10" fill="#424242" text-anchor="middle" dominant-baseline="middle">1536→1024 /32x</text>
<rect x="855.0" y="700" width="150" height="44" rx="0" fill="url(#grad_head)" stroke="#333333" stroke-width="1.0" filter="url(#shadow)"/>
<clipPath id="clip_855_700"><rect x="855.0" y="700" width="150" height="44" rx="0" /></clipPath>
<rect x="855.0" y="700" width="5" height="44" fill="#D81B60" clip-path="url(#clip_855_700)" />
<text x="932.0" y="714.0" font-weight="bold" font-size="14" fill="#000000" text-anchor="middle" dominant-baseline="middle">Detect (P3/8)</text>
<text x="932.0" y="733.0" font-size="10" fill="#424242" text-anchor="middle" dominant-baseline="middle">256c /8x</text>
<rect x="855.0" y="820" width="150" height="44" rx="0" fill="url(#grad_head)" stroke="#333333" stroke-width="1.0" filter="url(#shadow)"/>
<clipPath id="clip_855_820"><rect x="855.0" y="820" width="150" height="44" rx="0" /></clipPath>
<rect x="855.0" y="820" width="5" height="44" fill="#D81B60" clip-path="url(#clip_855_820)" />
<text x="932.0" y="834.0" font-weight="bold" font-size="14" fill="#000000" text-anchor="middle" dominant-baseline="middle">Detect (P4/16)</text>
<text x="932.0" y="853.0" font-size="10" fill="#424242" text-anchor="middle" dominant-baseline="middle">512c /16x</text>
<rect x="855.0" y="940" width="150" height="44" rx="0" fill="url(#grad_head)" stroke="#333333" stroke-width="1.0" filter="url(#shadow)"/>
<clipPath id="clip_855_940"><rect x="855.0" y="940" width="150" height="44" rx="0" /></clipPath>
<rect x="855.0" y="940" width="5" height="44" fill="#D81B60" clip-path="url(#clip_855_940)" />
<text x="932.0" y="954.0" font-weight="bold" font-size="14" fill="#000000" text-anchor="middle" dominant-baseline="middle">Detect (P5/32)</text>
<text x="932.0" y="973.0" font-size="10" fill="#424242" text-anchor="middle" dominant-baseline="middle">1024c /32x</text>
<path d="M 110.0 144 L 110.0 180" stroke="#222222" stroke-width="1.2" fill="none"  marker-end="url(#arrow)" />
<path d="M 110.0 224 L 110.0 260" stroke="#222222" stroke-width="1.2" fill="none"  marker-end="url(#arrow)" />
<path d="M 110.0 304 L 110.0 340" stroke="#222222" stroke-width="1.2" fill="none"  marker-end="url(#arrow)" />
<path d="M 110.0 384 L 110.0 420" stroke="#222222" stroke-width="1.2" fill="none"  marker-end="url(#arrow)" />
<path d="M 110.0 464 L 110.0 500" stroke="#222222" stroke-width="1.2" fill="none"  marker-end="url(#arrow)" />
<path d="M 110.0 544 L 110.0 580" stroke="#222222" stroke-width="1.2" fill="none"  marker-end="url(#arrow)" />
<path d="M 110.0 624 L 110.0 660" stroke="#222222" stroke-width="1.2" fill="none"  marker-end="url(#arrow)" />
<path d="M 110.0 704 L 110.0 740" stroke="#222222" stroke-width="1.2" fill="none"  marker-end="url(#arrow)" />
<path d="M 110.0 784 L 110.0 820" stroke="#222222" stroke-width="1.2" fill="none"  marker-end="url(#arrow)" />
<path d="M 110.0 864 L 110.0 900" stroke="#222222" stroke-width="1.2" fill="none"  marker-end="url(#arrow)" />
<path d="M 185.0 922.0 C 220.0 922.0, 220.0 122.0, 255.0 122.0" stroke="#222222" stroke-width="1.2" fill="none" stroke-dasharray="5,3" marker-end="url(#arrow)" />
<path d="M 330.0 144 L 330.0 220" stroke="#222222" stroke-width="1.2" fill="none"  marker-end="url(#arrow)" />
<path d="M 185.0 602.0 C 220.0 602.0, 220.0 242.0, 255.0 242.0" stroke="#222222" stroke-width="1.2" fill="none" stroke-dasharray="5,3" marker-end="url(#arrow)" />
<path d="M 330.0 264 L 330.0 340" stroke="#222222" stroke-width="1.2" fill="none"  marker-end="url(#arrow)" />
<path d="M 330.0 384 L 330.0 460" stroke="#222222" stroke-width="1.2" fill="none"  marker-end="url(#arrow)" />
<path d="M 330.0 504 L 330.0 580" stroke="#222222" stroke-width="1.2" fill="none"  marker-end="url(#arrow)" />
<path d="M 185.0 442.0 C 220.0 442.0, 220.0 602.0, 255.0 602.0" stroke="#222222" stroke-width="1.2" fill="none" stroke-dasharray="5,3" marker-end="url(#arrow)" />
<path d="M 330.0 624 L 330.0 700" stroke="#222222" stroke-width="1.2" fill="none"  marker-end="url(#arrow)" />
<path d="M 330.0 744 L 330.0 820" stroke="#222222" stroke-width="1.2" fill="none"  marker-end="url(#arrow)" />
<path d="M 330.0 864 L 330.0 940" stroke="#222222" stroke-width="1.2" fill="none"  marker-end="url(#arrow)" />
<path d="M 405.0 362.0 C 465.0 362.0, 465.0 962.0, 405.0 962.0" stroke="#222222" stroke-width="1.2" fill="none" stroke-dasharray="5,3" marker-end="url(#arrow)" />
<path d="M 405.0 962.0 C 480.0 962.0, 480.0 122.0, 555.0 122.0" stroke="#222222" stroke-width="1.2" fill="none"  marker-end="url(#arrow)" />
<path d="M 630.0 144 L 630.0 220" stroke="#222222" stroke-width="1.2" fill="none"  marker-end="url(#arrow)" />
<path d="M 630.0 264 L 630.0 340" stroke="#222222" stroke-width="1.2" fill="none"  marker-end="url(#arrow)" />
<path d="M 185.0 922.0 C 370.0 922.0, 370.0 362.0, 555.0 362.0" stroke="#222222" stroke-width="1.2" fill="none" stroke-dasharray="5,3" marker-end="url(#arrow)" />
<path d="M 630.0 384 L 630.0 460" stroke="#222222" stroke-width="1.2" fill="none"  marker-end="url(#arrow)" />
<path d="M 405.0 722.0 C 630.0 722.0, 630.0 722.0, 855.0 722.0" stroke="#222222" stroke-width="1.2" fill="none" stroke-dasharray="5,3" marker-end="url(#arrow)" />
<path d="M 705.0 122.0 C 780.0 122.0, 780.0 842.0, 855.0 842.0" stroke="#222222" stroke-width="1.2" fill="none" stroke-dasharray="5,3" marker-end="url(#arrow)" />
<path d="M 705.0 482.0 C 780.0 482.0, 780.0 962.0, 855.0 962.0" stroke="#222222" stroke-width="1.2" fill="none" stroke-dasharray="5,3" marker-end="url(#arrow)" />
<text x="110.0" y="55" font-weight="bold" font-size="18" fill="#000000" text-anchor="middle" letter-spacing="1">Backbone</text>
<line x1="20" y1="65" x2="200" y2="65" stroke="#90A4AE" stroke-width="1"/>
<text x="520.0" y="55" font-weight="bold" font-size="18" fill="#000000" text-anchor="middle" letter-spacing="1">Neck</text>
<line x1="240" y1="65" x2="800" y2="65" stroke="#90A4AE" stroke-width="1"/>
<text x="930.0" y="55" font-weight="bold" font-size="18" fill="#000000" text-anchor="middle" letter-spacing="1">Head</text>
<line x1="840" y1="65" x2="1020" y2="65" stroke="#90A4AE" stroke-width="1"/></svg>