<?xml version="1.0" encoding="UTF-8" standalone="no"?>
<!DOCTYPE svg PUBLIC "-//W3C//DTD SVG 1.1//EN"
 "http://www.w3.org/Graphics/SVG/1.1/DTD/svg11.dtd">
<!-- Generated by graphviz version 2.40.1 (0)
 -->
<!-- Title: %3 Pages: 1 -->
<svg width="283pt" height="2679pt"
 viewBox="0.00 0.00 283.00 2678.74" xmlns="http://www.w3.org/2000/svg" xmlns:xlink="http://www.w3.org/1999/xlink">
<g id="graph0" class="graph" transform="scale(1 1) rotate(0) translate(4 2674.7401)">
<title>%3</title>
<polygon fill="#ffffff" stroke="transparent" points="-4,4 -4,-2674.7401 279,-2674.7401 279,4 -4,4"/>
<g id="clust1" class="cluster">
<title>cluster_backbone</title>
<path fill="#ffffff" stroke="#c6e2ff" d="M38,-1535C38,-1535 148,-1535 148,-1535 154,-1535 160,-1541 160,-1547 160,-1547 160,-2579 160,-2579 160,-2585 154,-2591 148,-2591 148,-2591 38,-2591 38,-2591 32,-2591 26,-2585 26,-2579 26,-2579 26,-1547 26,-1547 26,-1541 32,-1535 38,-1535"/>
<text text-anchor="middle" x="93" y="-2579" font-family="Helvetica,sans-Serif" font-size="10.00" fill="#000000">Backbone</text>
</g>
<g id="clust2" class="cluster">
<title>cluster_neck</title>
<path fill="#ffffff" stroke="#fff0b3" d="M20,-117C20,-117 174,-117 174,-117 180,-117 186,-123 186,-129 186,-129 186,-1515 186,-1515 186,-1521 180,-1527 174,-1527 174,-1527 20,-1527 20,-1527 14,-1527 8,-1521 8,-1515 8,-1515 8,-129 8,-129 8,-123 14,-117 20,-117"/>
<text text-anchor="middle" x="97" y="-1515" font-family="Helvetica,sans-Serif" font-size="10.00" fill="#000000">Neck</text>
</g>
<g id="clust3" class="cluster">
<title>cluster_head</title>
<path fill="#ffffff" stroke="#ffe6e6" d="M59,-8C59,-8 255,-8 255,-8 261,-8 267,-14 267,-20 267,-20 267,-97 267,-97 267,-103 261,-109 255,-109 255,-109 59,-109 59,-109 53,-109 47,-103 47,-97 47,-97 47,-20 47,-20 47,-14 53,-8 59,-8"/>
<text text-anchor="middle" x="157" y="-97" font-family="Helvetica,sans-Serif" font-size="10.00" fill="#000000">Head</text>
</g>
<!-- Input -->
<g id="node1" class="node">
<title>Input</title>
<ellipse fill="#ffddaa" stroke="#000000" cx="93" cy="-2643.8701" rx="31.6406" ry="26.7407"/>
<text text-anchor="middle" x="93" y="-2647.6701" font-family="Times,serif" font-size="14.00" fill="#000000">Input</text>
<text text-anchor="middle" x="93" y="-2632.6701" font-family="Times,serif" font-size="14.00" fill="#000000">C=3</text>
</g>
<!-- L0 -->
<g id="node2" class="node">
<title>L0</title>
<path fill="#c2e7d9" stroke="#2f4f4f" d="M77,-2499.5C77,-2499.5 109,-2499.5 109,-2499.5 115,-2499.5 121,-2505.5 121,-2511.5 121,-2511.5 121,-2539.5 121,-2539.5 121,-2545.5 115,-2551.5 109,-2551.5 109,-2551.5 77,-2551.5 77,-2551.5 71,-2551.5 65,-2545.5 65,-2539.5 65,-2539.5 65,-2511.5 65,-2511.5 65,-2505.5 71,-2499.5 77,-2499.5"/>
<text text-anchor="middle" x="93" y="-2539.5" font-family="Helvetica,sans-Serif" font-size="10.00" fill="#000000">Conv</text>
<text text-anchor="middle" x="93" y="-2528.5" font-family="Helvetica,sans-Serif" font-size="10.00" fill="#000000">3 → 64</text>
<text text-anchor="middle" x="93" y="-2517.5" font-family="Helvetica,sans-Serif" font-size="10.00" fill="#000000">n=1</text>
<text text-anchor="middle" x="93" y="-2506.5" font-family="Helvetica,sans-Serif" font-size="10.00" fill="#000000">[64, 3, 2]</text>
</g>
<!-- Input&#45;&gt;L0 -->
<g id="edge1" class="edge">
<title>Input&#45;&gt;L0</title>
<path fill="none" stroke="#000000" stroke-width="1.1" d="M93,-2616.7136C93,-2616.7136 93,-2561.7162 93,-2561.7162"/>
<polygon fill="#000000" stroke="#000000" stroke-width="1.1" points="93,-2551.7162 97.5001,-2561.7162 93.05,-2556.7162 93.0501,-2561.7162 93.0001,-2561.7162 92.9501,-2561.7162 92.95,-2556.7162 88.5001,-2561.7163 93,-2551.7162 93,-2551.7162"/>
</g>
<!-- L1 -->
<g id="node3" class="node">
<title>L1</title>
<path fill="#c2e7d9" stroke="#2f4f4f" d="M74.5,-2381.5C74.5,-2381.5 111.5,-2381.5 111.5,-2381.5 117.5,-2381.5 123.5,-2387.5 123.5,-2393.5 123.5,-2393.5 123.5,-2421.5 123.5,-2421.5 123.5,-2427.5 117.5,-2433.5 111.5,-2433.5 111.5,-2433.5 74.5,-2433.5 74.5,-2433.5 68.5,-2433.5 62.5,-2427.5 62.5,-2421.5 62.5,-2421.5 62.5,-2393.5 62.5,-2393.5 62.5,-2387.5 68.5,-2381.5 74.5,-2381.5"/>
<text text-anchor="middle" x="93" y="-2421.5" font-family="Helvetica,sans-Serif" font-size="10.00" fill="#000000">Conv</text>
<text text-anchor="middle" x="93" y="-2410.5" font-family="Helvetica,sans-Serif" font-size="10.00" fill="#000000">64 → 128</text>
<text text-anchor="middle" x="93" y="-2399.5" font-family="Helvetica,sans-Serif" font-size="10.00" fill="#000000">n=1</text>
<text text-anchor="middle" x="93" y="-2388.5" font-family="Helvetica,sans-Serif" font-size="10.00" fill="#000000">[128, 3, 2]</text>
</g>
<!-- L0&#45;&gt;L1 -->
<g id="edge2" class="edge">
<title>L0&#45;&gt;L1</title>
<path fill="none" stroke="#000000" stroke-width="1.1" d="M93,-2499.312C93,-2499.312 93,-2443.6148 93,-2443.6148"/>
<polygon fill="#000000" stroke="#000000" stroke-width="1.1" points="93,-2433.6148 97.5001,-2443.6148 93.05,-2438.6148 93.0501,-2443.6148 93.0001,-2443.6148 92.9501,-2443.6148 92.95,-2438.6148 88.5001,-2443.6149 93,-2433.6148 93,-2433.6148"/>
</g>
<!-- L2 -->
<g id="node4" class="node">
<title>L2</title>
<path fill="#ffd6a5" stroke="#2f4f4f" d="M58.5,-2263.5C58.5,-2263.5 127.5,-2263.5 127.5,-2263.5 133.5,-2263.5 139.5,-2269.5 139.5,-2275.5 139.5,-2275.5 139.5,-2303.5 139.5,-2303.5 139.5,-2309.5 133.5,-2315.5 127.5,-2315.5 127.5,-2315.5 58.5,-2315.5 58.5,-2315.5 52.5,-2315.5 46.5,-2309.5 46.5,-2303.5 46.5,-2303.5 46.5,-2275.5 46.5,-2275.5 46.5,-2269.5 52.5,-2263.5 58.5,-2263.5"/>
<text text-anchor="middle" x="93" y="-2303.5" font-family="Helvetica,sans-Serif" font-size="10.00" fill="#000000">C3k2</text>
<text text-anchor="middle" x="93" y="-2292.5" font-family="Helvetica,sans-Serif" font-size="10.00" fill="#000000">128 → 256</text>
<text text-anchor="middle" x="93" y="-2281.5" font-family="Helvetica,sans-Serif" font-size="10.00" fill="#000000">n=2</text>
<text text-anchor="middle" x="93" y="-2270.5" font-family="Helvetica,sans-Serif" font-size="10.00" fill="#000000">[256, False, 0.25]</text>
</g>
<!-- L1&#45;&gt;L2 -->
<g id="edge3" class="edge">
<title>L1&#45;&gt;L2</title>
<path fill="none" stroke="#000000" stroke-width="1.1" d="M93,-2381.312C93,-2381.312 93,-2325.6148 93,-2325.6148"/>
<polygon fill="#000000" stroke="#000000" stroke-width="1.1" points="93,-2315.6148 97.5001,-2325.6148 93.05,-2320.6148 93.0501,-2325.6148 93.0001,-2325.6148 92.9501,-2325.6148 92.95,-2320.6148 88.5001,-2325.6149 93,-2315.6148 93,-2315.6148"/>
</g>
<!-- L3 -->
<g id="node5" class="node">
<title>L3</title>
<path fill="#c2e7d9" stroke="#2f4f4f" d="M73,-2145.5C73,-2145.5 113,-2145.5 113,-2145.5 119,-2145.5 125,-2151.5 125,-2157.5 125,-2157.5 125,-2185.5 125,-2185.5 125,-2191.5 119,-2197.5 113,-2197.5 113,-2197.5 73,-2197.5 73,-2197.5 67,-2197.5 61,-2191.5 61,-2185.5 61,-2185.5 61,-2157.5 61,-2157.5 61,-2151.5 67,-2145.5 73,-2145.5"/>
<text text-anchor="middle" x="93" y="-2185.5" font-family="Helvetica,sans-Serif" font-size="10.00" fill="#000000">Conv</text>
<text text-anchor="middle" x="93" y="-2174.5" font-family="Helvetica,sans-Serif" font-size="10.00" fill="#000000">256 → 256</text>
<text text-anchor="middle" x="93" y="-2163.5" font-family="Helvetica,sans-Serif" font-size="10.00" fill="#000000">n=1</text>
<text text-anchor="middle" x="93" y="-2152.5" font-family="Helvetica,sans-Serif" font-size="10.00" fill="#000000">[256, 3, 2]</text>
</g>
<!-- L2&#45;&gt;L3 -->
<g id="edge4" class="edge">
<title>L2&#45;&gt;L3</title>
<path fill="none" stroke="#000000" stroke-width="1.1" d="M93,-2263.312C93,-2263.312 93,-2207.6148 93,-2207.6148"/>
<polygon fill="#000000" stroke="#000000" stroke-width="1.1" points="93,-2197.6148 97.5001,-2207.6148 93.05,-2202.6148 93.0501,-2207.6148 93.0001,-2207.6148 92.9501,-2207.6148 92.95,-2202.6148 88.5001,-2207.6149 93,-2197.6148 93,-2197.6148"/>
</g>
<!-- L4 -->
<g id="node6" class="node">
<title>L4</title>
<path fill="#ffd6a5" stroke="#2f4f4f" d="M58.5,-2027.5C58.5,-2027.5 127.5,-2027.5 127.5,-2027.5 133.5,-2027.5 139.5,-2033.5 139.5,-2039.5 139.5,-2039.5 139.5,-2067.5 139.5,-2067.5 139.5,-2073.5 133.5,-2079.5 127.5,-2079.5 127.5,-2079.5 58.5,-2079.5 58.5,-2079.5 52.5,-2079.5 46.5,-2073.5 46.5,-2067.5 46.5,-2067.5 46.5,-2039.5 46.5,-2039.5 46.5,-2033.5 52.5,-2027.5 58.5,-2027.5"/>
<text text-anchor="middle" x="93" y="-2067.5" font-family="Helvetica,sans-Serif" font-size="10.00" fill="#000000">C3k2</text>
<text text-anchor="middle" x="93" y="-2056.5" font-family="Helvetica,sans-Serif" font-size="10.00" fill="#000000">256 → 512</text>
<text text-anchor="middle" x="93" y="-2045.5" font-family="Helvetica,sans-Serif" font-size="10.00" fill="#000000">n=2</text>
<text text-anchor="middle" x="93" y="-2034.5" font-family="Helvetica,sans-Serif" font-size="10.00" fill="#000000">[512, False, 0.25]</text>
</g>
<!-- L3&#45;&gt;L4 -->
<g id="edge5" class="edge">
<title>L3&#45;&gt;L4</title>
<path fill="none" stroke="#000000" stroke-width="1.1" d="M93,-2145.312C93,-2145.312 93,-2089.6148 93,-2089.6148"/>
<polygon fill="#000000" stroke="#000000" stroke-width="1.1" points="93,-2079.6148 97.5001,-2089.6148 93.05,-2084.6148 93.0501,-2089.6148 93.0001,-2089.6148 92.9501,-2089.6148 92.95,-2084.6148 88.5001,-2089.6149 93,-2079.6148 93,-2079.6148"/>
</g>
<!-- L5 -->
<g id="node7" class="node">
<title>L5</title>
<path fill="#c2e7d9" stroke="#2f4f4f" d="M73,-1909.5C73,-1909.5 113,-1909.5 113,-1909.5 119,-1909.5 125,-1915.5 125,-1921.5 125,-1921.5 125,-1949.5 125,-1949.5 125,-1955.5 119,-1961.5 113,-1961.5 113,-1961.5 73,-1961.5 73,-1961.5 67,-1961.5 61,-1955.5 61,-1949.5 61,-1949.5 61,-1921.5 61,-1921.5 61,-1915.5 67,-1909.5 73,-1909.5"/>
<text text-anchor="middle" x="93" y="-1949.5" font-family="Helvetica,sans-Serif" font-size="10.00" fill="#000000">Conv</text>
<text text-anchor="middle" x="93" y="-1938.5" font-family="Helvetica,sans-Serif" font-size="10.00" fill="#000000">512 → 512</text>
<text text-anchor="middle" x="93" y="-1927.5" font-family="Helvetica,sans-Serif" font-size="10.00" fill="#000000">n=1</text>
<text text-anchor="middle" x="93" y="-1916.5" font-family="Helvetica,sans-Serif" font-size="10.00" fill="#000000">[512, 3, 2]</text>
</g>
<!-- L4&#45;&gt;L5 -->
<g id="edge6" class="edge">
<title>L4&#45;&gt;L5</title>
<path fill="none" stroke="#000000" stroke-width="1.1" d="M93,-2027.312C93,-2027.312 93,-1971.6148 93,-1971.6148"/>
<polygon fill="#000000" stroke="#000000" stroke-width="1.1" points="93,-1961.6148 97.5001,-1971.6148 93.05,-1966.6148 93.0501,-1971.6148 93.0001,-1971.6148 92.9501,-1971.6148 92.95,-1966.6148 88.5001,-1971.6149 93,-1961.6148 93,-1961.6148"/>
</g>
<!-- L13 -->
<g id="node15" class="node">
<title>L13</title>
<path fill="#bdb2ff" stroke="#2f4f4f" d="M95,-963.5C95,-963.5 145,-963.5 145,-963.5 151,-963.5 157,-969.5 157,-975.5 157,-975.5 157,-1003.5 157,-1003.5 157,-1009.5 151,-1015.5 145,-1015.5 145,-1015.5 95,-1015.5 95,-1015.5 89,-1015.5 83,-1009.5 83,-1003.5 83,-1003.5 83,-975.5 83,-975.5 83,-969.5 89,-963.5 95,-963.5"/>
<text text-anchor="middle" x="120" y="-1003.5" font-family="Helvetica,sans-Serif" font-size="10.00" fill="#000000">Concat</text>
<text text-anchor="middle" x="120" y="-992.5" font-family="Helvetica,sans-Serif" font-size="10.00" fill="#000000">1024 → 1024</text>
<text text-anchor="middle" x="120" y="-981.5" font-family="Helvetica,sans-Serif" font-size="10.00" fill="#000000">n=1</text>
<text text-anchor="middle" x="120" y="-970.5" font-family="Helvetica,sans-Serif" font-size="10.00" fill="#000000">[1]</text>
</g>
<!-- L4&#45;&gt;L13 -->
<g id="edge16" class="edge">
<title>L4&#45;&gt;L13</title>
<path fill="none" stroke="#000000" stroke-width="1.1" d="M46.4324,-2053C30.2166,-2053 16,-2053 16,-2053 16,-2053 16,-989 16,-989 16,-989 72.7474,-989 72.7474,-989"/>
<polygon fill="#000000" stroke="#000000" stroke-width="1.1" points="82.7474,-989 72.7474,-993.5001 77.7474,-989.05 72.7474,-989.0501 72.7474,-989.0001 72.7474,-988.9501 77.7474,-988.95 72.7473,-984.5001 82.7474,-989 82.7474,-989"/>
</g>
<!-- L6 -->
<g id="node8" class="node">
<title>L6</title>
<path fill="#ffb5a7" stroke="#2f4f4f" d="M68,-1791.5C68,-1791.5 118,-1791.5 118,-1791.5 124,-1791.5 130,-1797.5 130,-1803.5 130,-1803.5 130,-1831.5 130,-1831.5 130,-1837.5 124,-1843.5 118,-1843.5 118,-1843.5 68,-1843.5 68,-1843.5 62,-1843.5 56,-1837.5 56,-1831.5 56,-1831.5 56,-1803.5 56,-1803.5 56,-1797.5 62,-1791.5 68,-1791.5"/>
<text text-anchor="middle" x="93" y="-1831.5" font-family="Helvetica,sans-Serif" font-size="10.00" fill="#000000">A2C2f</text>
<text text-anchor="middle" x="93" y="-1820.5" font-family="Helvetica,sans-Serif" font-size="10.00" fill="#000000">512 → 512</text>
<text text-anchor="middle" x="93" y="-1809.5" font-family="Helvetica,sans-Serif" font-size="10.00" fill="#000000">n=4</text>
<text text-anchor="middle" x="93" y="-1798.5" font-family="Helvetica,sans-Serif" font-size="10.00" fill="#000000">[512, True, 4]</text>
</g>
<!-- L5&#45;&gt;L6 -->
<g id="edge7" class="edge">
<title>L5&#45;&gt;L6</title>
<path fill="none" stroke="#000000" stroke-width="1.1" d="M93,-1909.312C93,-1909.312 93,-1853.6148 93,-1853.6148"/>
<polygon fill="#000000" stroke="#000000" stroke-width="1.1" points="93,-1843.6148 97.5001,-1853.6148 93.05,-1848.6148 93.0501,-1853.6148 93.0001,-1853.6148 92.9501,-1853.6148 92.95,-1848.6148 88.5001,-1853.6149 93,-1843.6148 93,-1843.6148"/>
</g>
<!-- L7 -->
<g id="node9" class="node">
<title>L7</title>
<path fill="#c2e7d9" stroke="#2f4f4f" d="M68.5,-1673.5C68.5,-1673.5 113.5,-1673.5 113.5,-1673.5 119.5,-1673.5 125.5,-1679.5 125.5,-1685.5 125.5,-1685.5 125.5,-1713.5 125.5,-1713.5 125.5,-1719.5 119.5,-1725.5 113.5,-1725.5 113.5,-1725.5 68.5,-1725.5 68.5,-1725.5 62.5,-1725.5 56.5,-1719.5 56.5,-1713.5 56.5,-1713.5 56.5,-1685.5 56.5,-1685.5 56.5,-1679.5 62.5,-1673.5 68.5,-1673.5"/>
<text text-anchor="middle" x="91" y="-1713.5" font-family="Helvetica,sans-Serif" font-size="10.00" fill="#000000">Conv</text>
<text text-anchor="middle" x="91" y="-1702.5" font-family="Helvetica,sans-Serif" font-size="10.00" fill="#000000">512 → 1024</text>
<text text-anchor="middle" x="91" y="-1691.5" font-family="Helvetica,sans-Serif" font-size="10.00" fill="#000000">n=1</text>
<text text-anchor="middle" x="91" y="-1680.5" font-family="Helvetica,sans-Serif" font-size="10.00" fill="#000000">[1024, 3, 2]</text>
</g>
<!-- L6&#45;&gt;L7 -->
<g id="edge8" class="edge">
<title>L6&#45;&gt;L7</title>
<path fill="none" stroke="#000000" stroke-width="1.1" d="M91,-1791.312C91,-1791.312 91,-1735.6148 91,-1735.6148"/>
<polygon fill="#000000" stroke="#000000" stroke-width="1.1" points="91,-1725.6148 95.5001,-1735.6148 91.05,-1730.6148 91.0501,-1735.6148 91.0001,-1735.6148 90.9501,-1735.6148 90.95,-1730.6148 86.5001,-1735.6149 91,-1725.6148 91,-1725.6148"/>
</g>
<!-- L10 -->
<g id="node12" class="node">
<title>L10</title>
<path fill="#bdb2ff" stroke="#2f4f4f" d="M72,-1317.5C72,-1317.5 122,-1317.5 122,-1317.5 128,-1317.5 134,-1323.5 134,-1329.5 134,-1329.5 134,-1357.5 134,-1357.5 134,-1363.5 128,-1369.5 122,-1369.5 122,-1369.5 72,-1369.5 72,-1369.5 66,-1369.5 60,-1363.5 60,-1357.5 60,-1357.5 60,-1329.5 60,-1329.5 60,-1323.5 66,-1317.5 72,-1317.5"/>
<text text-anchor="middle" x="97" y="-1357.5" font-family="Helvetica,sans-Serif" font-size="10.00" fill="#000000">Concat</text>
<text text-anchor="middle" x="97" y="-1346.5" font-family="Helvetica,sans-Serif" font-size="10.00" fill="#000000">1536 → 1536</text>
<text text-anchor="middle" x="97" y="-1335.5" font-family="Helvetica,sans-Serif" font-size="10.00" fill="#000000">n=1</text>
<text text-anchor="middle" x="97" y="-1324.5" font-family="Helvetica,sans-Serif" font-size="10.00" fill="#000000">[1]</text>
</g>
<!-- L6&#45;&gt;L10 -->
<g id="edge12" class="edge">
<title>L6&#45;&gt;L10</title>
<path fill="none" stroke="#000000" stroke-width="1.1" d="M130.1611,-1817C142.3118,-1817 152.75,-1817 152.75,-1817 152.75,-1817 152.75,-1343 152.75,-1343 152.75,-1343 144.1861,-1343 144.1861,-1343"/>
<polygon fill="#000000" stroke="#000000" stroke-width="1.1" points="134.1861,-1343 144.1861,-1338.5001 139.1861,-1342.95 144.1861,-1342.9501 144.1861,-1343.0001 144.1861,-1343.0501 139.1861,-1343.05 144.186,-1347.5001 134.1861,-1343 134.1861,-1343"/>
</g>
<!-- L8 -->
<g id="node10" class="node">
<title>L8</title>
<path fill="#ffb5a7" stroke="#2f4f4f" d="M58,-1555.5C58,-1555.5 114,-1555.5 114,-1555.5 120,-1555.5 126,-1561.5 126,-1567.5 126,-1567.5 126,-1595.5 126,-1595.5 126,-1601.5 120,-1607.5 114,-1607.5 114,-1607.5 58,-1607.5 58,-1607.5 52,-1607.5 46,-1601.5 46,-1595.5 46,-1595.5 46,-1567.5 46,-1567.5 46,-1561.5 52,-1555.5 58,-1555.5"/>
<text text-anchor="middle" x="86" y="-1595.5" font-family="Helvetica,sans-Serif" font-size="10.00" fill="#000000">A2C2f</text>
<text text-anchor="middle" x="86" y="-1584.5" font-family="Helvetica,sans-Serif" font-size="10.00" fill="#000000">1024 → 1024</text>
<text text-anchor="middle" x="86" y="-1573.5" font-family="Helvetica,sans-Serif" font-size="10.00" fill="#000000">n=4</text>
<text text-anchor="middle" x="86" y="-1562.5" font-family="Helvetica,sans-Serif" font-size="10.00" fill="#000000">[1024, True, 1]</text>
</g>
<!-- L7&#45;&gt;L8 -->
<g id="edge9" class="edge">
<title>L7&#45;&gt;L8</title>
<path fill="none" stroke="#000000" stroke-width="1.1" d="M91,-1673.312C91,-1673.312 91,-1617.6148 91,-1617.6148"/>
<polygon fill="#000000" stroke="#000000" stroke-width="1.1" points="91,-1607.6148 95.5001,-1617.6148 91.05,-1612.6148 91.0501,-1617.6148 91.0001,-1617.6148 90.9501,-1617.6148 90.95,-1612.6148 86.5001,-1617.6149 91,-1607.6148 91,-1607.6148"/>
</g>
<!-- L9 -->
<g id="node11" class="node">
<title>L9</title>
<path fill="#a0c4ff" stroke="#2f4f4f" d="M40,-1435.5C40,-1435.5 116,-1435.5 116,-1435.5 122,-1435.5 128,-1441.5 128,-1447.5 128,-1447.5 128,-1475.5 128,-1475.5 128,-1481.5 122,-1487.5 116,-1487.5 116,-1487.5 40,-1487.5 40,-1487.5 34,-1487.5 28,-1481.5 28,-1475.5 28,-1475.5 28,-1447.5 28,-1447.5 28,-1441.5 34,-1435.5 40,-1435.5"/>
<text text-anchor="middle" x="78" y="-1475.5" font-family="Helvetica,sans-Serif" font-size="10.00" fill="#000000">nn.Upsample</text>
<text text-anchor="middle" x="78" y="-1464.5" font-family="Helvetica,sans-Serif" font-size="10.00" fill="#000000">1024 → 1024</text>
<text text-anchor="middle" x="78" y="-1453.5" font-family="Helvetica,sans-Serif" font-size="10.00" fill="#000000">n=1</text>
<text text-anchor="middle" x="78" y="-1442.5" font-family="Helvetica,sans-Serif" font-size="10.00" fill="#000000">[None, 2, &#39;nearest&#39;]</text>
</g>
<!-- L8&#45;&gt;L9 -->
<g id="edge10" class="edge">
<title>L8&#45;&gt;L9</title>
<path fill="none" stroke="#000000" stroke-width="1.1" d="M86,-1555.4618C86,-1555.4618 86,-1497.9018 86,-1497.9018"/>
<polygon fill="#000000" stroke="#000000" stroke-width="1.1" points="86,-1487.9018 90.5001,-1497.9017 86.05,-1492.9018 86.0501,-1497.9018 86.0001,-1497.9018 85.9501,-1497.9018 85.95,-1492.9018 81.5001,-1497.9018 86,-1487.9018 86,-1487.9018"/>
</g>
<!-- L19 -->
<g id="node21" class="node">
<title>L19</title>
<path fill="#bdb2ff" stroke="#2f4f4f" d="M40,-255.5C40,-255.5 90,-255.5 90,-255.5 96,-255.5 102,-261.5 102,-267.5 102,-267.5 102,-295.5 102,-295.5 102,-301.5 96,-307.5 90,-307.5 90,-307.5 40,-307.5 40,-307.5 34,-307.5 28,-301.5 28,-295.5 28,-295.5 28,-267.5 28,-267.5 28,-261.5 34,-255.5 40,-255.5"/>
<text text-anchor="middle" x="65" y="-295.5" font-family="Helvetica,sans-Serif" font-size="10.00" fill="#000000">Concat</text>
<text text-anchor="middle" x="65" y="-284.5" font-family="Helvetica,sans-Serif" font-size="10.00" fill="#000000">1536 → 1536</text>
<text text-anchor="middle" x="65" y="-273.5" font-family="Helvetica,sans-Serif" font-size="10.00" fill="#000000">n=1</text>
<text text-anchor="middle" x="65" y="-262.5" font-family="Helvetica,sans-Serif" font-size="10.00" fill="#000000">[1]</text>
</g>
<!-- L8&#45;&gt;L19 -->
<g id="edge24" class="edge">
<title>L8&#45;&gt;L19</title>
<path fill="none" stroke="#000000" stroke-width="1.1" d="M45.9609,-1581C25.1456,-1581 4,-1581 4,-1581 4,-1581 4,-281 4,-281 4,-281 17.7589,-281 17.7589,-281"/>
<polygon fill="#000000" stroke="#000000" stroke-width="1.1" points="27.7589,-281 17.7589,-285.5001 22.7589,-281.05 17.7589,-281.0501 17.7589,-281.0001 17.7589,-280.9501 22.7589,-280.95 17.7588,-276.5001 27.7589,-281 27.7589,-281"/>
</g>
<!-- L9&#45;&gt;L10 -->
<g id="edge11" class="edge">
<title>L9&#45;&gt;L10</title>
<path fill="none" stroke="#000000" stroke-width="1.1" d="M94,-1435.312C94,-1435.312 94,-1379.6148 94,-1379.6148"/>
<polygon fill="#000000" stroke="#000000" stroke-width="1.1" points="94,-1369.6148 98.5001,-1379.6148 94.05,-1374.6148 94.0501,-1379.6148 94.0001,-1379.6148 93.9501,-1379.6148 93.95,-1374.6148 89.5001,-1379.6149 94,-1369.6148 94,-1369.6148"/>
</g>
<!-- L11 -->
<g id="node13" class="node">
<title>L11</title>
<path fill="#ffb5a7" stroke="#2f4f4f" d="M67.5,-1199.5C67.5,-1199.5 126.5,-1199.5 126.5,-1199.5 132.5,-1199.5 138.5,-1205.5 138.5,-1211.5 138.5,-1211.5 138.5,-1239.5 138.5,-1239.5 138.5,-1245.5 132.5,-1251.5 126.5,-1251.5 126.5,-1251.5 67.5,-1251.5 67.5,-1251.5 61.5,-1251.5 55.5,-1245.5 55.5,-1239.5 55.5,-1239.5 55.5,-1211.5 55.5,-1211.5 55.5,-1205.5 61.5,-1199.5 67.5,-1199.5"/>
<text text-anchor="middle" x="97" y="-1239.5" font-family="Helvetica,sans-Serif" font-size="10.00" fill="#000000">A2C2f</text>
<text text-anchor="middle" x="97" y="-1228.5" font-family="Helvetica,sans-Serif" font-size="10.00" fill="#000000">1536 → 512</text>
<text text-anchor="middle" x="97" y="-1217.5" font-family="Helvetica,sans-Serif" font-size="10.00" fill="#000000">n=2</text>
<text text-anchor="middle" x="97" y="-1206.5" font-family="Helvetica,sans-Serif" font-size="10.00" fill="#000000">[512, False, &#45;1]</text>
</g>
<!-- L10&#45;&gt;L11 -->
<g id="edge13" class="edge">
<title>L10&#45;&gt;L11</title>
<path fill="none" stroke="#000000" stroke-width="1.1" d="M97,-1317.312C97,-1317.312 97,-1261.6148 97,-1261.6148"/>
<polygon fill="#000000" stroke="#000000" stroke-width="1.1" points="97,-1251.6148 101.5001,-1261.6148 97.05,-1256.6148 97.0501,-1261.6148 97.0001,-1261.6148 96.9501,-1261.6148 96.95,-1256.6148 92.5001,-1261.6149 97,-1251.6148 97,-1251.6148"/>
</g>
<!-- L12 -->
<g id="node14" class="node">
<title>L12</title>
<path fill="#a0c4ff" stroke="#2f4f4f" d="M78,-1081.5C78,-1081.5 154,-1081.5 154,-1081.5 160,-1081.5 166,-1087.5 166,-1093.5 166,-1093.5 166,-1121.5 166,-1121.5 166,-1127.5 160,-1133.5 154,-1133.5 154,-1133.5 78,-1133.5 78,-1133.5 72,-1133.5 66,-1127.5 66,-1121.5 66,-1121.5 66,-1093.5 66,-1093.5 66,-1087.5 72,-1081.5 78,-1081.5"/>
<text text-anchor="middle" x="116" y="-1121.5" font-family="Helvetica,sans-Serif" font-size="10.00" fill="#000000">nn.Upsample</text>
<text text-anchor="middle" x="116" y="-1110.5" font-family="Helvetica,sans-Serif" font-size="10.00" fill="#000000">512 → 512</text>
<text text-anchor="middle" x="116" y="-1099.5" font-family="Helvetica,sans-Serif" font-size="10.00" fill="#000000">n=1</text>
<text text-anchor="middle" x="116" y="-1088.5" font-family="Helvetica,sans-Serif" font-size="10.00" fill="#000000">[None, 2, &#39;nearest&#39;]</text>
</g>
<!-- L11&#45;&gt;L12 -->
<g id="edge14" class="edge">
<title>L11&#45;&gt;L12</title>
<path fill="none" stroke="#000000" stroke-width="1.1" d="M102.25,-1199.312C102.25,-1199.312 102.25,-1143.6148 102.25,-1143.6148"/>
<polygon fill="#000000" stroke="#000000" stroke-width="1.1" points="102.25,-1133.6148 106.7501,-1143.6148 102.3,-1138.6148 102.3001,-1143.6148 102.2501,-1143.6148 102.2001,-1143.6148 102.2,-1138.6148 97.7501,-1143.6149 102.25,-1133.6148 102.25,-1133.6148"/>
</g>
<!-- L16 -->
<g id="node18" class="node">
<title>L16</title>
<path fill="#bdb2ff" stroke="#2f4f4f" d="M73,-609.5C73,-609.5 113,-609.5 113,-609.5 119,-609.5 125,-615.5 125,-621.5 125,-621.5 125,-649.5 125,-649.5 125,-655.5 119,-661.5 113,-661.5 113,-661.5 73,-661.5 73,-661.5 67,-661.5 61,-655.5 61,-649.5 61,-649.5 61,-621.5 61,-621.5 61,-615.5 67,-609.5 73,-609.5"/>
<text text-anchor="middle" x="93" y="-649.5" font-family="Helvetica,sans-Serif" font-size="10.00" fill="#000000">Concat</text>
<text text-anchor="middle" x="93" y="-638.5" font-family="Helvetica,sans-Serif" font-size="10.00" fill="#000000">768 → 768</text>
<text text-anchor="middle" x="93" y="-627.5" font-family="Helvetica,sans-Serif" font-size="10.00" fill="#000000">n=1</text>
<text text-anchor="middle" x="93" y="-616.5" font-family="Helvetica,sans-Serif" font-size="10.00" fill="#000000">[1]</text>
</g>
<!-- L11&#45;&gt;L16 -->
<g id="edge20" class="edge">
<title>L11&#45;&gt;L16</title>
<path fill="none" stroke="#000000" stroke-width="1.1" d="M55.3045,-1225C48.5675,-1225 43.75,-1225 43.75,-1225 43.75,-1225 43.75,-635 43.75,-635 43.75,-635 50.9753,-635 50.9753,-635"/>
<polygon fill="#000000" stroke="#000000" stroke-width="1.1" points="60.9753,-635 50.9753,-639.5001 55.9753,-635.05 50.9753,-635.0501 50.9753,-635.0001 50.9753,-634.9501 55.9753,-634.95 50.9752,-630.5001 60.9753,-635 60.9753,-635"/>
</g>
<!-- L12&#45;&gt;L13 -->
<g id="edge15" class="edge">
<title>L12&#45;&gt;L13</title>
<path fill="none" stroke="#000000" stroke-width="1.1" d="M120,-1081.312C120,-1081.312 120,-1025.6148 120,-1025.6148"/>
<polygon fill="#000000" stroke="#000000" stroke-width="1.1" points="120,-1015.6148 124.5001,-1025.6148 120.05,-1020.6148 120.0501,-1025.6148 120.0001,-1025.6148 119.9501,-1025.6148 119.95,-1020.6148 115.5001,-1025.6149 120,-1015.6148 120,-1015.6148"/>
</g>
<!-- L14 -->
<g id="node16" class="node">
<title>L14</title>
<path fill="#ffb5a7" stroke="#2f4f4f" d="M90.5,-845.5C90.5,-845.5 149.5,-845.5 149.5,-845.5 155.5,-845.5 161.5,-851.5 161.5,-857.5 161.5,-857.5 161.5,-885.5 161.5,-885.5 161.5,-891.5 155.5,-897.5 149.5,-897.5 149.5,-897.5 90.5,-897.5 90.5,-897.5 84.5,-897.5 78.5,-891.5 78.5,-885.5 78.5,-885.5 78.5,-857.5 78.5,-857.5 78.5,-851.5 84.5,-845.5 90.5,-845.5"/>
<text text-anchor="middle" x="120" y="-885.5" font-family="Helvetica,sans-Serif" font-size="10.00" fill="#000000">A2C2f</text>
<text text-anchor="middle" x="120" y="-874.5" font-family="Helvetica,sans-Serif" font-size="10.00" fill="#000000">1024 → 256</text>
<text text-anchor="middle" x="120" y="-863.5" font-family="Helvetica,sans-Serif" font-size="10.00" fill="#000000">n=2</text>
<text text-anchor="middle" x="120" y="-852.5" font-family="Helvetica,sans-Serif" font-size="10.00" fill="#000000">[256, False, &#45;1]</text>
</g>
<!-- L13&#45;&gt;L14 -->
<g id="edge17" class="edge">
<title>L13&#45;&gt;L14</title>
<path fill="none" stroke="#000000" stroke-width="1.1" d="M120,-963.312C120,-963.312 120,-907.6148 120,-907.6148"/>
<polygon fill="#000000" stroke="#000000" stroke-width="1.1" points="120,-897.6148 124.5001,-907.6148 120.05,-902.6148 120.0501,-907.6148 120.0001,-907.6148 119.9501,-907.6148 119.95,-902.6148 115.5001,-907.6149 120,-897.6148 120,-897.6148"/>
</g>
<!-- L15 -->
<g id="node17" class="node">
<title>L15</title>
<path fill="#c2e7d9" stroke="#2f4f4f" d="M91,-727.5C91,-727.5 131,-727.5 131,-727.5 137,-727.5 143,-733.5 143,-739.5 143,-739.5 143,-767.5 143,-767.5 143,-773.5 137,-779.5 131,-779.5 131,-779.5 91,-779.5 91,-779.5 85,-779.5 79,-773.5 79,-767.5 79,-767.5 79,-739.5 79,-739.5 79,-733.5 85,-727.5 91,-727.5"/>
<text text-anchor="middle" x="111" y="-767.5" font-family="Helvetica,sans-Serif" font-size="10.00" fill="#000000">Conv</text>
<text text-anchor="middle" x="111" y="-756.5" font-family="Helvetica,sans-Serif" font-size="10.00" fill="#000000">256 → 256</text>
<text text-anchor="middle" x="111" y="-745.5" font-family="Helvetica,sans-Serif" font-size="10.00" fill="#000000">n=1</text>
<text text-anchor="middle" x="111" y="-734.5" font-family="Helvetica,sans-Serif" font-size="10.00" fill="#000000">[256, 3, 2]</text>
</g>
<!-- L14&#45;&gt;L15 -->
<g id="edge18" class="edge">
<title>L14&#45;&gt;L15</title>
<path fill="none" stroke="#000000" stroke-width="1.1" d="M111,-845.312C111,-845.312 111,-789.6148 111,-789.6148"/>
<polygon fill="#000000" stroke="#000000" stroke-width="1.1" points="111,-779.6148 115.5001,-789.6148 111.05,-784.6148 111.0501,-789.6148 111.0001,-789.6148 110.9501,-789.6148 110.95,-784.6148 106.5001,-789.6149 111,-779.6148 111,-779.6148"/>
</g>
<!-- L21 -->
<g id="node23" class="node">
<title>L21</title>
<path fill="#b5e48c" stroke="#2f4f4f" d="M79,-28.5C79,-28.5 235,-28.5 235,-28.5 241,-28.5 247,-34.5 247,-40.5 247,-40.5 247,-57.5 247,-57.5 247,-63.5 241,-69.5 235,-69.5 235,-69.5 79,-69.5 79,-69.5 73,-69.5 67,-63.5 67,-57.5 67,-57.5 67,-40.5 67,-40.5 67,-34.5 73,-28.5 79,-28.5"/>
<text text-anchor="middle" x="157" y="-57.5" font-family="Helvetica,sans-Serif" font-size="10.00" fill="#000000">Detect</text>
<text text-anchor="middle" x="157" y="-46.5" font-family="Helvetica,sans-Serif" font-size="10.00" fill="#000000">n=1</text>
<text text-anchor="middle" x="157" y="-35.5" font-family="Helvetica,sans-Serif" font-size="10.00" fill="#000000">[&#39;nc&#39;]</text>
</g>
<!-- L14&#45;&gt;L21 -->
<g id="edge26" class="edge">
<title>L14&#45;&gt;L21</title>
<path fill="none" stroke="#000000" stroke-width="1.1" d="M152.25,-845.0655C152.25,-845.0655 152.25,-79.8634 152.25,-79.8634"/>
<polygon fill="#000000" stroke="#000000" stroke-width="1.1" points="152.25,-69.8634 156.7501,-79.8633 152.3,-74.8634 152.3001,-79.8634 152.2501,-79.8634 152.2001,-79.8634 152.2,-74.8634 147.7501,-79.8634 152.25,-69.8634 152.25,-69.8634"/>
</g>
<!-- L15&#45;&gt;L16 -->
<g id="edge19" class="edge">
<title>L15&#45;&gt;L16</title>
<path fill="none" stroke="#000000" stroke-width="1.1" d="M102,-727.312C102,-727.312 102,-671.6148 102,-671.6148"/>
<polygon fill="#000000" stroke="#000000" stroke-width="1.1" points="102,-661.6148 106.5001,-671.6148 102.05,-666.6148 102.0501,-671.6148 102.0001,-671.6148 101.9501,-671.6148 101.95,-666.6148 97.5001,-671.6149 102,-661.6148 102,-661.6148"/>
</g>
<!-- L17 -->
<g id="node19" class="node">
<title>L17</title>
<path fill="#ffb5a7" stroke="#2f4f4f" d="M63.5,-491.5C63.5,-491.5 122.5,-491.5 122.5,-491.5 128.5,-491.5 134.5,-497.5 134.5,-503.5 134.5,-503.5 134.5,-531.5 134.5,-531.5 134.5,-537.5 128.5,-543.5 122.5,-543.5 122.5,-543.5 63.5,-543.5 63.5,-543.5 57.5,-543.5 51.5,-537.5 51.5,-531.5 51.5,-531.5 51.5,-503.5 51.5,-503.5 51.5,-497.5 57.5,-491.5 63.5,-491.5"/>
<text text-anchor="middle" x="93" y="-531.5" font-family="Helvetica,sans-Serif" font-size="10.00" fill="#000000">A2C2f</text>
<text text-anchor="middle" x="93" y="-520.5" font-family="Helvetica,sans-Serif" font-size="10.00" fill="#000000">768 → 512</text>
<text text-anchor="middle" x="93" y="-509.5" font-family="Helvetica,sans-Serif" font-size="10.00" fill="#000000">n=2</text>
<text text-anchor="middle" x="93" y="-498.5" font-family="Helvetica,sans-Serif" font-size="10.00" fill="#000000">[512, False, &#45;1]</text>
</g>
<!-- L16&#45;&gt;L17 -->
<g id="edge21" class="edge">
<title>L16&#45;&gt;L17</title>
<path fill="none" stroke="#000000" stroke-width="1.1" d="M93,-609.312C93,-609.312 93,-553.6148 93,-553.6148"/>
<polygon fill="#000000" stroke="#000000" stroke-width="1.1" points="93,-543.6148 97.5001,-553.6148 93.05,-548.6148 93.0501,-553.6148 93.0001,-553.6148 92.9501,-553.6148 92.95,-548.6148 88.5001,-553.6149 93,-543.6148 93,-543.6148"/>
</g>
<!-- L18 -->
<g id="node20" class="node">
<title>L18</title>
<path fill="#c2e7d9" stroke="#2f4f4f" d="M48,-373.5C48,-373.5 88,-373.5 88,-373.5 94,-373.5 100,-379.5 100,-385.5 100,-385.5 100,-413.5 100,-413.5 100,-419.5 94,-425.5 88,-425.5 88,-425.5 48,-425.5 48,-425.5 42,-425.5 36,-419.5 36,-413.5 36,-413.5 36,-385.5 36,-385.5 36,-379.5 42,-373.5 48,-373.5"/>
<text text-anchor="middle" x="68" y="-413.5" font-family="Helvetica,sans-Serif" font-size="10.00" fill="#000000">Conv</text>
<text text-anchor="middle" x="68" y="-402.5" font-family="Helvetica,sans-Serif" font-size="10.00" fill="#000000">512 → 512</text>
<text text-anchor="middle" x="68" y="-391.5" font-family="Helvetica,sans-Serif" font-size="10.00" fill="#000000">n=1</text>
<text text-anchor="middle" x="68" y="-380.5" font-family="Helvetica,sans-Serif" font-size="10.00" fill="#000000">[512, 3, 2]</text>
</g>
<!-- L17&#45;&gt;L18 -->
<g id="edge22" class="edge">
<title>L17&#45;&gt;L18</title>
<path fill="none" stroke="#000000" stroke-width="1.1" d="M75.75,-491.312C75.75,-491.312 75.75,-435.6148 75.75,-435.6148"/>
<polygon fill="#000000" stroke="#000000" stroke-width="1.1" points="75.75,-425.6148 80.2501,-435.6148 75.8,-430.6148 75.8001,-435.6148 75.7501,-435.6148 75.7001,-435.6148 75.7,-430.6148 71.2501,-435.6149 75.75,-425.6148 75.75,-425.6148"/>
</g>
<!-- L17&#45;&gt;L21 -->
<g id="edge27" class="edge">
<title>L17&#45;&gt;L21</title>
<path fill="none" stroke="#000000" stroke-width="1.1" d="M118.25,-491.3075C118.25,-491.3075 118.25,-79.5299 118.25,-79.5299"/>
<polygon fill="#000000" stroke="#000000" stroke-width="1.1" points="118.25,-69.5299 122.7501,-79.5299 118.3,-74.5299 118.3001,-79.5299 118.2501,-79.5299 118.2001,-79.5299 118.2,-74.5299 113.7501,-79.53 118.25,-69.5299 118.25,-69.5299"/>
</g>
<!-- L18&#45;&gt;L19 -->
<g id="edge23" class="edge">
<title>L18&#45;&gt;L19</title>
<path fill="none" stroke="#000000" stroke-width="1.1" d="M68,-373.312C68,-373.312 68,-317.6148 68,-317.6148"/>
<polygon fill="#000000" stroke="#000000" stroke-width="1.1" points="68,-307.6148 72.5001,-317.6148 68.05,-312.6148 68.0501,-317.6148 68.0001,-317.6148 67.9501,-317.6148 67.95,-312.6148 63.5001,-317.6149 68,-307.6148 68,-307.6148"/>
</g>
<!-- L20 -->
<g id="node22" class="node">
<title>L20</title>
<path fill="#ffd6a5" stroke="#2f4f4f" d="M40,-137.5C40,-137.5 90,-137.5 90,-137.5 96,-137.5 102,-143.5 102,-149.5 102,-149.5 102,-177.5 102,-177.5 102,-183.5 96,-189.5 90,-189.5 90,-189.5 40,-189.5 40,-189.5 34,-189.5 28,-183.5 28,-177.5 28,-177.5 28,-149.5 28,-149.5 28,-143.5 34,-137.5 40,-137.5"/>
<text text-anchor="middle" x="65" y="-177.5" font-family="Helvetica,sans-Serif" font-size="10.00" fill="#000000">C3k2</text>
<text text-anchor="middle" x="65" y="-166.5" font-family="Helvetica,sans-Serif" font-size="10.00" fill="#000000">1536 → 1024</text>
<text text-anchor="middle" x="65" y="-155.5" font-family="Helvetica,sans-Serif" font-size="10.00" fill="#000000">n=2</text>
<text text-anchor="middle" x="65" y="-144.5" font-family="Helvetica,sans-Serif" font-size="10.00" fill="#000000">[1024, True]</text>
</g>
<!-- L19&#45;&gt;L20 -->
<g id="edge25" class="edge">
<title>L19&#45;&gt;L20</title>
<path fill="none" stroke="#000000" stroke-width="1.1" d="M65,-255.312C65,-255.312 65,-199.6148 65,-199.6148"/>
<polygon fill="#000000" stroke="#000000" stroke-width="1.1" points="65,-189.6148 69.5001,-199.6148 65.05,-194.6148 65.0501,-199.6148 65.0001,-199.6148 64.9501,-199.6148 64.95,-194.6148 60.5001,-199.6149 65,-189.6148 65,-189.6148"/>
</g>
<!-- L20&#45;&gt;L21 -->
<g id="edge28" class="edge">
<title>L20&#45;&gt;L21</title>
<path fill="none" stroke="#000000" stroke-width="1.1" d="M84.5,-137.2314C84.5,-137.2314 84.5,-79.8067 84.5,-79.8067"/>
<polygon fill="#000000" stroke="#000000" stroke-width="1.1" points="84.5,-69.8067 89.0001,-79.8066 84.55,-74.8067 84.5501,-79.8067 84.5001,-79.8067 84.4501,-79.8067 84.45,-74.8067 80.0001,-79.8067 84.5,-69.8067 84.5,-69.8067"/>
</g>
</g>
</svg>
