<?xml version="1.0" encoding="UTF-8" standalone="no"?>
<!DOCTYPE svg PUBLIC "-//W3C//DTD SVG 1.1//EN"
 "http://www.w3.org/Graphics/SVG/1.1/DTD/svg11.dtd">
<!-- Generated by graphviz version 2.40.1 (0)
 -->
<!-- Title: %3 Pages: 1 -->
<svg width="305pt" height="2797pt"
 viewBox="0.00 0.00 305.00 2796.74" xmlns="http://www.w3.org/2000/svg" xmlns:xlink="http://www.w3.org/1999/xlink">
<g id="graph0" class="graph" transform="scale(1 1) rotate(0) translate(4 2792.7401)">
<title>%3</title>
<polygon fill="#ffffff" stroke="transparent" points="-4,4 -4,-2792.7401 301,-2792.7401 301,4 -4,4"/>
<g id="clust1" class="cluster">
<title>cluster_backbone</title>
<path fill="#ffffff" stroke="#c6e2ff" d="M24,-1535C24,-1535 136,-1535 136,-1535 142,-1535 148,-1541 148,-1547 148,-1547 148,-2697 148,-2697 148,-2703 142,-2709 136,-2709 136,-2709 24,-2709 24,-2709 18,-2709 12,-2703 12,-2697 12,-2697 12,-1547 12,-1547 12,-1541 18,-1535 24,-1535"/>
<text text-anchor="middle" x="80" y="-2697" font-family="Helvetica,sans-Serif" font-size="10.00" fill="#000000">Backbone</text>
</g>
<g id="clust2" class="cluster">
<title>cluster_neck</title>
<path fill="#ffffff" stroke="#fff0b3" d="M20,-117C20,-117 174,-117 174,-117 180,-117 186,-123 186,-129 186,-129 186,-1515 186,-1515 186,-1521 180,-1527 174,-1527 174,-1527 20,-1527 20,-1527 14,-1527 8,-1521 8,-1515 8,-1515 8,-129 8,-129 8,-123 14,-117 20,-117"/>
<text text-anchor="middle" x="97" y="-1515" font-family="Helvetica,sans-Serif" font-size="10.00" fill="#000000">Neck</text>
</g>
<g id="clust3" class="cluster">
<title>cluster_head</title>
<path fill="#ffffff" stroke="#ffe6e6" d="M81,-8C81,-8 277,-8 277,-8 283,-8 289,-14 289,-20 289,-20 289,-97 289,-97 289,-103 283,-109 277,-109 277,-109 81,-109 81,-109 75,-109 69,-103 69,-97 69,-97 69,-20 69,-20 69,-14 75,-8 81,-8"/>
<text text-anchor="middle" x="179" y="-97" font-family="Helvetica,sans-Serif" font-size="10.00" fill="#000000">Head</text>
</g>
<!-- Input -->
<g id="node1" class="node">
<title>Input</title>
<ellipse fill="#ffddaa" stroke="#000000" cx="80" cy="-2761.8701" rx="31.6406" ry="26.7407"/>
<text text-anchor="middle" x="80" y="-2765.6701" font-family="Times,serif" font-size="14.00" fill="#000000">Input</text>
<text text-anchor="middle" x="80" y="-2750.6701" font-family="Times,serif" font-size="14.00" fill="#000000">C=3</text>
</g>
<!-- L0 -->
<g id="node2" class="node">
<title>L0</title>
<path fill="#c2e7d9" stroke="#2f4f4f" d="M64,-2617.5C64,-2617.5 96,-2617.5 96,-2617.5 102,-2617.5 108,-2623.5 108,-2629.5 108,-2629.5 108,-2657.5 108,-2657.5 108,-2663.5 102,-2669.5 96,-2669.5 96,-2669.5 64,-2669.5 64,-2669.5 58,-2669.5 52,-2663.5 52,-2657.5 52,-2657.5 52,-2629.5 52,-2629.5 52,-2623.5 58,-2617.5 64,-2617.5"/>
<text text-anchor="middle" x="80" y="-2657.5" font-family="Helvetica,sans-Serif" font-size="10.00" fill="#000000">Conv</text>
<text text-anchor="middle" x="80" y="-2646.5" font-family="Helvetica,sans-Serif" font-size="10.00" fill="#000000">3 → 32</text>
<text text-anchor="middle" x="80" y="-2635.5" font-family="Helvetica,sans-Serif" font-size="10.00" fill="#000000">n=1</text>
<text text-anchor="middle" x="80" y="-2624.5" font-family="Helvetica,sans-Serif" font-size="10.00" fill="#000000">[32, 3, 2]</text>
</g>
<!-- Input&#45;&gt;L0 -->
<g id="edge1" class="edge">
<title>Input&#45;&gt;L0</title>
<path fill="none" stroke="#000000" stroke-width="1.1" d="M80,-2734.7136C80,-2734.7136 80,-2679.7162 80,-2679.7162"/>
<polygon fill="#000000" stroke="#000000" stroke-width="1.1" points="80,-2669.7162 84.5001,-2679.7162 80.05,-2674.7162 80.0501,-2679.7162 80.0001,-2679.7162 79.9501,-2679.7162 79.95,-2674.7162 75.5001,-2679.7163 80,-2669.7162 80,-2669.7162"/>
</g>
<!-- L1 -->
<g id="node3" class="node">
<title>L1</title>
<path fill="#c2e7d9" stroke="#2f4f4f" d="M64,-2499.5C64,-2499.5 96,-2499.5 96,-2499.5 102,-2499.5 108,-2505.5 108,-2511.5 108,-2511.5 108,-2539.5 108,-2539.5 108,-2545.5 102,-2551.5 96,-2551.5 96,-2551.5 64,-2551.5 64,-2551.5 58,-2551.5 52,-2545.5 52,-2539.5 52,-2539.5 52,-2511.5 52,-2511.5 52,-2505.5 58,-2499.5 64,-2499.5"/>
<text text-anchor="middle" x="80" y="-2539.5" font-family="Helvetica,sans-Serif" font-size="10.00" fill="#000000">Conv</text>
<text text-anchor="middle" x="80" y="-2528.5" font-family="Helvetica,sans-Serif" font-size="10.00" fill="#000000">32 → 64</text>
<text text-anchor="middle" x="80" y="-2517.5" font-family="Helvetica,sans-Serif" font-size="10.00" fill="#000000">n=1</text>
<text text-anchor="middle" x="80" y="-2506.5" font-family="Helvetica,sans-Serif" font-size="10.00" fill="#000000">[64, 3, 2]</text>
</g>
<!-- L0&#45;&gt;L1 -->
<g id="edge2" class="edge">
<title>L0&#45;&gt;L1</title>
<path fill="none" stroke="#000000" stroke-width="1.1" d="M80,-2617.312C80,-2617.312 80,-2561.6148 80,-2561.6148"/>
<polygon fill="#000000" stroke="#000000" stroke-width="1.1" points="80,-2551.6148 84.5001,-2561.6148 80.05,-2556.6148 80.0501,-2561.6148 80.0001,-2561.6148 79.9501,-2561.6148 79.95,-2556.6148 75.5001,-2561.6149 80,-2551.6148 80,-2551.6148"/>
</g>
<!-- L2 -->
<g id="node4" class="node">
<title>L2</title>
<path fill="#ffd6a5" stroke="#2f4f4f" d="M59,-2381.5C59,-2381.5 101,-2381.5 101,-2381.5 107,-2381.5 113,-2387.5 113,-2393.5 113,-2393.5 113,-2421.5 113,-2421.5 113,-2427.5 107,-2433.5 101,-2433.5 101,-2433.5 59,-2433.5 59,-2433.5 53,-2433.5 47,-2427.5 47,-2421.5 47,-2421.5 47,-2393.5 47,-2393.5 47,-2387.5 53,-2381.5 59,-2381.5"/>
<text text-anchor="middle" x="80" y="-2421.5" font-family="Helvetica,sans-Serif" font-size="10.00" fill="#000000">ELAN1</text>
<text text-anchor="middle" x="80" y="-2410.5" font-family="Helvetica,sans-Serif" font-size="10.00" fill="#000000">64 → 64</text>
<text text-anchor="middle" x="80" y="-2399.5" font-family="Helvetica,sans-Serif" font-size="10.00" fill="#000000">n=1</text>
<text text-anchor="middle" x="80" y="-2388.5" font-family="Helvetica,sans-Serif" font-size="10.00" fill="#000000">[64, 64, 32]</text>
</g>
<!-- L1&#45;&gt;L2 -->
<g id="edge3" class="edge">
<title>L1&#45;&gt;L2</title>
<path fill="none" stroke="#000000" stroke-width="1.1" d="M80,-2499.312C80,-2499.312 80,-2443.6148 80,-2443.6148"/>
<polygon fill="#000000" stroke="#000000" stroke-width="1.1" points="80,-2433.6148 84.5001,-2443.6148 80.05,-2438.6148 80.0501,-2443.6148 80.0001,-2443.6148 79.9501,-2443.6148 79.95,-2438.6148 75.5001,-2443.6149 80,-2433.6148 80,-2433.6148"/>
</g>
<!-- L3 -->
<g id="node5" class="node">
<title>L3</title>
<path fill="#ffb5a7" stroke="#2f4f4f" d="M62.5,-2263.5C62.5,-2263.5 97.5,-2263.5 97.5,-2263.5 103.5,-2263.5 109.5,-2269.5 109.5,-2275.5 109.5,-2275.5 109.5,-2303.5 109.5,-2303.5 109.5,-2309.5 103.5,-2315.5 97.5,-2315.5 97.5,-2315.5 62.5,-2315.5 62.5,-2315.5 56.5,-2315.5 50.5,-2309.5 50.5,-2303.5 50.5,-2303.5 50.5,-2275.5 50.5,-2275.5 50.5,-2269.5 56.5,-2263.5 62.5,-2263.5"/>
<text text-anchor="middle" x="80" y="-2303.5" font-family="Helvetica,sans-Serif" font-size="10.00" fill="#000000">AConv</text>
<text text-anchor="middle" x="80" y="-2292.5" font-family="Helvetica,sans-Serif" font-size="10.00" fill="#000000">64 → 128</text>
<text text-anchor="middle" x="80" y="-2281.5" font-family="Helvetica,sans-Serif" font-size="10.00" fill="#000000">n=1</text>
<text text-anchor="middle" x="80" y="-2270.5" font-family="Helvetica,sans-Serif" font-size="10.00" fill="#000000">[128]</text>
</g>
<!-- L2&#45;&gt;L3 -->
<g id="edge4" class="edge">
<title>L2&#45;&gt;L3</title>
<path fill="none" stroke="#000000" stroke-width="1.1" d="M80,-2381.312C80,-2381.312 80,-2325.6148 80,-2325.6148"/>
<polygon fill="#000000" stroke="#000000" stroke-width="1.1" points="80,-2315.6148 84.5001,-2325.6148 80.05,-2320.6148 80.0501,-2325.6148 80.0001,-2325.6148 79.9501,-2325.6148 79.95,-2320.6148 75.5001,-2325.6149 80,-2315.6148 80,-2315.6148"/>
</g>
<!-- L4 -->
<g id="node6" class="node">
<title>L4</title>
<path fill="#a0c4ff" stroke="#2f4f4f" d="M44.5,-2145.5C44.5,-2145.5 115.5,-2145.5 115.5,-2145.5 121.5,-2145.5 127.5,-2151.5 127.5,-2157.5 127.5,-2157.5 127.5,-2185.5 127.5,-2185.5 127.5,-2191.5 121.5,-2197.5 115.5,-2197.5 115.5,-2197.5 44.5,-2197.5 44.5,-2197.5 38.5,-2197.5 32.5,-2191.5 32.5,-2185.5 32.5,-2185.5 32.5,-2157.5 32.5,-2157.5 32.5,-2151.5 38.5,-2145.5 44.5,-2145.5"/>
<text text-anchor="middle" x="80" y="-2185.5" font-family="Helvetica,sans-Serif" font-size="10.00" fill="#000000">RepNCSPELAN4</text>
<text text-anchor="middle" x="80" y="-2174.5" font-family="Helvetica,sans-Serif" font-size="10.00" fill="#000000">128 → 128</text>
<text text-anchor="middle" x="80" y="-2163.5" font-family="Helvetica,sans-Serif" font-size="10.00" fill="#000000">n=1</text>
<text text-anchor="middle" x="80" y="-2152.5" font-family="Helvetica,sans-Serif" font-size="10.00" fill="#000000">[128, 128, 64, 3]</text>
</g>
<!-- L3&#45;&gt;L4 -->
<g id="edge5" class="edge">
<title>L3&#45;&gt;L4</title>
<path fill="none" stroke="#000000" stroke-width="1.1" d="M80,-2263.312C80,-2263.312 80,-2207.6148 80,-2207.6148"/>
<polygon fill="#000000" stroke="#000000" stroke-width="1.1" points="80,-2197.6148 84.5001,-2207.6148 80.05,-2202.6148 80.0501,-2207.6148 80.0001,-2207.6148 79.9501,-2207.6148 79.95,-2202.6148 75.5001,-2207.6149 80,-2197.6148 80,-2197.6148"/>
</g>
<!-- L5 -->
<g id="node7" class="node">
<title>L5</title>
<path fill="#ffb5a7" stroke="#2f4f4f" d="M60,-2027.5C60,-2027.5 100,-2027.5 100,-2027.5 106,-2027.5 112,-2033.5 112,-2039.5 112,-2039.5 112,-2067.5 112,-2067.5 112,-2073.5 106,-2079.5 100,-2079.5 100,-2079.5 60,-2079.5 60,-2079.5 54,-2079.5 48,-2073.5 48,-2067.5 48,-2067.5 48,-2039.5 48,-2039.5 48,-2033.5 54,-2027.5 60,-2027.5"/>
<text text-anchor="middle" x="80" y="-2067.5" font-family="Helvetica,sans-Serif" font-size="10.00" fill="#000000">AConv</text>
<text text-anchor="middle" x="80" y="-2056.5" font-family="Helvetica,sans-Serif" font-size="10.00" fill="#000000">128 → 192</text>
<text text-anchor="middle" x="80" y="-2045.5" font-family="Helvetica,sans-Serif" font-size="10.00" fill="#000000">n=1</text>
<text text-anchor="middle" x="80" y="-2034.5" font-family="Helvetica,sans-Serif" font-size="10.00" fill="#000000">[192]</text>
</g>
<!-- L4&#45;&gt;L5 -->
<g id="edge6" class="edge">
<title>L4&#45;&gt;L5</title>
<path fill="none" stroke="#000000" stroke-width="1.1" d="M80,-2145.312C80,-2145.312 80,-2089.6148 80,-2089.6148"/>
<polygon fill="#000000" stroke="#000000" stroke-width="1.1" points="80,-2079.6148 84.5001,-2089.6148 80.05,-2084.6148 80.0501,-2089.6148 80.0001,-2089.6148 79.9501,-2089.6148 79.95,-2084.6148 75.5001,-2089.6149 80,-2079.6148 80,-2079.6148"/>
</g>
<!-- L14 -->
<g id="node16" class="node">
<title>L14</title>
<path fill="#fec5bb" stroke="#2f4f4f" d="M97,-963.5C97,-963.5 137,-963.5 137,-963.5 143,-963.5 149,-969.5 149,-975.5 149,-975.5 149,-1003.5 149,-1003.5 149,-1009.5 143,-1015.5 137,-1015.5 137,-1015.5 97,-1015.5 97,-1015.5 91,-1015.5 85,-1009.5 85,-1003.5 85,-1003.5 85,-975.5 85,-975.5 85,-969.5 91,-963.5 97,-963.5"/>
<text text-anchor="middle" x="117" y="-1003.5" font-family="Helvetica,sans-Serif" font-size="10.00" fill="#000000">Concat</text>
<text text-anchor="middle" x="117" y="-992.5" font-family="Helvetica,sans-Serif" font-size="10.00" fill="#000000">320 → 320</text>
<text text-anchor="middle" x="117" y="-981.5" font-family="Helvetica,sans-Serif" font-size="10.00" fill="#000000">n=1</text>
<text text-anchor="middle" x="117" y="-970.5" font-family="Helvetica,sans-Serif" font-size="10.00" fill="#000000">[1]</text>
</g>
<!-- L4&#45;&gt;L14 -->
<g id="edge17" class="edge">
<title>L4&#45;&gt;L14</title>
<path fill="none" stroke="#000000" stroke-width="1.1" d="M32.4816,-2171C23.0557,-2171 16,-2171 16,-2171 16,-2171 16,-989 16,-989 16,-989 74.7653,-989 74.7653,-989"/>
<polygon fill="#000000" stroke="#000000" stroke-width="1.1" points="84.7653,-989 74.7653,-993.5001 79.7653,-989.05 74.7653,-989.0501 74.7653,-989.0001 74.7653,-988.9501 79.7653,-988.95 74.7652,-984.5001 84.7653,-989 84.7653,-989"/>
</g>
<!-- L6 -->
<g id="node8" class="node">
<title>L6</title>
<path fill="#a0c4ff" stroke="#2f4f4f" d="M44.5,-1909.5C44.5,-1909.5 115.5,-1909.5 115.5,-1909.5 121.5,-1909.5 127.5,-1915.5 127.5,-1921.5 127.5,-1921.5 127.5,-1949.5 127.5,-1949.5 127.5,-1955.5 121.5,-1961.5 115.5,-1961.5 115.5,-1961.5 44.5,-1961.5 44.5,-1961.5 38.5,-1961.5 32.5,-1955.5 32.5,-1949.5 32.5,-1949.5 32.5,-1921.5 32.5,-1921.5 32.5,-1915.5 38.5,-1909.5 44.5,-1909.5"/>
<text text-anchor="middle" x="80" y="-1949.5" font-family="Helvetica,sans-Serif" font-size="10.00" fill="#000000">RepNCSPELAN4</text>
<text text-anchor="middle" x="80" y="-1938.5" font-family="Helvetica,sans-Serif" font-size="10.00" fill="#000000">192 → 192</text>
<text text-anchor="middle" x="80" y="-1927.5" font-family="Helvetica,sans-Serif" font-size="10.00" fill="#000000">n=1</text>
<text text-anchor="middle" x="80" y="-1916.5" font-family="Helvetica,sans-Serif" font-size="10.00" fill="#000000">[192, 192, 96, 3]</text>
</g>
<!-- L5&#45;&gt;L6 -->
<g id="edge7" class="edge">
<title>L5&#45;&gt;L6</title>
<path fill="none" stroke="#000000" stroke-width="1.1" d="M80,-2027.312C80,-2027.312 80,-1971.6148 80,-1971.6148"/>
<polygon fill="#000000" stroke="#000000" stroke-width="1.1" points="80,-1961.6148 84.5001,-1971.6148 80.05,-1966.6148 80.0501,-1971.6148 80.0001,-1971.6148 79.9501,-1971.6148 79.95,-1966.6148 75.5001,-1971.6149 80,-1961.6148 80,-1961.6148"/>
</g>
<!-- L7 -->
<g id="node9" class="node">
<title>L7</title>
<path fill="#ffb5a7" stroke="#2f4f4f" d="M60,-1791.5C60,-1791.5 100,-1791.5 100,-1791.5 106,-1791.5 112,-1797.5 112,-1803.5 112,-1803.5 112,-1831.5 112,-1831.5 112,-1837.5 106,-1843.5 100,-1843.5 100,-1843.5 60,-1843.5 60,-1843.5 54,-1843.5 48,-1837.5 48,-1831.5 48,-1831.5 48,-1803.5 48,-1803.5 48,-1797.5 54,-1791.5 60,-1791.5"/>
<text text-anchor="middle" x="80" y="-1831.5" font-family="Helvetica,sans-Serif" font-size="10.00" fill="#000000">AConv</text>
<text text-anchor="middle" x="80" y="-1820.5" font-family="Helvetica,sans-Serif" font-size="10.00" fill="#000000">192 → 256</text>
<text text-anchor="middle" x="80" y="-1809.5" font-family="Helvetica,sans-Serif" font-size="10.00" fill="#000000">n=1</text>
<text text-anchor="middle" x="80" y="-1798.5" font-family="Helvetica,sans-Serif" font-size="10.00" fill="#000000">[256]</text>
</g>
<!-- L6&#45;&gt;L7 -->
<g id="edge8" class="edge">
<title>L6&#45;&gt;L7</title>
<path fill="none" stroke="#000000" stroke-width="1.1" d="M80,-1909.312C80,-1909.312 80,-1853.6148 80,-1853.6148"/>
<polygon fill="#000000" stroke="#000000" stroke-width="1.1" points="80,-1843.6148 84.5001,-1853.6148 80.05,-1848.6148 80.0501,-1853.6148 80.0001,-1853.6148 79.9501,-1853.6148 79.95,-1848.6148 75.5001,-1853.6149 80,-1843.6148 80,-1843.6148"/>
</g>
<!-- L11 -->
<g id="node13" class="node">
<title>L11</title>
<path fill="#fec5bb" stroke="#2f4f4f" d="M77,-1317.5C77,-1317.5 117,-1317.5 117,-1317.5 123,-1317.5 129,-1323.5 129,-1329.5 129,-1329.5 129,-1357.5 129,-1357.5 129,-1363.5 123,-1369.5 117,-1369.5 117,-1369.5 77,-1369.5 77,-1369.5 71,-1369.5 65,-1363.5 65,-1357.5 65,-1357.5 65,-1329.5 65,-1329.5 65,-1323.5 71,-1317.5 77,-1317.5"/>
<text text-anchor="middle" x="97" y="-1357.5" font-family="Helvetica,sans-Serif" font-size="10.00" fill="#000000">Concat</text>
<text text-anchor="middle" x="97" y="-1346.5" font-family="Helvetica,sans-Serif" font-size="10.00" fill="#000000">448 → 448</text>
<text text-anchor="middle" x="97" y="-1335.5" font-family="Helvetica,sans-Serif" font-size="10.00" fill="#000000">n=1</text>
<text text-anchor="middle" x="97" y="-1324.5" font-family="Helvetica,sans-Serif" font-size="10.00" fill="#000000">[1]</text>
</g>
<!-- L6&#45;&gt;L11 -->
<g id="edge13" class="edge">
<title>L6&#45;&gt;L11</title>
<path fill="none" stroke="#000000" stroke-width="1.1" d="M127.6321,-1935C133.0914,-1935 136.75,-1935 136.75,-1935 136.75,-1935 136.75,-1343 136.75,-1343 136.75,-1343 135.9836,-1343 135.9836,-1343"/>
<polygon fill="#000000" stroke="#000000" stroke-width="1.1" points="129.0858,-1343 139.0859,-1338.5001 134.0858,-1342.9501 139.0858,-1342.9501 139.0858,-1343.0001 139.0858,-1343.0501 134.0858,-1343.0501 139.0857,-1347.5001 129.0858,-1343 129.0858,-1343"/>
</g>
<!-- L8 -->
<g id="node10" class="node">
<title>L8</title>
<path fill="#a0c4ff" stroke="#2f4f4f" d="M44.5,-1673.5C44.5,-1673.5 115.5,-1673.5 115.5,-1673.5 121.5,-1673.5 127.5,-1679.5 127.5,-1685.5 127.5,-1685.5 127.5,-1713.5 127.5,-1713.5 127.5,-1719.5 121.5,-1725.5 115.5,-1725.5 115.5,-1725.5 44.5,-1725.5 44.5,-1725.5 38.5,-1725.5 32.5,-1719.5 32.5,-1713.5 32.5,-1713.5 32.5,-1685.5 32.5,-1685.5 32.5,-1679.5 38.5,-1673.5 44.5,-1673.5"/>
<text text-anchor="middle" x="80" y="-1713.5" font-family="Helvetica,sans-Serif" font-size="10.00" fill="#000000">RepNCSPELAN4</text>
<text text-anchor="middle" x="80" y="-1702.5" font-family="Helvetica,sans-Serif" font-size="10.00" fill="#000000">256 → 256</text>
<text text-anchor="middle" x="80" y="-1691.5" font-family="Helvetica,sans-Serif" font-size="10.00" fill="#000000">n=1</text>
<text text-anchor="middle" x="80" y="-1680.5" font-family="Helvetica,sans-Serif" font-size="10.00" fill="#000000">[256, 256, 128, 3]</text>
</g>
<!-- L7&#45;&gt;L8 -->
<g id="edge9" class="edge">
<title>L7&#45;&gt;L8</title>
<path fill="none" stroke="#000000" stroke-width="1.1" d="M80,-1791.312C80,-1791.312 80,-1735.6148 80,-1735.6148"/>
<polygon fill="#000000" stroke="#000000" stroke-width="1.1" points="80,-1725.6148 84.5001,-1735.6148 80.05,-1730.6148 80.0501,-1735.6148 80.0001,-1735.6148 79.9501,-1735.6148 79.95,-1730.6148 75.5001,-1735.6149 80,-1725.6148 80,-1725.6148"/>
</g>
<!-- L9 -->
<g id="node11" class="node">
<title>L9</title>
<path fill="#bdb2ff" stroke="#2f4f4f" d="M58,-1555.5C58,-1555.5 98,-1555.5 98,-1555.5 104,-1555.5 110,-1561.5 110,-1567.5 110,-1567.5 110,-1595.5 110,-1595.5 110,-1601.5 104,-1607.5 98,-1607.5 98,-1607.5 58,-1607.5 58,-1607.5 52,-1607.5 46,-1601.5 46,-1595.5 46,-1595.5 46,-1567.5 46,-1567.5 46,-1561.5 52,-1555.5 58,-1555.5"/>
<text text-anchor="middle" x="78" y="-1595.5" font-family="Helvetica,sans-Serif" font-size="10.00" fill="#000000">SPPELAN</text>
<text text-anchor="middle" x="78" y="-1584.5" font-family="Helvetica,sans-Serif" font-size="10.00" fill="#000000">256 → 256</text>
<text text-anchor="middle" x="78" y="-1573.5" font-family="Helvetica,sans-Serif" font-size="10.00" fill="#000000">n=1</text>
<text text-anchor="middle" x="78" y="-1562.5" font-family="Helvetica,sans-Serif" font-size="10.00" fill="#000000">[256, 128]</text>
</g>
<!-- L8&#45;&gt;L9 -->
<g id="edge10" class="edge">
<title>L8&#45;&gt;L9</title>
<path fill="none" stroke="#000000" stroke-width="1.1" d="M78,-1673.312C78,-1673.312 78,-1617.6148 78,-1617.6148"/>
<polygon fill="#000000" stroke="#000000" stroke-width="1.1" points="78,-1607.6148 82.5001,-1617.6148 78.05,-1612.6148 78.0501,-1617.6148 78.0001,-1617.6148 77.9501,-1617.6148 77.95,-1612.6148 73.5001,-1617.6149 78,-1607.6148 78,-1607.6148"/>
</g>
<!-- L10 -->
<g id="node12" class="node">
<title>L10</title>
<path fill="#b5e48c" stroke="#2f4f4f" d="M40,-1435.5C40,-1435.5 116,-1435.5 116,-1435.5 122,-1435.5 128,-1441.5 128,-1447.5 128,-1447.5 128,-1475.5 128,-1475.5 128,-1481.5 122,-1487.5 116,-1487.5 116,-1487.5 40,-1487.5 40,-1487.5 34,-1487.5 28,-1481.5 28,-1475.5 28,-1475.5 28,-1447.5 28,-1447.5 28,-1441.5 34,-1435.5 40,-1435.5"/>
<text text-anchor="middle" x="78" y="-1475.5" font-family="Helvetica,sans-Serif" font-size="10.00" fill="#000000">nn.Upsample</text>
<text text-anchor="middle" x="78" y="-1464.5" font-family="Helvetica,sans-Serif" font-size="10.00" fill="#000000">256 → 256</text>
<text text-anchor="middle" x="78" y="-1453.5" font-family="Helvetica,sans-Serif" font-size="10.00" fill="#000000">n=1</text>
<text text-anchor="middle" x="78" y="-1442.5" font-family="Helvetica,sans-Serif" font-size="10.00" fill="#000000">[None, 2, &#39;nearest&#39;]</text>
</g>
<!-- L9&#45;&gt;L10 -->
<g id="edge11" class="edge">
<title>L9&#45;&gt;L10</title>
<path fill="none" stroke="#000000" stroke-width="1.1" d="M78,-1555.4618C78,-1555.4618 78,-1497.9018 78,-1497.9018"/>
<polygon fill="#000000" stroke="#000000" stroke-width="1.1" points="78,-1487.9018 82.5001,-1497.9017 78.05,-1492.9018 78.0501,-1497.9018 78.0001,-1497.9018 77.9501,-1497.9018 77.95,-1492.9018 73.5001,-1497.9018 78,-1487.9018 78,-1487.9018"/>
</g>
<!-- L20 -->
<g id="node22" class="node">
<title>L20</title>
<path fill="#fec5bb" stroke="#2f4f4f" d="M56,-255.5C56,-255.5 96,-255.5 96,-255.5 102,-255.5 108,-261.5 108,-267.5 108,-267.5 108,-295.5 108,-295.5 108,-301.5 102,-307.5 96,-307.5 96,-307.5 56,-307.5 56,-307.5 50,-307.5 44,-301.5 44,-295.5 44,-295.5 44,-267.5 44,-267.5 44,-261.5 50,-255.5 56,-255.5"/>
<text text-anchor="middle" x="76" y="-295.5" font-family="Helvetica,sans-Serif" font-size="10.00" fill="#000000">Concat</text>
<text text-anchor="middle" x="76" y="-284.5" font-family="Helvetica,sans-Serif" font-size="10.00" fill="#000000">384 → 384</text>
<text text-anchor="middle" x="76" y="-273.5" font-family="Helvetica,sans-Serif" font-size="10.00" fill="#000000">n=1</text>
<text text-anchor="middle" x="76" y="-262.5" font-family="Helvetica,sans-Serif" font-size="10.00" fill="#000000">[1]</text>
</g>
<!-- L9&#45;&gt;L20 -->
<g id="edge25" class="edge">
<title>L9&#45;&gt;L20</title>
<path fill="none" stroke="#000000" stroke-width="1.1" d="M45.7578,-1581C25.8163,-1581 4,-1581 4,-1581 4,-1581 4,-281 4,-281 4,-281 33.7906,-281 33.7906,-281"/>
<polygon fill="#000000" stroke="#000000" stroke-width="1.1" points="43.7906,-281 33.7907,-285.5001 38.7906,-281.05 33.7906,-281.0501 33.7906,-281.0001 33.7906,-280.9501 38.7906,-280.95 33.7906,-276.5001 43.7906,-281 43.7906,-281"/>
</g>
<!-- L10&#45;&gt;L11 -->
<g id="edge12" class="edge">
<title>L10&#45;&gt;L11</title>
<path fill="none" stroke="#000000" stroke-width="1.1" d="M96.5,-1435.312C96.5,-1435.312 96.5,-1379.6148 96.5,-1379.6148"/>
<polygon fill="#000000" stroke="#000000" stroke-width="1.1" points="96.5,-1369.6148 101.0001,-1379.6148 96.55,-1374.6148 96.5501,-1379.6148 96.5001,-1379.6148 96.4501,-1379.6148 96.45,-1374.6148 92.0001,-1379.6149 96.5,-1369.6148 96.5,-1369.6148"/>
</g>
<!-- L12 -->
<g id="node14" class="node">
<title>L12</title>
<path fill="#a0c4ff" stroke="#2f4f4f" d="M61.5,-1199.5C61.5,-1199.5 132.5,-1199.5 132.5,-1199.5 138.5,-1199.5 144.5,-1205.5 144.5,-1211.5 144.5,-1211.5 144.5,-1239.5 144.5,-1239.5 144.5,-1245.5 138.5,-1251.5 132.5,-1251.5 132.5,-1251.5 61.5,-1251.5 61.5,-1251.5 55.5,-1251.5 49.5,-1245.5 49.5,-1239.5 49.5,-1239.5 49.5,-1211.5 49.5,-1211.5 49.5,-1205.5 55.5,-1199.5 61.5,-1199.5"/>
<text text-anchor="middle" x="97" y="-1239.5" font-family="Helvetica,sans-Serif" font-size="10.00" fill="#000000">RepNCSPELAN4</text>
<text text-anchor="middle" x="97" y="-1228.5" font-family="Helvetica,sans-Serif" font-size="10.00" fill="#000000">448 → 192</text>
<text text-anchor="middle" x="97" y="-1217.5" font-family="Helvetica,sans-Serif" font-size="10.00" fill="#000000">n=1</text>
<text text-anchor="middle" x="97" y="-1206.5" font-family="Helvetica,sans-Serif" font-size="10.00" fill="#000000">[192, 192, 96, 3]</text>
</g>
<!-- L11&#45;&gt;L12 -->
<g id="edge14" class="edge">
<title>L11&#45;&gt;L12</title>
<path fill="none" stroke="#000000" stroke-width="1.1" d="M97,-1317.312C97,-1317.312 97,-1261.6148 97,-1261.6148"/>
<polygon fill="#000000" stroke="#000000" stroke-width="1.1" points="97,-1251.6148 101.5001,-1261.6148 97.05,-1256.6148 97.0501,-1261.6148 97.0001,-1261.6148 96.9501,-1261.6148 96.95,-1256.6148 92.5001,-1261.6149 97,-1251.6148 97,-1251.6148"/>
</g>
<!-- L13 -->
<g id="node15" class="node">
<title>L13</title>
<path fill="#b5e48c" stroke="#2f4f4f" d="M78,-1081.5C78,-1081.5 154,-1081.5 154,-1081.5 160,-1081.5 166,-1087.5 166,-1093.5 166,-1093.5 166,-1121.5 166,-1121.5 166,-1127.5 160,-1133.5 154,-1133.5 154,-1133.5 78,-1133.5 78,-1133.5 72,-1133.5 66,-1127.5 66,-1121.5 66,-1121.5 66,-1093.5 66,-1093.5 66,-1087.5 72,-1081.5 78,-1081.5"/>
<text text-anchor="middle" x="116" y="-1121.5" font-family="Helvetica,sans-Serif" font-size="10.00" fill="#000000">nn.Upsample</text>
<text text-anchor="middle" x="116" y="-1110.5" font-family="Helvetica,sans-Serif" font-size="10.00" fill="#000000">192 → 192</text>
<text text-anchor="middle" x="116" y="-1099.5" font-family="Helvetica,sans-Serif" font-size="10.00" fill="#000000">n=1</text>
<text text-anchor="middle" x="116" y="-1088.5" font-family="Helvetica,sans-Serif" font-size="10.00" fill="#000000">[None, 2, &#39;nearest&#39;]</text>
</g>
<!-- L12&#45;&gt;L13 -->
<g id="edge15" class="edge">
<title>L12&#45;&gt;L13</title>
<path fill="none" stroke="#000000" stroke-width="1.1" d="M105.25,-1199.312C105.25,-1199.312 105.25,-1143.6148 105.25,-1143.6148"/>
<polygon fill="#000000" stroke="#000000" stroke-width="1.1" points="105.25,-1133.6148 109.7501,-1143.6148 105.3,-1138.6148 105.3001,-1143.6148 105.2501,-1143.6148 105.2001,-1143.6148 105.2,-1138.6148 100.7501,-1143.6149 105.25,-1133.6148 105.25,-1133.6148"/>
</g>
<!-- L17 -->
<g id="node19" class="node">
<title>L17</title>
<path fill="#fec5bb" stroke="#2f4f4f" d="M76,-609.5C76,-609.5 116,-609.5 116,-609.5 122,-609.5 128,-615.5 128,-621.5 128,-621.5 128,-649.5 128,-649.5 128,-655.5 122,-661.5 116,-661.5 116,-661.5 76,-661.5 76,-661.5 70,-661.5 64,-655.5 64,-649.5 64,-649.5 64,-621.5 64,-621.5 64,-615.5 70,-609.5 76,-609.5"/>
<text text-anchor="middle" x="96" y="-649.5" font-family="Helvetica,sans-Serif" font-size="10.00" fill="#000000">Concat</text>
<text text-anchor="middle" x="96" y="-638.5" font-family="Helvetica,sans-Serif" font-size="10.00" fill="#000000">288 → 288</text>
<text text-anchor="middle" x="96" y="-627.5" font-family="Helvetica,sans-Serif" font-size="10.00" fill="#000000">n=1</text>
<text text-anchor="middle" x="96" y="-616.5" font-family="Helvetica,sans-Serif" font-size="10.00" fill="#000000">[1]</text>
</g>
<!-- L12&#45;&gt;L17 -->
<g id="edge21" class="edge">
<title>L12&#45;&gt;L17</title>
<path fill="none" stroke="#000000" stroke-width="1.1" d="M56.75,-1199.365C56.75,-1085.0855 56.75,-635 56.75,-635 56.75,-635 57.4699,-635 57.4699,-635"/>
<polygon fill="#000000" stroke="#000000" stroke-width="1.1" points="63.9491,-635 53.9491,-639.5002 58.9491,-635.0501 53.9491,-635.0502 53.9491,-635.0002 53.9491,-634.9502 58.9491,-634.9501 53.949,-630.5002 63.9491,-635 63.9491,-635"/>
</g>
<!-- L13&#45;&gt;L14 -->
<g id="edge16" class="edge">
<title>L13&#45;&gt;L14</title>
<path fill="none" stroke="#000000" stroke-width="1.1" d="M117,-1081.312C117,-1081.312 117,-1025.6148 117,-1025.6148"/>
<polygon fill="#000000" stroke="#000000" stroke-width="1.1" points="117,-1015.6148 121.5001,-1025.6148 117.05,-1020.6148 117.0501,-1025.6148 117.0001,-1025.6148 116.9501,-1025.6148 116.95,-1020.6148 112.5001,-1025.6149 117,-1015.6148 117,-1015.6148"/>
</g>
<!-- L15 -->
<g id="node17" class="node">
<title>L15</title>
<path fill="#a0c4ff" stroke="#2f4f4f" d="M81.5,-845.5C81.5,-845.5 152.5,-845.5 152.5,-845.5 158.5,-845.5 164.5,-851.5 164.5,-857.5 164.5,-857.5 164.5,-885.5 164.5,-885.5 164.5,-891.5 158.5,-897.5 152.5,-897.5 152.5,-897.5 81.5,-897.5 81.5,-897.5 75.5,-897.5 69.5,-891.5 69.5,-885.5 69.5,-885.5 69.5,-857.5 69.5,-857.5 69.5,-851.5 75.5,-845.5 81.5,-845.5"/>
<text text-anchor="middle" x="117" y="-885.5" font-family="Helvetica,sans-Serif" font-size="10.00" fill="#000000">RepNCSPELAN4</text>
<text text-anchor="middle" x="117" y="-874.5" font-family="Helvetica,sans-Serif" font-size="10.00" fill="#000000">320 → 128</text>
<text text-anchor="middle" x="117" y="-863.5" font-family="Helvetica,sans-Serif" font-size="10.00" fill="#000000">n=1</text>
<text text-anchor="middle" x="117" y="-852.5" font-family="Helvetica,sans-Serif" font-size="10.00" fill="#000000">[128, 128, 64, 3]</text>
</g>
<!-- L14&#45;&gt;L15 -->
<g id="edge18" class="edge">
<title>L14&#45;&gt;L15</title>
<path fill="none" stroke="#000000" stroke-width="1.1" d="M117,-963.312C117,-963.312 117,-907.6148 117,-907.6148"/>
<polygon fill="#000000" stroke="#000000" stroke-width="1.1" points="117,-897.6148 121.5001,-907.6148 117.05,-902.6148 117.0501,-907.6148 117.0001,-907.6148 116.9501,-907.6148 116.95,-902.6148 112.5001,-907.6149 117,-897.6148 117,-897.6148"/>
</g>
<!-- L16 -->
<g id="node18" class="node">
<title>L16</title>
<path fill="#ffb5a7" stroke="#2f4f4f" d="M89.5,-727.5C89.5,-727.5 124.5,-727.5 124.5,-727.5 130.5,-727.5 136.5,-733.5 136.5,-739.5 136.5,-739.5 136.5,-767.5 136.5,-767.5 136.5,-773.5 130.5,-779.5 124.5,-779.5 124.5,-779.5 89.5,-779.5 89.5,-779.5 83.5,-779.5 77.5,-773.5 77.5,-767.5 77.5,-767.5 77.5,-739.5 77.5,-739.5 77.5,-733.5 83.5,-727.5 89.5,-727.5"/>
<text text-anchor="middle" x="107" y="-767.5" font-family="Helvetica,sans-Serif" font-size="10.00" fill="#000000">AConv</text>
<text text-anchor="middle" x="107" y="-756.5" font-family="Helvetica,sans-Serif" font-size="10.00" fill="#000000">128 → 96</text>
<text text-anchor="middle" x="107" y="-745.5" font-family="Helvetica,sans-Serif" font-size="10.00" fill="#000000">n=1</text>
<text text-anchor="middle" x="107" y="-734.5" font-family="Helvetica,sans-Serif" font-size="10.00" fill="#000000">[96]</text>
</g>
<!-- L15&#45;&gt;L16 -->
<g id="edge19" class="edge">
<title>L15&#45;&gt;L16</title>
<path fill="none" stroke="#000000" stroke-width="1.1" d="M107,-845.312C107,-845.312 107,-789.6148 107,-789.6148"/>
<polygon fill="#000000" stroke="#000000" stroke-width="1.1" points="107,-779.6148 111.5001,-789.6148 107.05,-784.6148 107.0501,-789.6148 107.0001,-789.6148 106.9501,-789.6148 106.95,-784.6148 102.5001,-789.6149 107,-779.6148 107,-779.6148"/>
</g>
<!-- L22 -->
<g id="node24" class="node">
<title>L22</title>
<path fill="#fcd5ce" stroke="#2f4f4f" d="M101,-28.5C101,-28.5 257,-28.5 257,-28.5 263,-28.5 269,-34.5 269,-40.5 269,-40.5 269,-57.5 269,-57.5 269,-63.5 263,-69.5 257,-69.5 257,-69.5 101,-69.5 101,-69.5 95,-69.5 89,-63.5 89,-57.5 89,-57.5 89,-40.5 89,-40.5 89,-34.5 95,-28.5 101,-28.5"/>
<text text-anchor="middle" x="179" y="-57.5" font-family="Helvetica,sans-Serif" font-size="10.00" fill="#000000">Detect</text>
<text text-anchor="middle" x="179" y="-46.5" font-family="Helvetica,sans-Serif" font-size="10.00" fill="#000000">n=1</text>
<text text-anchor="middle" x="179" y="-35.5" font-family="Helvetica,sans-Serif" font-size="10.00" fill="#000000">[&#39;nc&#39;]</text>
</g>
<!-- L15&#45;&gt;L22 -->
<g id="edge27" class="edge">
<title>L15&#45;&gt;L22</title>
<path fill="none" stroke="#000000" stroke-width="1.1" d="M154,-845.0655C154,-845.0655 154,-79.8634 154,-79.8634"/>
<polygon fill="#000000" stroke="#000000" stroke-width="1.1" points="154,-69.8634 158.5001,-79.8633 154.05,-74.8634 154.0501,-79.8634 154.0001,-79.8634 153.9501,-79.8634 153.95,-74.8634 149.5001,-79.8634 154,-69.8634 154,-69.8634"/>
</g>
<!-- L16&#45;&gt;L17 -->
<g id="edge20" class="edge">
<title>L16&#45;&gt;L17</title>
<path fill="none" stroke="#000000" stroke-width="1.1" d="M102.75,-727.312C102.75,-727.312 102.75,-671.6148 102.75,-671.6148"/>
<polygon fill="#000000" stroke="#000000" stroke-width="1.1" points="102.75,-661.6148 107.2501,-671.6148 102.8,-666.6148 102.8001,-671.6148 102.7501,-671.6148 102.7001,-671.6148 102.7,-666.6148 98.2501,-671.6149 102.75,-661.6148 102.75,-661.6148"/>
</g>
<!-- L18 -->
<g id="node20" class="node">
<title>L18</title>
<path fill="#a0c4ff" stroke="#2f4f4f" d="M60.5,-491.5C60.5,-491.5 131.5,-491.5 131.5,-491.5 137.5,-491.5 143.5,-497.5 143.5,-503.5 143.5,-503.5 143.5,-531.5 143.5,-531.5 143.5,-537.5 137.5,-543.5 131.5,-543.5 131.5,-543.5 60.5,-543.5 60.5,-543.5 54.5,-543.5 48.5,-537.5 48.5,-531.5 48.5,-531.5 48.5,-503.5 48.5,-503.5 48.5,-497.5 54.5,-491.5 60.5,-491.5"/>
<text text-anchor="middle" x="96" y="-531.5" font-family="Helvetica,sans-Serif" font-size="10.00" fill="#000000">RepNCSPELAN4</text>
<text text-anchor="middle" x="96" y="-520.5" font-family="Helvetica,sans-Serif" font-size="10.00" fill="#000000">288 → 192</text>
<text text-anchor="middle" x="96" y="-509.5" font-family="Helvetica,sans-Serif" font-size="10.00" fill="#000000">n=1</text>
<text text-anchor="middle" x="96" y="-498.5" font-family="Helvetica,sans-Serif" font-size="10.00" fill="#000000">[192, 192, 96, 3]</text>
</g>
<!-- L17&#45;&gt;L18 -->
<g id="edge22" class="edge">
<title>L17&#45;&gt;L18</title>
<path fill="none" stroke="#000000" stroke-width="1.1" d="M96,-609.312C96,-609.312 96,-553.6148 96,-553.6148"/>
<polygon fill="#000000" stroke="#000000" stroke-width="1.1" points="96,-543.6148 100.5001,-553.6148 96.05,-548.6148 96.0501,-553.6148 96.0001,-553.6148 95.9501,-553.6148 95.95,-548.6148 91.5001,-553.6149 96,-543.6148 96,-543.6148"/>
</g>
<!-- L19 -->
<g id="node21" class="node">
<title>L19</title>
<path fill="#ffb5a7" stroke="#2f4f4f" d="M64,-373.5C64,-373.5 104,-373.5 104,-373.5 110,-373.5 116,-379.5 116,-385.5 116,-385.5 116,-413.5 116,-413.5 116,-419.5 110,-425.5 104,-425.5 104,-425.5 64,-425.5 64,-425.5 58,-425.5 52,-419.5 52,-413.5 52,-413.5 52,-385.5 52,-385.5 52,-379.5 58,-373.5 64,-373.5"/>
<text text-anchor="middle" x="84" y="-413.5" font-family="Helvetica,sans-Serif" font-size="10.00" fill="#000000">AConv</text>
<text text-anchor="middle" x="84" y="-402.5" font-family="Helvetica,sans-Serif" font-size="10.00" fill="#000000">192 → 128</text>
<text text-anchor="middle" x="84" y="-391.5" font-family="Helvetica,sans-Serif" font-size="10.00" fill="#000000">n=1</text>
<text text-anchor="middle" x="84" y="-380.5" font-family="Helvetica,sans-Serif" font-size="10.00" fill="#000000">[128]</text>
</g>
<!-- L18&#45;&gt;L19 -->
<g id="edge23" class="edge">
<title>L18&#45;&gt;L19</title>
<path fill="none" stroke="#000000" stroke-width="1.1" d="M84,-491.312C84,-491.312 84,-435.6148 84,-435.6148"/>
<polygon fill="#000000" stroke="#000000" stroke-width="1.1" points="84,-425.6148 88.5001,-435.6148 84.05,-430.6148 84.0501,-435.6148 84.0001,-435.6148 83.9501,-435.6148 83.95,-430.6148 79.5001,-435.6149 84,-425.6148 84,-425.6148"/>
</g>
<!-- L18&#45;&gt;L22 -->
<g id="edge28" class="edge">
<title>L18&#45;&gt;L22</title>
<path fill="none" stroke="#000000" stroke-width="1.1" d="M133.5,-491.3075C133.5,-491.3075 133.5,-79.5299 133.5,-79.5299"/>
<polygon fill="#000000" stroke="#000000" stroke-width="1.1" points="133.5,-69.5299 138.0001,-79.5299 133.55,-74.5299 133.5501,-79.5299 133.5001,-79.5299 133.4501,-79.5299 133.45,-74.5299 129.0001,-79.53 133.5,-69.5299 133.5,-69.5299"/>
</g>
<!-- L19&#45;&gt;L20 -->
<g id="edge24" class="edge">
<title>L19&#45;&gt;L20</title>
<path fill="none" stroke="#000000" stroke-width="1.1" d="M80,-373.312C80,-373.312 80,-317.6148 80,-317.6148"/>
<polygon fill="#000000" stroke="#000000" stroke-width="1.1" points="80,-307.6148 84.5001,-317.6148 80.05,-312.6148 80.0501,-317.6148 80.0001,-317.6148 79.9501,-317.6148 79.95,-312.6148 75.5001,-317.6149 80,-307.6148 80,-307.6148"/>
</g>
<!-- L21 -->
<g id="node23" class="node">
<title>L21</title>
<path fill="#a0c4ff" stroke="#2f4f4f" d="M40.5,-137.5C40.5,-137.5 111.5,-137.5 111.5,-137.5 117.5,-137.5 123.5,-143.5 123.5,-149.5 123.5,-149.5 123.5,-177.5 123.5,-177.5 123.5,-183.5 117.5,-189.5 111.5,-189.5 111.5,-189.5 40.5,-189.5 40.5,-189.5 34.5,-189.5 28.5,-183.5 28.5,-177.5 28.5,-177.5 28.5,-149.5 28.5,-149.5 28.5,-143.5 34.5,-137.5 40.5,-137.5"/>
<text text-anchor="middle" x="76" y="-177.5" font-family="Helvetica,sans-Serif" font-size="10.00" fill="#000000">RepNCSPELAN4</text>
<text text-anchor="middle" x="76" y="-166.5" font-family="Helvetica,sans-Serif" font-size="10.00" fill="#000000">384 → 256</text>
<text text-anchor="middle" x="76" y="-155.5" font-family="Helvetica,sans-Serif" font-size="10.00" fill="#000000">n=1</text>
<text text-anchor="middle" x="76" y="-144.5" font-family="Helvetica,sans-Serif" font-size="10.00" fill="#000000">[256, 256, 128, 3]</text>
</g>
<!-- L20&#45;&gt;L21 -->
<g id="edge26" class="edge">
<title>L20&#45;&gt;L21</title>
<path fill="none" stroke="#000000" stroke-width="1.1" d="M76,-255.312C76,-255.312 76,-199.6148 76,-199.6148"/>
<polygon fill="#000000" stroke="#000000" stroke-width="1.1" points="76,-189.6148 80.5001,-199.6148 76.05,-194.6148 76.0501,-199.6148 76.0001,-199.6148 75.9501,-199.6148 75.95,-194.6148 71.5001,-199.6149 76,-189.6148 76,-189.6148"/>
</g>
<!-- L21&#45;&gt;L22 -->
<g id="edge29" class="edge">
<title>L21&#45;&gt;L22</title>
<path fill="none" stroke="#000000" stroke-width="1.1" d="M106.25,-137.2314C106.25,-137.2314 106.25,-79.8067 106.25,-79.8067"/>
<polygon fill="#000000" stroke="#000000" stroke-width="1.1" points="106.25,-69.8067 110.7501,-79.8066 106.3,-74.8067 106.3001,-79.8067 106.2501,-79.8067 106.2001,-79.8067 106.2,-74.8067 101.7501,-79.8067 106.25,-69.8067 106.25,-69.8067"/>
</g>
</g>
</svg>
