<?xml version="1.0" encoding="UTF-8" standalone="no"?>
<!DOCTYPE svg PUBLIC "-//W3C//DTD SVG 1.1//EN"
 "http://www.w3.org/Graphics/SVG/1.1/DTD/svg11.dtd">
<!-- Generated by graphviz version 2.40.1 (0)
 -->
<!-- Title: %3 Pages: 1 -->
<svg width="283pt" height="2915pt"
 viewBox="0.00 0.00 283.00 2914.74" xmlns="http://www.w3.org/2000/svg" xmlns:xlink="http://www.w3.org/1999/xlink">
<g id="graph0" class="graph" transform="scale(1 1) rotate(0) translate(4 2910.7401)">
<title>%3</title>
<polygon fill="#ffffff" stroke="transparent" points="-4,4 -4,-2910.7401 279,-2910.7401 279,4 -4,4"/>
<g id="clust1" class="cluster">
<title>cluster_backbone</title>
<path fill="#ffffff" stroke="#c6e2ff" d="M40,-1535C40,-1535 150,-1535 150,-1535 156,-1535 162,-1541 162,-1547 162,-1547 162,-2815 162,-2815 162,-2821 156,-2827 150,-2827 150,-2827 40,-2827 40,-2827 34,-2827 28,-2821 28,-2815 28,-2815 28,-1547 28,-1547 28,-1541 34,-1535 40,-1535"/>
<text text-anchor="middle" x="95" y="-2815" font-family="Helvetica,sans-Serif" font-size="10.00" fill="#000000">Backbone</text>
</g>
<g id="clust2" class="cluster">
<title>cluster_neck</title>
<path fill="#ffffff" stroke="#fff0b3" d="M20,-117C20,-117 174,-117 174,-117 180,-117 186,-123 186,-129 186,-129 186,-1515 186,-1515 186,-1521 180,-1527 174,-1527 174,-1527 20,-1527 20,-1527 14,-1527 8,-1521 8,-1515 8,-1515 8,-129 8,-129 8,-123 14,-117 20,-117"/>
<text text-anchor="middle" x="97" y="-1515" font-family="Helvetica,sans-Serif" font-size="10.00" fill="#000000">Neck</text>
</g>
<g id="clust3" class="cluster">
<title>cluster_head</title>
<path fill="#ffffff" stroke="#ffe6e6" d="M59,-8C59,-8 255,-8 255,-8 261,-8 267,-14 267,-20 267,-20 267,-97 267,-97 267,-103 261,-109 255,-109 255,-109 59,-109 59,-109 53,-109 47,-103 47,-97 47,-97 47,-20 47,-20 47,-14 53,-8 59,-8"/>
<text text-anchor="middle" x="157" y="-97" font-family="Helvetica,sans-Serif" font-size="10.00" fill="#000000">Head</text>
</g>
<!-- Input -->
<g id="node1" class="node">
<title>Input</title>
<ellipse fill="#ffddaa" stroke="#000000" cx="95" cy="-2879.8701" rx="31.6406" ry="26.7407"/>
<text text-anchor="middle" x="95" y="-2883.6701" font-family="Times,serif" font-size="14.00" fill="#000000">Input</text>
<text text-anchor="middle" x="95" y="-2868.6701" font-family="Times,serif" font-size="14.00" fill="#000000">C=3</text>
</g>
<!-- L0 -->
<g id="node2" class="node">
<title>L0</title>
<path fill="#c2e7d9" stroke="#2f4f4f" d="M79,-2735.5C79,-2735.5 111,-2735.5 111,-2735.5 117,-2735.5 123,-2741.5 123,-2747.5 123,-2747.5 123,-2775.5 123,-2775.5 123,-2781.5 117,-2787.5 111,-2787.5 111,-2787.5 79,-2787.5 79,-2787.5 73,-2787.5 67,-2781.5 67,-2775.5 67,-2775.5 67,-2747.5 67,-2747.5 67,-2741.5 73,-2735.5 79,-2735.5"/>
<text text-anchor="middle" x="95" y="-2775.5" font-family="Helvetica,sans-Serif" font-size="10.00" fill="#000000">Conv</text>
<text text-anchor="middle" x="95" y="-2764.5" font-family="Helvetica,sans-Serif" font-size="10.00" fill="#000000">3 → 64</text>
<text text-anchor="middle" x="95" y="-2753.5" font-family="Helvetica,sans-Serif" font-size="10.00" fill="#000000">n=1</text>
<text text-anchor="middle" x="95" y="-2742.5" font-family="Helvetica,sans-Serif" font-size="10.00" fill="#000000">[64, 3, 2]</text>
</g>
<!-- Input&#45;&gt;L0 -->
<g id="edge1" class="edge">
<title>Input&#45;&gt;L0</title>
<path fill="none" stroke="#000000" stroke-width="1.1" d="M95,-2852.7136C95,-2852.7136 95,-2797.7162 95,-2797.7162"/>
<polygon fill="#000000" stroke="#000000" stroke-width="1.1" points="95,-2787.7162 99.5001,-2797.7162 95.05,-2792.7162 95.0501,-2797.7162 95.0001,-2797.7162 94.9501,-2797.7162 94.95,-2792.7162 90.5001,-2797.7163 95,-2787.7162 95,-2787.7162"/>
</g>
<!-- L1 -->
<g id="node3" class="node">
<title>L1</title>
<path fill="#c2e7d9" stroke="#2f4f4f" d="M76.5,-2617.5C76.5,-2617.5 113.5,-2617.5 113.5,-2617.5 119.5,-2617.5 125.5,-2623.5 125.5,-2629.5 125.5,-2629.5 125.5,-2657.5 125.5,-2657.5 125.5,-2663.5 119.5,-2669.5 113.5,-2669.5 113.5,-2669.5 76.5,-2669.5 76.5,-2669.5 70.5,-2669.5 64.5,-2663.5 64.5,-2657.5 64.5,-2657.5 64.5,-2629.5 64.5,-2629.5 64.5,-2623.5 70.5,-2617.5 76.5,-2617.5"/>
<text text-anchor="middle" x="95" y="-2657.5" font-family="Helvetica,sans-Serif" font-size="10.00" fill="#000000">Conv</text>
<text text-anchor="middle" x="95" y="-2646.5" font-family="Helvetica,sans-Serif" font-size="10.00" fill="#000000">64 → 128</text>
<text text-anchor="middle" x="95" y="-2635.5" font-family="Helvetica,sans-Serif" font-size="10.00" fill="#000000">n=1</text>
<text text-anchor="middle" x="95" y="-2624.5" font-family="Helvetica,sans-Serif" font-size="10.00" fill="#000000">[128, 3, 2]</text>
</g>
<!-- L0&#45;&gt;L1 -->
<g id="edge2" class="edge">
<title>L0&#45;&gt;L1</title>
<path fill="none" stroke="#000000" stroke-width="1.1" d="M95,-2735.312C95,-2735.312 95,-2679.6148 95,-2679.6148"/>
<polygon fill="#000000" stroke="#000000" stroke-width="1.1" points="95,-2669.6148 99.5001,-2679.6148 95.05,-2674.6148 95.0501,-2679.6148 95.0001,-2679.6148 94.9501,-2679.6148 94.95,-2674.6148 90.5001,-2679.6149 95,-2669.6148 95,-2669.6148"/>
</g>
<!-- L2 -->
<g id="node4" class="node">
<title>L2</title>
<path fill="#ffd6a5" stroke="#2f4f4f" d="M60.5,-2499.5C60.5,-2499.5 129.5,-2499.5 129.5,-2499.5 135.5,-2499.5 141.5,-2505.5 141.5,-2511.5 141.5,-2511.5 141.5,-2539.5 141.5,-2539.5 141.5,-2545.5 135.5,-2551.5 129.5,-2551.5 129.5,-2551.5 60.5,-2551.5 60.5,-2551.5 54.5,-2551.5 48.5,-2545.5 48.5,-2539.5 48.5,-2539.5 48.5,-2511.5 48.5,-2511.5 48.5,-2505.5 54.5,-2499.5 60.5,-2499.5"/>
<text text-anchor="middle" x="95" y="-2539.5" font-family="Helvetica,sans-Serif" font-size="10.00" fill="#000000">C3k2</text>
<text text-anchor="middle" x="95" y="-2528.5" font-family="Helvetica,sans-Serif" font-size="10.00" fill="#000000">128 → 256</text>
<text text-anchor="middle" x="95" y="-2517.5" font-family="Helvetica,sans-Serif" font-size="10.00" fill="#000000">n=2</text>
<text text-anchor="middle" x="95" y="-2506.5" font-family="Helvetica,sans-Serif" font-size="10.00" fill="#000000">[256, False, 0.25]</text>
</g>
<!-- L1&#45;&gt;L2 -->
<g id="edge3" class="edge">
<title>L1&#45;&gt;L2</title>
<path fill="none" stroke="#000000" stroke-width="1.1" d="M95,-2617.312C95,-2617.312 95,-2561.6148 95,-2561.6148"/>
<polygon fill="#000000" stroke="#000000" stroke-width="1.1" points="95,-2551.6148 99.5001,-2561.6148 95.05,-2556.6148 95.0501,-2561.6148 95.0001,-2561.6148 94.9501,-2561.6148 94.95,-2556.6148 90.5001,-2561.6149 95,-2551.6148 95,-2551.6148"/>
</g>
<!-- L3 -->
<g id="node5" class="node">
<title>L3</title>
<path fill="#c2e7d9" stroke="#2f4f4f" d="M75,-2381.5C75,-2381.5 115,-2381.5 115,-2381.5 121,-2381.5 127,-2387.5 127,-2393.5 127,-2393.5 127,-2421.5 127,-2421.5 127,-2427.5 121,-2433.5 115,-2433.5 115,-2433.5 75,-2433.5 75,-2433.5 69,-2433.5 63,-2427.5 63,-2421.5 63,-2421.5 63,-2393.5 63,-2393.5 63,-2387.5 69,-2381.5 75,-2381.5"/>
<text text-anchor="middle" x="95" y="-2421.5" font-family="Helvetica,sans-Serif" font-size="10.00" fill="#000000">Conv</text>
<text text-anchor="middle" x="95" y="-2410.5" font-family="Helvetica,sans-Serif" font-size="10.00" fill="#000000">256 → 256</text>
<text text-anchor="middle" x="95" y="-2399.5" font-family="Helvetica,sans-Serif" font-size="10.00" fill="#000000">n=1</text>
<text text-anchor="middle" x="95" y="-2388.5" font-family="Helvetica,sans-Serif" font-size="10.00" fill="#000000">[256, 3, 2]</text>
</g>
<!-- L2&#45;&gt;L3 -->
<g id="edge4" class="edge">
<title>L2&#45;&gt;L3</title>
<path fill="none" stroke="#000000" stroke-width="1.1" d="M95,-2499.312C95,-2499.312 95,-2443.6148 95,-2443.6148"/>
<polygon fill="#000000" stroke="#000000" stroke-width="1.1" points="95,-2433.6148 99.5001,-2443.6148 95.05,-2438.6148 95.0501,-2443.6148 95.0001,-2443.6148 94.9501,-2443.6148 94.95,-2438.6148 90.5001,-2443.6149 95,-2433.6148 95,-2433.6148"/>
</g>
<!-- L4 -->
<g id="node6" class="node">
<title>L4</title>
<path fill="#ffd6a5" stroke="#2f4f4f" d="M60.5,-2263.5C60.5,-2263.5 129.5,-2263.5 129.5,-2263.5 135.5,-2263.5 141.5,-2269.5 141.5,-2275.5 141.5,-2275.5 141.5,-2303.5 141.5,-2303.5 141.5,-2309.5 135.5,-2315.5 129.5,-2315.5 129.5,-2315.5 60.5,-2315.5 60.5,-2315.5 54.5,-2315.5 48.5,-2309.5 48.5,-2303.5 48.5,-2303.5 48.5,-2275.5 48.5,-2275.5 48.5,-2269.5 54.5,-2263.5 60.5,-2263.5"/>
<text text-anchor="middle" x="95" y="-2303.5" font-family="Helvetica,sans-Serif" font-size="10.00" fill="#000000">C3k2</text>
<text text-anchor="middle" x="95" y="-2292.5" font-family="Helvetica,sans-Serif" font-size="10.00" fill="#000000">256 → 512</text>
<text text-anchor="middle" x="95" y="-2281.5" font-family="Helvetica,sans-Serif" font-size="10.00" fill="#000000">n=2</text>
<text text-anchor="middle" x="95" y="-2270.5" font-family="Helvetica,sans-Serif" font-size="10.00" fill="#000000">[512, False, 0.25]</text>
</g>
<!-- L3&#45;&gt;L4 -->
<g id="edge5" class="edge">
<title>L3&#45;&gt;L4</title>
<path fill="none" stroke="#000000" stroke-width="1.1" d="M95,-2381.312C95,-2381.312 95,-2325.6148 95,-2325.6148"/>
<polygon fill="#000000" stroke="#000000" stroke-width="1.1" points="95,-2315.6148 99.5001,-2325.6148 95.05,-2320.6148 95.0501,-2325.6148 95.0001,-2325.6148 94.9501,-2325.6148 94.95,-2320.6148 90.5001,-2325.6149 95,-2315.6148 95,-2315.6148"/>
</g>
<!-- L5 -->
<g id="node7" class="node">
<title>L5</title>
<path fill="#c2e7d9" stroke="#2f4f4f" d="M75,-2145.5C75,-2145.5 115,-2145.5 115,-2145.5 121,-2145.5 127,-2151.5 127,-2157.5 127,-2157.5 127,-2185.5 127,-2185.5 127,-2191.5 121,-2197.5 115,-2197.5 115,-2197.5 75,-2197.5 75,-2197.5 69,-2197.5 63,-2191.5 63,-2185.5 63,-2185.5 63,-2157.5 63,-2157.5 63,-2151.5 69,-2145.5 75,-2145.5"/>
<text text-anchor="middle" x="95" y="-2185.5" font-family="Helvetica,sans-Serif" font-size="10.00" fill="#000000">Conv</text>
<text text-anchor="middle" x="95" y="-2174.5" font-family="Helvetica,sans-Serif" font-size="10.00" fill="#000000">512 → 512</text>
<text text-anchor="middle" x="95" y="-2163.5" font-family="Helvetica,sans-Serif" font-size="10.00" fill="#000000">n=1</text>
<text text-anchor="middle" x="95" y="-2152.5" font-family="Helvetica,sans-Serif" font-size="10.00" fill="#000000">[512, 3, 2]</text>
</g>
<!-- L4&#45;&gt;L5 -->
<g id="edge6" class="edge">
<title>L4&#45;&gt;L5</title>
<path fill="none" stroke="#000000" stroke-width="1.1" d="M95,-2263.312C95,-2263.312 95,-2207.6148 95,-2207.6148"/>
<polygon fill="#000000" stroke="#000000" stroke-width="1.1" points="95,-2197.6148 99.5001,-2207.6148 95.05,-2202.6148 95.0501,-2207.6148 95.0001,-2207.6148 94.9501,-2207.6148 94.95,-2202.6148 90.5001,-2207.6149 95,-2197.6148 95,-2197.6148"/>
</g>
<!-- L15 -->
<g id="node17" class="node">
<title>L15</title>
<path fill="#b5e48c" stroke="#2f4f4f" d="M98,-963.5C98,-963.5 148,-963.5 148,-963.5 154,-963.5 160,-969.5 160,-975.5 160,-975.5 160,-1003.5 160,-1003.5 160,-1009.5 154,-1015.5 148,-1015.5 148,-1015.5 98,-1015.5 98,-1015.5 92,-1015.5 86,-1009.5 86,-1003.5 86,-1003.5 86,-975.5 86,-975.5 86,-969.5 92,-963.5 98,-963.5"/>
<text text-anchor="middle" x="123" y="-1003.5" font-family="Helvetica,sans-Serif" font-size="10.00" fill="#000000">Concat</text>
<text text-anchor="middle" x="123" y="-992.5" font-family="Helvetica,sans-Serif" font-size="10.00" fill="#000000">1024 → 1024</text>
<text text-anchor="middle" x="123" y="-981.5" font-family="Helvetica,sans-Serif" font-size="10.00" fill="#000000">n=1</text>
<text text-anchor="middle" x="123" y="-970.5" font-family="Helvetica,sans-Serif" font-size="10.00" fill="#000000">[1]</text>
</g>
<!-- L4&#45;&gt;L15 -->
<g id="edge18" class="edge">
<title>L4&#45;&gt;L15</title>
<path fill="none" stroke="#000000" stroke-width="1.1" d="M141.64,-2289C172.1939,-2289 206.5,-2289 206.5,-2289 206.5,-2289 206.5,-989 206.5,-989 206.5,-989 170.3539,-989 170.3539,-989"/>
<polygon fill="#000000" stroke="#000000" stroke-width="1.1" points="160.3539,-989 170.354,-984.5001 165.3539,-988.95 170.3539,-988.9501 170.3539,-989.0001 170.3539,-989.0501 165.3539,-989.05 170.3539,-993.5001 160.3539,-989 160.3539,-989"/>
</g>
<!-- L6 -->
<g id="node8" class="node">
<title>L6</title>
<path fill="#ffd6a5" stroke="#2f4f4f" d="M75,-2027.5C75,-2027.5 115,-2027.5 115,-2027.5 121,-2027.5 127,-2033.5 127,-2039.5 127,-2039.5 127,-2067.5 127,-2067.5 127,-2073.5 121,-2079.5 115,-2079.5 115,-2079.5 75,-2079.5 75,-2079.5 69,-2079.5 63,-2073.5 63,-2067.5 63,-2067.5 63,-2039.5 63,-2039.5 63,-2033.5 69,-2027.5 75,-2027.5"/>
<text text-anchor="middle" x="95" y="-2067.5" font-family="Helvetica,sans-Serif" font-size="10.00" fill="#000000">C3k2</text>
<text text-anchor="middle" x="95" y="-2056.5" font-family="Helvetica,sans-Serif" font-size="10.00" fill="#000000">512 → 512</text>
<text text-anchor="middle" x="95" y="-2045.5" font-family="Helvetica,sans-Serif" font-size="10.00" fill="#000000">n=2</text>
<text text-anchor="middle" x="95" y="-2034.5" font-family="Helvetica,sans-Serif" font-size="10.00" fill="#000000">[512, True]</text>
</g>
<!-- L5&#45;&gt;L6 -->
<g id="edge7" class="edge">
<title>L5&#45;&gt;L6</title>
<path fill="none" stroke="#000000" stroke-width="1.1" d="M95,-2145.312C95,-2145.312 95,-2089.6148 95,-2089.6148"/>
<polygon fill="#000000" stroke="#000000" stroke-width="1.1" points="95,-2079.6148 99.5001,-2089.6148 95.05,-2084.6148 95.0501,-2089.6148 95.0001,-2089.6148 94.9501,-2089.6148 94.95,-2084.6148 90.5001,-2089.6149 95,-2079.6148 95,-2079.6148"/>
</g>
<!-- L7 -->
<g id="node9" class="node">
<title>L7</title>
<path fill="#c2e7d9" stroke="#2f4f4f" d="M69.5,-1909.5C69.5,-1909.5 114.5,-1909.5 114.5,-1909.5 120.5,-1909.5 126.5,-1915.5 126.5,-1921.5 126.5,-1921.5 126.5,-1949.5 126.5,-1949.5 126.5,-1955.5 120.5,-1961.5 114.5,-1961.5 114.5,-1961.5 69.5,-1961.5 69.5,-1961.5 63.5,-1961.5 57.5,-1955.5 57.5,-1949.5 57.5,-1949.5 57.5,-1921.5 57.5,-1921.5 57.5,-1915.5 63.5,-1909.5 69.5,-1909.5"/>
<text text-anchor="middle" x="92" y="-1949.5" font-family="Helvetica,sans-Serif" font-size="10.00" fill="#000000">Conv</text>
<text text-anchor="middle" x="92" y="-1938.5" font-family="Helvetica,sans-Serif" font-size="10.00" fill="#000000">512 → 1024</text>
<text text-anchor="middle" x="92" y="-1927.5" font-family="Helvetica,sans-Serif" font-size="10.00" fill="#000000">n=1</text>
<text text-anchor="middle" x="92" y="-1916.5" font-family="Helvetica,sans-Serif" font-size="10.00" fill="#000000">[1024, 3, 2]</text>
</g>
<!-- L6&#45;&gt;L7 -->
<g id="edge8" class="edge">
<title>L6&#45;&gt;L7</title>
<path fill="none" stroke="#000000" stroke-width="1.1" d="M94.75,-2027.312C94.75,-2027.312 94.75,-1971.6148 94.75,-1971.6148"/>
<polygon fill="#000000" stroke="#000000" stroke-width="1.1" points="94.75,-1961.6148 99.2501,-1971.6148 94.8,-1966.6148 94.8001,-1971.6148 94.7501,-1971.6148 94.7001,-1971.6148 94.7,-1966.6148 90.2501,-1971.6149 94.75,-1961.6148 94.75,-1961.6148"/>
</g>
<!-- L12 -->
<g id="node14" class="node">
<title>L12</title>
<path fill="#b5e48c" stroke="#2f4f4f" d="M72,-1317.5C72,-1317.5 122,-1317.5 122,-1317.5 128,-1317.5 134,-1323.5 134,-1329.5 134,-1329.5 134,-1357.5 134,-1357.5 134,-1363.5 128,-1369.5 122,-1369.5 122,-1369.5 72,-1369.5 72,-1369.5 66,-1369.5 60,-1363.5 60,-1357.5 60,-1357.5 60,-1329.5 60,-1329.5 60,-1323.5 66,-1317.5 72,-1317.5"/>
<text text-anchor="middle" x="97" y="-1357.5" font-family="Helvetica,sans-Serif" font-size="10.00" fill="#000000">Concat</text>
<text text-anchor="middle" x="97" y="-1346.5" font-family="Helvetica,sans-Serif" font-size="10.00" fill="#000000">1536 → 1536</text>
<text text-anchor="middle" x="97" y="-1335.5" font-family="Helvetica,sans-Serif" font-size="10.00" fill="#000000">n=1</text>
<text text-anchor="middle" x="97" y="-1324.5" font-family="Helvetica,sans-Serif" font-size="10.00" fill="#000000">[1]</text>
</g>
<!-- L6&#45;&gt;L12 -->
<g id="edge14" class="edge">
<title>L6&#45;&gt;L12</title>
<path fill="none" stroke="#000000" stroke-width="1.1" d="M127.4014,-2053C133.3638,-2053 137.75,-2053 137.75,-2053 137.75,-2053 137.75,-1343 137.75,-1343 137.75,-1343 137.4026,-1343 137.4026,-1343"/>
<polygon fill="#000000" stroke="#000000" stroke-width="1.1" points="134.2757,-1343 144.2758,-1338.5003 139.2757,-1342.9502 144.2757,-1342.9503 144.2757,-1343.0003 144.2757,-1343.0503 139.2757,-1343.0502 144.2755,-1347.5003 134.2757,-1343 134.2757,-1343"/>
</g>
<!-- L8 -->
<g id="node10" class="node">
<title>L8</title>
<path fill="#ffd6a5" stroke="#2f4f4f" d="M66,-1791.5C66,-1791.5 116,-1791.5 116,-1791.5 122,-1791.5 128,-1797.5 128,-1803.5 128,-1803.5 128,-1831.5 128,-1831.5 128,-1837.5 122,-1843.5 116,-1843.5 116,-1843.5 66,-1843.5 66,-1843.5 60,-1843.5 54,-1837.5 54,-1831.5 54,-1831.5 54,-1803.5 54,-1803.5 54,-1797.5 60,-1791.5 66,-1791.5"/>
<text text-anchor="middle" x="91" y="-1831.5" font-family="Helvetica,sans-Serif" font-size="10.00" fill="#000000">C3k2</text>
<text text-anchor="middle" x="91" y="-1820.5" font-family="Helvetica,sans-Serif" font-size="10.00" fill="#000000">1024 → 1024</text>
<text text-anchor="middle" x="91" y="-1809.5" font-family="Helvetica,sans-Serif" font-size="10.00" fill="#000000">n=2</text>
<text text-anchor="middle" x="91" y="-1798.5" font-family="Helvetica,sans-Serif" font-size="10.00" fill="#000000">[1024, True]</text>
</g>
<!-- L7&#45;&gt;L8 -->
<g id="edge9" class="edge">
<title>L7&#45;&gt;L8</title>
<path fill="none" stroke="#000000" stroke-width="1.1" d="M92,-1909.312C92,-1909.312 92,-1853.6148 92,-1853.6148"/>
<polygon fill="#000000" stroke="#000000" stroke-width="1.1" points="92,-1843.6148 96.5001,-1853.6148 92.05,-1848.6148 92.0501,-1853.6148 92.0001,-1853.6148 91.9501,-1853.6148 91.95,-1848.6148 87.5001,-1853.6149 92,-1843.6148 92,-1843.6148"/>
</g>
<!-- L9 -->
<g id="node11" class="node">
<title>L9</title>
<path fill="#ffb5a7" stroke="#2f4f4f" d="M62,-1673.5C62,-1673.5 112,-1673.5 112,-1673.5 118,-1673.5 124,-1679.5 124,-1685.5 124,-1685.5 124,-1713.5 124,-1713.5 124,-1719.5 118,-1725.5 112,-1725.5 112,-1725.5 62,-1725.5 62,-1725.5 56,-1725.5 50,-1719.5 50,-1713.5 50,-1713.5 50,-1685.5 50,-1685.5 50,-1679.5 56,-1673.5 62,-1673.5"/>
<text text-anchor="middle" x="87" y="-1713.5" font-family="Helvetica,sans-Serif" font-size="10.00" fill="#000000">SPPF</text>
<text text-anchor="middle" x="87" y="-1702.5" font-family="Helvetica,sans-Serif" font-size="10.00" fill="#000000">1024 → 1024</text>
<text text-anchor="middle" x="87" y="-1691.5" font-family="Helvetica,sans-Serif" font-size="10.00" fill="#000000">n=1</text>
<text text-anchor="middle" x="87" y="-1680.5" font-family="Helvetica,sans-Serif" font-size="10.00" fill="#000000">[1024, 5]</text>
</g>
<!-- L8&#45;&gt;L9 -->
<g id="edge10" class="edge">
<title>L8&#45;&gt;L9</title>
<path fill="none" stroke="#000000" stroke-width="1.1" d="M89,-1791.312C89,-1791.312 89,-1735.6148 89,-1735.6148"/>
<polygon fill="#000000" stroke="#000000" stroke-width="1.1" points="89,-1725.6148 93.5001,-1735.6148 89.05,-1730.6148 89.0501,-1735.6148 89.0001,-1735.6148 88.9501,-1735.6148 88.95,-1730.6148 84.5001,-1735.6149 89,-1725.6148 89,-1725.6148"/>
</g>
<!-- L10 -->
<g id="node12" class="node">
<title>L10</title>
<path fill="#a0c4ff" stroke="#2f4f4f" d="M60,-1555.5C60,-1555.5 110,-1555.5 110,-1555.5 116,-1555.5 122,-1561.5 122,-1567.5 122,-1567.5 122,-1595.5 122,-1595.5 122,-1601.5 116,-1607.5 110,-1607.5 110,-1607.5 60,-1607.5 60,-1607.5 54,-1607.5 48,-1601.5 48,-1595.5 48,-1595.5 48,-1567.5 48,-1567.5 48,-1561.5 54,-1555.5 60,-1555.5"/>
<text text-anchor="middle" x="85" y="-1595.5" font-family="Helvetica,sans-Serif" font-size="10.00" fill="#000000">C2PSA</text>
<text text-anchor="middle" x="85" y="-1584.5" font-family="Helvetica,sans-Serif" font-size="10.00" fill="#000000">1024 → 1024</text>
<text text-anchor="middle" x="85" y="-1573.5" font-family="Helvetica,sans-Serif" font-size="10.00" fill="#000000">n=2</text>
<text text-anchor="middle" x="85" y="-1562.5" font-family="Helvetica,sans-Serif" font-size="10.00" fill="#000000">[1024]</text>
</g>
<!-- L9&#45;&gt;L10 -->
<g id="edge11" class="edge">
<title>L9&#45;&gt;L10</title>
<path fill="none" stroke="#000000" stroke-width="1.1" d="M86,-1673.312C86,-1673.312 86,-1617.6148 86,-1617.6148"/>
<polygon fill="#000000" stroke="#000000" stroke-width="1.1" points="86,-1607.6148 90.5001,-1617.6148 86.05,-1612.6148 86.0501,-1617.6148 86.0001,-1617.6148 85.9501,-1617.6148 85.95,-1612.6148 81.5001,-1617.6149 86,-1607.6148 86,-1607.6148"/>
</g>
<!-- L11 -->
<g id="node13" class="node">
<title>L11</title>
<path fill="#bdb2ff" stroke="#2f4f4f" d="M40,-1435.5C40,-1435.5 116,-1435.5 116,-1435.5 122,-1435.5 128,-1441.5 128,-1447.5 128,-1447.5 128,-1475.5 128,-1475.5 128,-1481.5 122,-1487.5 116,-1487.5 116,-1487.5 40,-1487.5 40,-1487.5 34,-1487.5 28,-1481.5 28,-1475.5 28,-1475.5 28,-1447.5 28,-1447.5 28,-1441.5 34,-1435.5 40,-1435.5"/>
<text text-anchor="middle" x="78" y="-1475.5" font-family="Helvetica,sans-Serif" font-size="10.00" fill="#000000">nn.Upsample</text>
<text text-anchor="middle" x="78" y="-1464.5" font-family="Helvetica,sans-Serif" font-size="10.00" fill="#000000">1024 → 1024</text>
<text text-anchor="middle" x="78" y="-1453.5" font-family="Helvetica,sans-Serif" font-size="10.00" fill="#000000">n=1</text>
<text text-anchor="middle" x="78" y="-1442.5" font-family="Helvetica,sans-Serif" font-size="10.00" fill="#000000">[None, 2, &#39;nearest&#39;]</text>
</g>
<!-- L10&#45;&gt;L11 -->
<g id="edge12" class="edge">
<title>L10&#45;&gt;L11</title>
<path fill="none" stroke="#000000" stroke-width="1.1" d="M85,-1555.4618C85,-1555.4618 85,-1497.9018 85,-1497.9018"/>
<polygon fill="#000000" stroke="#000000" stroke-width="1.1" points="85,-1487.9018 89.5001,-1497.9017 85.05,-1492.9018 85.0501,-1497.9018 85.0001,-1497.9018 84.9501,-1497.9018 84.95,-1492.9018 80.5001,-1497.9018 85,-1487.9018 85,-1487.9018"/>
</g>
<!-- L21 -->
<g id="node23" class="node">
<title>L21</title>
<path fill="#b5e48c" stroke="#2f4f4f" d="M40,-255.5C40,-255.5 90,-255.5 90,-255.5 96,-255.5 102,-261.5 102,-267.5 102,-267.5 102,-295.5 102,-295.5 102,-301.5 96,-307.5 90,-307.5 90,-307.5 40,-307.5 40,-307.5 34,-307.5 28,-301.5 28,-295.5 28,-295.5 28,-267.5 28,-267.5 28,-261.5 34,-255.5 40,-255.5"/>
<text text-anchor="middle" x="65" y="-295.5" font-family="Helvetica,sans-Serif" font-size="10.00" fill="#000000">Concat</text>
<text text-anchor="middle" x="65" y="-284.5" font-family="Helvetica,sans-Serif" font-size="10.00" fill="#000000">1536 → 1536</text>
<text text-anchor="middle" x="65" y="-273.5" font-family="Helvetica,sans-Serif" font-size="10.00" fill="#000000">n=1</text>
<text text-anchor="middle" x="65" y="-262.5" font-family="Helvetica,sans-Serif" font-size="10.00" fill="#000000">[1]</text>
</g>
<!-- L10&#45;&gt;L21 -->
<g id="edge26" class="edge">
<title>L10&#45;&gt;L21</title>
<path fill="none" stroke="#000000" stroke-width="1.1" d="M47.9394,-1581C29.0441,-1581 10,-1581 10,-1581 10,-1581 10,-281 10,-281 10,-281 17.7051,-281 17.7051,-281"/>
<polygon fill="#000000" stroke="#000000" stroke-width="1.1" points="27.7051,-281 17.7051,-285.5001 22.7051,-281.05 17.7051,-281.0501 17.7051,-281.0001 17.7051,-280.9501 22.7051,-280.95 17.705,-276.5001 27.7051,-281 27.7051,-281"/>
</g>
<!-- L11&#45;&gt;L12 -->
<g id="edge13" class="edge">
<title>L11&#45;&gt;L12</title>
<path fill="none" stroke="#000000" stroke-width="1.1" d="M94,-1435.312C94,-1435.312 94,-1379.6148 94,-1379.6148"/>
<polygon fill="#000000" stroke="#000000" stroke-width="1.1" points="94,-1369.6148 98.5001,-1379.6148 94.05,-1374.6148 94.0501,-1379.6148 94.0001,-1379.6148 93.9501,-1379.6148 93.95,-1374.6148 89.5001,-1379.6149 94,-1369.6148 94,-1369.6148"/>
</g>
<!-- L13 -->
<g id="node15" class="node">
<title>L13</title>
<path fill="#ffd6a5" stroke="#2f4f4f" d="M74.5,-1199.5C74.5,-1199.5 119.5,-1199.5 119.5,-1199.5 125.5,-1199.5 131.5,-1205.5 131.5,-1211.5 131.5,-1211.5 131.5,-1239.5 131.5,-1239.5 131.5,-1245.5 125.5,-1251.5 119.5,-1251.5 119.5,-1251.5 74.5,-1251.5 74.5,-1251.5 68.5,-1251.5 62.5,-1245.5 62.5,-1239.5 62.5,-1239.5 62.5,-1211.5 62.5,-1211.5 62.5,-1205.5 68.5,-1199.5 74.5,-1199.5"/>
<text text-anchor="middle" x="97" y="-1239.5" font-family="Helvetica,sans-Serif" font-size="10.00" fill="#000000">C3k2</text>
<text text-anchor="middle" x="97" y="-1228.5" font-family="Helvetica,sans-Serif" font-size="10.00" fill="#000000">1536 → 512</text>
<text text-anchor="middle" x="97" y="-1217.5" font-family="Helvetica,sans-Serif" font-size="10.00" fill="#000000">n=2</text>
<text text-anchor="middle" x="97" y="-1206.5" font-family="Helvetica,sans-Serif" font-size="10.00" fill="#000000">[512, False]</text>
</g>
<!-- L12&#45;&gt;L13 -->
<g id="edge15" class="edge">
<title>L12&#45;&gt;L13</title>
<path fill="none" stroke="#000000" stroke-width="1.1" d="M97,-1317.312C97,-1317.312 97,-1261.6148 97,-1261.6148"/>
<polygon fill="#000000" stroke="#000000" stroke-width="1.1" points="97,-1251.6148 101.5001,-1261.6148 97.05,-1256.6148 97.0501,-1261.6148 97.0001,-1261.6148 96.9501,-1261.6148 96.95,-1256.6148 92.5001,-1261.6149 97,-1251.6148 97,-1251.6148"/>
</g>
<!-- L14 -->
<g id="node16" class="node">
<title>L14</title>
<path fill="#bdb2ff" stroke="#2f4f4f" d="M78,-1081.5C78,-1081.5 154,-1081.5 154,-1081.5 160,-1081.5 166,-1087.5 166,-1093.5 166,-1093.5 166,-1121.5 166,-1121.5 166,-1127.5 160,-1133.5 154,-1133.5 154,-1133.5 78,-1133.5 78,-1133.5 72,-1133.5 66,-1127.5 66,-1121.5 66,-1121.5 66,-1093.5 66,-1093.5 66,-1087.5 72,-1081.5 78,-1081.5"/>
<text text-anchor="middle" x="116" y="-1121.5" font-family="Helvetica,sans-Serif" font-size="10.00" fill="#000000">nn.Upsample</text>
<text text-anchor="middle" x="116" y="-1110.5" font-family="Helvetica,sans-Serif" font-size="10.00" fill="#000000">512 → 512</text>
<text text-anchor="middle" x="116" y="-1099.5" font-family="Helvetica,sans-Serif" font-size="10.00" fill="#000000">n=1</text>
<text text-anchor="middle" x="116" y="-1088.5" font-family="Helvetica,sans-Serif" font-size="10.00" fill="#000000">[None, 2, &#39;nearest&#39;]</text>
</g>
<!-- L13&#45;&gt;L14 -->
<g id="edge16" class="edge">
<title>L13&#45;&gt;L14</title>
<path fill="none" stroke="#000000" stroke-width="1.1" d="M98.75,-1199.312C98.75,-1199.312 98.75,-1143.6148 98.75,-1143.6148"/>
<polygon fill="#000000" stroke="#000000" stroke-width="1.1" points="98.75,-1133.6148 103.2501,-1143.6148 98.8,-1138.6148 98.8001,-1143.6148 98.7501,-1143.6148 98.7001,-1143.6148 98.7,-1138.6148 94.2501,-1143.6149 98.75,-1133.6148 98.75,-1133.6148"/>
</g>
<!-- L18 -->
<g id="node20" class="node">
<title>L18</title>
<path fill="#b5e48c" stroke="#2f4f4f" d="M65,-609.5C65,-609.5 105,-609.5 105,-609.5 111,-609.5 117,-615.5 117,-621.5 117,-621.5 117,-649.5 117,-649.5 117,-655.5 111,-661.5 105,-661.5 105,-661.5 65,-661.5 65,-661.5 59,-661.5 53,-655.5 53,-649.5 53,-649.5 53,-621.5 53,-621.5 53,-615.5 59,-609.5 65,-609.5"/>
<text text-anchor="middle" x="85" y="-649.5" font-family="Helvetica,sans-Serif" font-size="10.00" fill="#000000">Concat</text>
<text text-anchor="middle" x="85" y="-638.5" font-family="Helvetica,sans-Serif" font-size="10.00" fill="#000000">768 → 768</text>
<text text-anchor="middle" x="85" y="-627.5" font-family="Helvetica,sans-Serif" font-size="10.00" fill="#000000">n=1</text>
<text text-anchor="middle" x="85" y="-616.5" font-family="Helvetica,sans-Serif" font-size="10.00" fill="#000000">[1]</text>
</g>
<!-- L13&#45;&gt;L18 -->
<g id="edge22" class="edge">
<title>L13&#45;&gt;L18</title>
<path fill="none" stroke="#000000" stroke-width="1.1" d="M62.4759,-1225C58.8755,-1225 56.5,-1225 56.5,-1225 56.5,-1225 56.5,-671.5907 56.5,-671.5907"/>
<polygon fill="#000000" stroke="#000000" stroke-width="1.1" points="56.5,-661.5907 61.0001,-671.5907 56.55,-666.5907 56.5501,-671.5907 56.5001,-671.5907 56.4501,-671.5907 56.45,-666.5907 52.0001,-671.5908 56.5,-661.5907 56.5,-661.5907"/>
</g>
<!-- L14&#45;&gt;L15 -->
<g id="edge17" class="edge">
<title>L14&#45;&gt;L15</title>
<path fill="none" stroke="#000000" stroke-width="1.1" d="M123,-1081.312C123,-1081.312 123,-1025.6148 123,-1025.6148"/>
<polygon fill="#000000" stroke="#000000" stroke-width="1.1" points="123,-1015.6148 127.5001,-1025.6148 123.05,-1020.6148 123.0501,-1025.6148 123.0001,-1025.6148 122.9501,-1025.6148 122.95,-1020.6148 118.5001,-1025.6149 123,-1015.6148 123,-1015.6148"/>
</g>
<!-- L16 -->
<g id="node18" class="node">
<title>L16</title>
<path fill="#ffd6a5" stroke="#2f4f4f" d="M100.5,-845.5C100.5,-845.5 145.5,-845.5 145.5,-845.5 151.5,-845.5 157.5,-851.5 157.5,-857.5 157.5,-857.5 157.5,-885.5 157.5,-885.5 157.5,-891.5 151.5,-897.5 145.5,-897.5 145.5,-897.5 100.5,-897.5 100.5,-897.5 94.5,-897.5 88.5,-891.5 88.5,-885.5 88.5,-885.5 88.5,-857.5 88.5,-857.5 88.5,-851.5 94.5,-845.5 100.5,-845.5"/>
<text text-anchor="middle" x="123" y="-885.5" font-family="Helvetica,sans-Serif" font-size="10.00" fill="#000000">C3k2</text>
<text text-anchor="middle" x="123" y="-874.5" font-family="Helvetica,sans-Serif" font-size="10.00" fill="#000000">1024 → 256</text>
<text text-anchor="middle" x="123" y="-863.5" font-family="Helvetica,sans-Serif" font-size="10.00" fill="#000000">n=2</text>
<text text-anchor="middle" x="123" y="-852.5" font-family="Helvetica,sans-Serif" font-size="10.00" fill="#000000">[256, False]</text>
</g>
<!-- L15&#45;&gt;L16 -->
<g id="edge19" class="edge">
<title>L15&#45;&gt;L16</title>
<path fill="none" stroke="#000000" stroke-width="1.1" d="M123,-963.312C123,-963.312 123,-907.6148 123,-907.6148"/>
<polygon fill="#000000" stroke="#000000" stroke-width="1.1" points="123,-897.6148 127.5001,-907.6148 123.05,-902.6148 123.0501,-907.6148 123.0001,-907.6148 122.9501,-907.6148 122.95,-902.6148 118.5001,-907.6149 123,-897.6148 123,-897.6148"/>
</g>
<!-- L17 -->
<g id="node19" class="node">
<title>L17</title>
<path fill="#c2e7d9" stroke="#2f4f4f" d="M88,-727.5C88,-727.5 128,-727.5 128,-727.5 134,-727.5 140,-733.5 140,-739.5 140,-739.5 140,-767.5 140,-767.5 140,-773.5 134,-779.5 128,-779.5 128,-779.5 88,-779.5 88,-779.5 82,-779.5 76,-773.5 76,-767.5 76,-767.5 76,-739.5 76,-739.5 76,-733.5 82,-727.5 88,-727.5"/>
<text text-anchor="middle" x="108" y="-767.5" font-family="Helvetica,sans-Serif" font-size="10.00" fill="#000000">Conv</text>
<text text-anchor="middle" x="108" y="-756.5" font-family="Helvetica,sans-Serif" font-size="10.00" fill="#000000">256 → 256</text>
<text text-anchor="middle" x="108" y="-745.5" font-family="Helvetica,sans-Serif" font-size="10.00" fill="#000000">n=1</text>
<text text-anchor="middle" x="108" y="-734.5" font-family="Helvetica,sans-Serif" font-size="10.00" fill="#000000">[256, 3, 2]</text>
</g>
<!-- L16&#45;&gt;L17 -->
<g id="edge20" class="edge">
<title>L16&#45;&gt;L17</title>
<path fill="none" stroke="#000000" stroke-width="1.1" d="M114.25,-845.312C114.25,-845.312 114.25,-789.6148 114.25,-789.6148"/>
<polygon fill="#000000" stroke="#000000" stroke-width="1.1" points="114.25,-779.6148 118.7501,-789.6148 114.3,-784.6148 114.3001,-789.6148 114.2501,-789.6148 114.2001,-789.6148 114.2,-784.6148 109.7501,-789.6149 114.25,-779.6148 114.25,-779.6148"/>
</g>
<!-- L23 -->
<g id="node25" class="node">
<title>L23</title>
<path fill="#fec5bb" stroke="#2f4f4f" d="M79,-28.5C79,-28.5 235,-28.5 235,-28.5 241,-28.5 247,-34.5 247,-40.5 247,-40.5 247,-57.5 247,-57.5 247,-63.5 241,-69.5 235,-69.5 235,-69.5 79,-69.5 79,-69.5 73,-69.5 67,-63.5 67,-57.5 67,-57.5 67,-40.5 67,-40.5 67,-34.5 73,-28.5 79,-28.5"/>
<text text-anchor="middle" x="157" y="-57.5" font-family="Helvetica,sans-Serif" font-size="10.00" fill="#000000">Detect</text>
<text text-anchor="middle" x="157" y="-46.5" font-family="Helvetica,sans-Serif" font-size="10.00" fill="#000000">n=1</text>
<text text-anchor="middle" x="157" y="-35.5" font-family="Helvetica,sans-Serif" font-size="10.00" fill="#000000">[&#39;nc&#39;]</text>
</g>
<!-- L16&#45;&gt;L23 -->
<g id="edge28" class="edge">
<title>L16&#45;&gt;L23</title>
<path fill="none" stroke="#000000" stroke-width="1.1" d="M148.75,-845.0655C148.75,-845.0655 148.75,-79.8634 148.75,-79.8634"/>
<polygon fill="#000000" stroke="#000000" stroke-width="1.1" points="148.75,-69.8634 153.2501,-79.8633 148.8,-74.8634 148.8001,-79.8634 148.7501,-79.8634 148.7001,-79.8634 148.7,-74.8634 144.2501,-79.8634 148.75,-69.8634 148.75,-69.8634"/>
</g>
<!-- L17&#45;&gt;L18 -->
<g id="edge21" class="edge">
<title>L17&#45;&gt;L18</title>
<path fill="none" stroke="#000000" stroke-width="1.1" d="M96.5,-727.312C96.5,-727.312 96.5,-671.6148 96.5,-671.6148"/>
<polygon fill="#000000" stroke="#000000" stroke-width="1.1" points="96.5,-661.6148 101.0001,-671.6148 96.55,-666.6148 96.5501,-671.6148 96.5001,-671.6148 96.4501,-671.6148 96.45,-666.6148 92.0001,-671.6149 96.5,-661.6148 96.5,-661.6148"/>
</g>
<!-- L19 -->
<g id="node21" class="node">
<title>L19</title>
<path fill="#ffd6a5" stroke="#2f4f4f" d="M63,-491.5C63,-491.5 107,-491.5 107,-491.5 113,-491.5 119,-497.5 119,-503.5 119,-503.5 119,-531.5 119,-531.5 119,-537.5 113,-543.5 107,-543.5 107,-543.5 63,-543.5 63,-543.5 57,-543.5 51,-537.5 51,-531.5 51,-531.5 51,-503.5 51,-503.5 51,-497.5 57,-491.5 63,-491.5"/>
<text text-anchor="middle" x="85" y="-531.5" font-family="Helvetica,sans-Serif" font-size="10.00" fill="#000000">C3k2</text>
<text text-anchor="middle" x="85" y="-520.5" font-family="Helvetica,sans-Serif" font-size="10.00" fill="#000000">768 → 512</text>
<text text-anchor="middle" x="85" y="-509.5" font-family="Helvetica,sans-Serif" font-size="10.00" fill="#000000">n=2</text>
<text text-anchor="middle" x="85" y="-498.5" font-family="Helvetica,sans-Serif" font-size="10.00" fill="#000000">[512, False]</text>
</g>
<!-- L18&#45;&gt;L19 -->
<g id="edge23" class="edge">
<title>L18&#45;&gt;L19</title>
<path fill="none" stroke="#000000" stroke-width="1.1" d="M85,-609.312C85,-609.312 85,-553.6148 85,-553.6148"/>
<polygon fill="#000000" stroke="#000000" stroke-width="1.1" points="85,-543.6148 89.5001,-553.6148 85.05,-548.6148 85.0501,-553.6148 85.0001,-553.6148 84.9501,-553.6148 84.95,-548.6148 80.5001,-553.6149 85,-543.6148 85,-543.6148"/>
</g>
<!-- L20 -->
<g id="node22" class="node">
<title>L20</title>
<path fill="#c2e7d9" stroke="#2f4f4f" d="M48,-373.5C48,-373.5 88,-373.5 88,-373.5 94,-373.5 100,-379.5 100,-385.5 100,-385.5 100,-413.5 100,-413.5 100,-419.5 94,-425.5 88,-425.5 88,-425.5 48,-425.5 48,-425.5 42,-425.5 36,-419.5 36,-413.5 36,-413.5 36,-385.5 36,-385.5 36,-379.5 42,-373.5 48,-373.5"/>
<text text-anchor="middle" x="68" y="-413.5" font-family="Helvetica,sans-Serif" font-size="10.00" fill="#000000">Conv</text>
<text text-anchor="middle" x="68" y="-402.5" font-family="Helvetica,sans-Serif" font-size="10.00" fill="#000000">512 → 512</text>
<text text-anchor="middle" x="68" y="-391.5" font-family="Helvetica,sans-Serif" font-size="10.00" fill="#000000">n=1</text>
<text text-anchor="middle" x="68" y="-380.5" font-family="Helvetica,sans-Serif" font-size="10.00" fill="#000000">[512, 3, 2]</text>
</g>
<!-- L19&#45;&gt;L20 -->
<g id="edge24" class="edge">
<title>L19&#45;&gt;L20</title>
<path fill="none" stroke="#000000" stroke-width="1.1" d="M75.5,-491.312C75.5,-491.312 75.5,-435.6148 75.5,-435.6148"/>
<polygon fill="#000000" stroke="#000000" stroke-width="1.1" points="75.5,-425.6148 80.0001,-435.6148 75.55,-430.6148 75.5501,-435.6148 75.5001,-435.6148 75.4501,-435.6148 75.45,-430.6148 71.0001,-435.6149 75.5,-425.6148 75.5,-425.6148"/>
</g>
<!-- L19&#45;&gt;L23 -->
<g id="edge29" class="edge">
<title>L19&#45;&gt;L23</title>
<path fill="none" stroke="#000000" stroke-width="1.1" d="M110.5,-491.3075C110.5,-491.3075 110.5,-79.5299 110.5,-79.5299"/>
<polygon fill="#000000" stroke="#000000" stroke-width="1.1" points="110.5,-69.5299 115.0001,-79.5299 110.55,-74.5299 110.5501,-79.5299 110.5001,-79.5299 110.4501,-79.5299 110.45,-74.5299 106.0001,-79.53 110.5,-69.5299 110.5,-69.5299"/>
</g>
<!-- L20&#45;&gt;L21 -->
<g id="edge25" class="edge">
<title>L20&#45;&gt;L21</title>
<path fill="none" stroke="#000000" stroke-width="1.1" d="M68,-373.312C68,-373.312 68,-317.6148 68,-317.6148"/>
<polygon fill="#000000" stroke="#000000" stroke-width="1.1" points="68,-307.6148 72.5001,-317.6148 68.05,-312.6148 68.0501,-317.6148 68.0001,-317.6148 67.9501,-317.6148 67.95,-312.6148 63.5001,-317.6149 68,-307.6148 68,-307.6148"/>
</g>
<!-- L22 -->
<g id="node24" class="node">
<title>L22</title>
<path fill="#ffd6a5" stroke="#2f4f4f" d="M40,-137.5C40,-137.5 90,-137.5 90,-137.5 96,-137.5 102,-143.5 102,-149.5 102,-149.5 102,-177.5 102,-177.5 102,-183.5 96,-189.5 90,-189.5 90,-189.5 40,-189.5 40,-189.5 34,-189.5 28,-183.5 28,-177.5 28,-177.5 28,-149.5 28,-149.5 28,-143.5 34,-137.5 40,-137.5"/>
<text text-anchor="middle" x="65" y="-177.5" font-family="Helvetica,sans-Serif" font-size="10.00" fill="#000000">C3k2</text>
<text text-anchor="middle" x="65" y="-166.5" font-family="Helvetica,sans-Serif" font-size="10.00" fill="#000000">1536 → 1024</text>
<text text-anchor="middle" x="65" y="-155.5" font-family="Helvetica,sans-Serif" font-size="10.00" fill="#000000">n=2</text>
<text text-anchor="middle" x="65" y="-144.5" font-family="Helvetica,sans-Serif" font-size="10.00" fill="#000000">[1024, True]</text>
</g>
<!-- L21&#45;&gt;L22 -->
<g id="edge27" class="edge">
<title>L21&#45;&gt;L22</title>
<path fill="none" stroke="#000000" stroke-width="1.1" d="M65,-255.312C65,-255.312 65,-199.6148 65,-199.6148"/>
<polygon fill="#000000" stroke="#000000" stroke-width="1.1" points="65,-189.6148 69.5001,-199.6148 65.05,-194.6148 65.0501,-199.6148 65.0001,-199.6148 64.9501,-199.6148 64.95,-194.6148 60.5001,-199.6149 65,-189.6148 65,-189.6148"/>
</g>
<!-- L22&#45;&gt;L23 -->
<g id="edge30" class="edge">
<title>L22&#45;&gt;L23</title>
<path fill="none" stroke="#000000" stroke-width="1.1" d="M84.5,-137.2314C84.5,-137.2314 84.5,-79.8067 84.5,-79.8067"/>
<polygon fill="#000000" stroke="#000000" stroke-width="1.1" points="84.5,-69.8067 89.0001,-79.8066 84.55,-74.8067 84.5501,-79.8067 84.5001,-79.8067 84.4501,-79.8067 84.45,-74.8067 80.0001,-79.8067 84.5,-69.8067 84.5,-69.8067"/>
</g>
</g>
</svg>
