<?xml version="1.0" encoding="UTF-8" standalone="no"?>
<!DOCTYPE svg PUBLIC "-//W3C//DTD SVG 1.1//EN"
 "http://www.w3.org/Graphics/SVG/1.1/DTD/svg11.dtd">
<!-- Generated by graphviz version 2.40.1 (0)
 -->
<!-- Title: %3 Pages: 1 -->
<svg width="283pt" height="2797pt"
 viewBox="0.00 0.00 283.00 2796.74" xmlns="http://www.w3.org/2000/svg" xmlns:xlink="http://www.w3.org/1999/xlink">
<g id="graph0" class="graph" transform="scale(1 1) rotate(0) translate(4 2792.7401)">
<title>%3</title>
<polygon fill="#ffffff" stroke="transparent" points="-4,4 -4,-2792.7401 279,-2792.7401 279,4 -4,4"/>
<g id="clust1" class="cluster">
<title>cluster_backbone</title>
<path fill="#ffffff" stroke="#c6e2ff" d="M40,-1535C40,-1535 130,-1535 130,-1535 136,-1535 142,-1541 142,-1547 142,-1547 142,-2697 142,-2697 142,-2703 136,-2709 130,-2709 130,-2709 40,-2709 40,-2709 34,-2709 28,-2703 28,-2697 28,-2697 28,-1547 28,-1547 28,-1541 34,-1535 40,-1535"/>
<text text-anchor="middle" x="85" y="-2697" font-family="Helvetica,sans-Serif" font-size="10.00" fill="#000000">Backbone</text>
</g>
<g id="clust2" class="cluster">
<title>cluster_neck</title>
<path fill="#ffffff" stroke="#fff0b3" d="M20,-117C20,-117 174,-117 174,-117 180,-117 186,-123 186,-129 186,-129 186,-1515 186,-1515 186,-1521 180,-1527 174,-1527 174,-1527 20,-1527 20,-1527 14,-1527 8,-1521 8,-1515 8,-1515 8,-129 8,-129 8,-123 14,-117 20,-117"/>
<text text-anchor="middle" x="97" y="-1515" font-family="Helvetica,sans-Serif" font-size="10.00" fill="#000000">Neck</text>
</g>
<g id="clust3" class="cluster">
<title>cluster_head</title>
<path fill="#ffffff" stroke="#ffe6e6" d="M59,-8C59,-8 255,-8 255,-8 261,-8 267,-14 267,-20 267,-20 267,-97 267,-97 267,-103 261,-109 255,-109 255,-109 59,-109 59,-109 53,-109 47,-103 47,-97 47,-97 47,-20 47,-20 47,-14 53,-8 59,-8"/>
<text text-anchor="middle" x="157" y="-97" font-family="Helvetica,sans-Serif" font-size="10.00" fill="#000000">Head</text>
</g>
<!-- Input -->
<g id="node1" class="node">
<title>Input</title>
<ellipse fill="#ffddaa" stroke="#000000" cx="90" cy="-2761.8701" rx="31.6406" ry="26.7407"/>
<text text-anchor="middle" x="90" y="-2765.6701" font-family="Times,serif" font-size="14.00" fill="#000000">Input</text>
<text text-anchor="middle" x="90" y="-2750.6701" font-family="Times,serif" font-size="14.00" fill="#000000">C=3</text>
</g>
<!-- L0 -->
<g id="node2" class="node">
<title>L0</title>
<path fill="#c2e7d9" stroke="#2f4f4f" d="M74,-2617.5C74,-2617.5 106,-2617.5 106,-2617.5 112,-2617.5 118,-2623.5 118,-2629.5 118,-2629.5 118,-2657.5 118,-2657.5 118,-2663.5 112,-2669.5 106,-2669.5 106,-2669.5 74,-2669.5 74,-2669.5 68,-2669.5 62,-2663.5 62,-2657.5 62,-2657.5 62,-2629.5 62,-2629.5 62,-2623.5 68,-2617.5 74,-2617.5"/>
<text text-anchor="middle" x="90" y="-2657.5" font-family="Helvetica,sans-Serif" font-size="10.00" fill="#000000">Conv</text>
<text text-anchor="middle" x="90" y="-2646.5" font-family="Helvetica,sans-Serif" font-size="10.00" fill="#000000">3 → 64</text>
<text text-anchor="middle" x="90" y="-2635.5" font-family="Helvetica,sans-Serif" font-size="10.00" fill="#000000">n=1</text>
<text text-anchor="middle" x="90" y="-2624.5" font-family="Helvetica,sans-Serif" font-size="10.00" fill="#000000">[64, 3, 2]</text>
</g>
<!-- Input&#45;&gt;L0 -->
<g id="edge1" class="edge">
<title>Input&#45;&gt;L0</title>
<path fill="none" stroke="#000000" stroke-width="1.1" d="M90,-2734.7136C90,-2734.7136 90,-2679.7162 90,-2679.7162"/>
<polygon fill="#000000" stroke="#000000" stroke-width="1.1" points="90,-2669.7162 94.5001,-2679.7162 90.05,-2674.7162 90.0501,-2679.7162 90.0001,-2679.7162 89.9501,-2679.7162 89.95,-2674.7162 85.5001,-2679.7163 90,-2669.7162 90,-2669.7162"/>
</g>
<!-- L1 -->
<g id="node3" class="node">
<title>L1</title>
<path fill="#c2e7d9" stroke="#2f4f4f" d="M71.5,-2499.5C71.5,-2499.5 108.5,-2499.5 108.5,-2499.5 114.5,-2499.5 120.5,-2505.5 120.5,-2511.5 120.5,-2511.5 120.5,-2539.5 120.5,-2539.5 120.5,-2545.5 114.5,-2551.5 108.5,-2551.5 108.5,-2551.5 71.5,-2551.5 71.5,-2551.5 65.5,-2551.5 59.5,-2545.5 59.5,-2539.5 59.5,-2539.5 59.5,-2511.5 59.5,-2511.5 59.5,-2505.5 65.5,-2499.5 71.5,-2499.5"/>
<text text-anchor="middle" x="90" y="-2539.5" font-family="Helvetica,sans-Serif" font-size="10.00" fill="#000000">Conv</text>
<text text-anchor="middle" x="90" y="-2528.5" font-family="Helvetica,sans-Serif" font-size="10.00" fill="#000000">64 → 128</text>
<text text-anchor="middle" x="90" y="-2517.5" font-family="Helvetica,sans-Serif" font-size="10.00" fill="#000000">n=1</text>
<text text-anchor="middle" x="90" y="-2506.5" font-family="Helvetica,sans-Serif" font-size="10.00" fill="#000000">[128, 3, 2]</text>
</g>
<!-- L0&#45;&gt;L1 -->
<g id="edge2" class="edge">
<title>L0&#45;&gt;L1</title>
<path fill="none" stroke="#000000" stroke-width="1.1" d="M90,-2617.312C90,-2617.312 90,-2561.6148 90,-2561.6148"/>
<polygon fill="#000000" stroke="#000000" stroke-width="1.1" points="90,-2551.6148 94.5001,-2561.6148 90.05,-2556.6148 90.0501,-2561.6148 90.0001,-2561.6148 89.9501,-2561.6148 89.95,-2556.6148 85.5001,-2561.6149 90,-2551.6148 90,-2551.6148"/>
</g>
<!-- L2 -->
<g id="node4" class="node">
<title>L2</title>
<path fill="#ffd6a5" stroke="#2f4f4f" d="M70,-2381.5C70,-2381.5 110,-2381.5 110,-2381.5 116,-2381.5 122,-2387.5 122,-2393.5 122,-2393.5 122,-2421.5 122,-2421.5 122,-2427.5 116,-2433.5 110,-2433.5 110,-2433.5 70,-2433.5 70,-2433.5 64,-2433.5 58,-2427.5 58,-2421.5 58,-2421.5 58,-2393.5 58,-2393.5 58,-2387.5 64,-2381.5 70,-2381.5"/>
<text text-anchor="middle" x="90" y="-2421.5" font-family="Helvetica,sans-Serif" font-size="10.00" fill="#000000">C2f</text>
<text text-anchor="middle" x="90" y="-2410.5" font-family="Helvetica,sans-Serif" font-size="10.00" fill="#000000">128 → 128</text>
<text text-anchor="middle" x="90" y="-2399.5" font-family="Helvetica,sans-Serif" font-size="10.00" fill="#000000">n=3</text>
<text text-anchor="middle" x="90" y="-2388.5" font-family="Helvetica,sans-Serif" font-size="10.00" fill="#000000">[128, True]</text>
</g>
<!-- L1&#45;&gt;L2 -->
<g id="edge3" class="edge">
<title>L1&#45;&gt;L2</title>
<path fill="none" stroke="#000000" stroke-width="1.1" d="M90,-2499.312C90,-2499.312 90,-2443.6148 90,-2443.6148"/>
<polygon fill="#000000" stroke="#000000" stroke-width="1.1" points="90,-2433.6148 94.5001,-2443.6148 90.05,-2438.6148 90.0501,-2443.6148 90.0001,-2443.6148 89.9501,-2443.6148 89.95,-2438.6148 85.5001,-2443.6149 90,-2433.6148 90,-2433.6148"/>
</g>
<!-- L3 -->
<g id="node5" class="node">
<title>L3</title>
<path fill="#c2e7d9" stroke="#2f4f4f" d="M70,-2263.5C70,-2263.5 110,-2263.5 110,-2263.5 116,-2263.5 122,-2269.5 122,-2275.5 122,-2275.5 122,-2303.5 122,-2303.5 122,-2309.5 116,-2315.5 110,-2315.5 110,-2315.5 70,-2315.5 70,-2315.5 64,-2315.5 58,-2309.5 58,-2303.5 58,-2303.5 58,-2275.5 58,-2275.5 58,-2269.5 64,-2263.5 70,-2263.5"/>
<text text-anchor="middle" x="90" y="-2303.5" font-family="Helvetica,sans-Serif" font-size="10.00" fill="#000000">Conv</text>
<text text-anchor="middle" x="90" y="-2292.5" font-family="Helvetica,sans-Serif" font-size="10.00" fill="#000000">128 → 256</text>
<text text-anchor="middle" x="90" y="-2281.5" font-family="Helvetica,sans-Serif" font-size="10.00" fill="#000000">n=1</text>
<text text-anchor="middle" x="90" y="-2270.5" font-family="Helvetica,sans-Serif" font-size="10.00" fill="#000000">[256, 3, 2]</text>
</g>
<!-- L2&#45;&gt;L3 -->
<g id="edge4" class="edge">
<title>L2&#45;&gt;L3</title>
<path fill="none" stroke="#000000" stroke-width="1.1" d="M90,-2381.312C90,-2381.312 90,-2325.6148 90,-2325.6148"/>
<polygon fill="#000000" stroke="#000000" stroke-width="1.1" points="90,-2315.6148 94.5001,-2325.6148 90.05,-2320.6148 90.0501,-2325.6148 90.0001,-2325.6148 89.9501,-2325.6148 89.95,-2320.6148 85.5001,-2325.6149 90,-2315.6148 90,-2315.6148"/>
</g>
<!-- L4 -->
<g id="node6" class="node">
<title>L4</title>
<path fill="#ffd6a5" stroke="#2f4f4f" d="M70,-2145.5C70,-2145.5 110,-2145.5 110,-2145.5 116,-2145.5 122,-2151.5 122,-2157.5 122,-2157.5 122,-2185.5 122,-2185.5 122,-2191.5 116,-2197.5 110,-2197.5 110,-2197.5 70,-2197.5 70,-2197.5 64,-2197.5 58,-2191.5 58,-2185.5 58,-2185.5 58,-2157.5 58,-2157.5 58,-2151.5 64,-2145.5 70,-2145.5"/>
<text text-anchor="middle" x="90" y="-2185.5" font-family="Helvetica,sans-Serif" font-size="10.00" fill="#000000">C2f</text>
<text text-anchor="middle" x="90" y="-2174.5" font-family="Helvetica,sans-Serif" font-size="10.00" fill="#000000">256 → 256</text>
<text text-anchor="middle" x="90" y="-2163.5" font-family="Helvetica,sans-Serif" font-size="10.00" fill="#000000">n=6</text>
<text text-anchor="middle" x="90" y="-2152.5" font-family="Helvetica,sans-Serif" font-size="10.00" fill="#000000">[256, True]</text>
</g>
<!-- L3&#45;&gt;L4 -->
<g id="edge5" class="edge">
<title>L3&#45;&gt;L4</title>
<path fill="none" stroke="#000000" stroke-width="1.1" d="M90,-2263.312C90,-2263.312 90,-2207.6148 90,-2207.6148"/>
<polygon fill="#000000" stroke="#000000" stroke-width="1.1" points="90,-2197.6148 94.5001,-2207.6148 90.05,-2202.6148 90.0501,-2207.6148 90.0001,-2207.6148 89.9501,-2207.6148 89.95,-2202.6148 85.5001,-2207.6149 90,-2197.6148 90,-2197.6148"/>
</g>
<!-- L5 -->
<g id="node7" class="node">
<title>L5</title>
<path fill="#c2e7d9" stroke="#2f4f4f" d="M70,-2027.5C70,-2027.5 110,-2027.5 110,-2027.5 116,-2027.5 122,-2033.5 122,-2039.5 122,-2039.5 122,-2067.5 122,-2067.5 122,-2073.5 116,-2079.5 110,-2079.5 110,-2079.5 70,-2079.5 70,-2079.5 64,-2079.5 58,-2073.5 58,-2067.5 58,-2067.5 58,-2039.5 58,-2039.5 58,-2033.5 64,-2027.5 70,-2027.5"/>
<text text-anchor="middle" x="90" y="-2067.5" font-family="Helvetica,sans-Serif" font-size="10.00" fill="#000000">Conv</text>
<text text-anchor="middle" x="90" y="-2056.5" font-family="Helvetica,sans-Serif" font-size="10.00" fill="#000000">256 → 512</text>
<text text-anchor="middle" x="90" y="-2045.5" font-family="Helvetica,sans-Serif" font-size="10.00" fill="#000000">n=1</text>
<text text-anchor="middle" x="90" y="-2034.5" font-family="Helvetica,sans-Serif" font-size="10.00" fill="#000000">[512, 3, 2]</text>
</g>
<!-- L4&#45;&gt;L5 -->
<g id="edge6" class="edge">
<title>L4&#45;&gt;L5</title>
<path fill="none" stroke="#000000" stroke-width="1.1" d="M90,-2145.312C90,-2145.312 90,-2089.6148 90,-2089.6148"/>
<polygon fill="#000000" stroke="#000000" stroke-width="1.1" points="90,-2079.6148 94.5001,-2089.6148 90.05,-2084.6148 90.0501,-2089.6148 90.0001,-2089.6148 89.9501,-2089.6148 89.95,-2084.6148 85.5001,-2089.6149 90,-2079.6148 90,-2079.6148"/>
</g>
<!-- L14 -->
<g id="node16" class="node">
<title>L14</title>
<path fill="#bdb2ff" stroke="#2f4f4f" d="M105,-963.5C105,-963.5 145,-963.5 145,-963.5 151,-963.5 157,-969.5 157,-975.5 157,-975.5 157,-1003.5 157,-1003.5 157,-1009.5 151,-1015.5 145,-1015.5 145,-1015.5 105,-1015.5 105,-1015.5 99,-1015.5 93,-1009.5 93,-1003.5 93,-1003.5 93,-975.5 93,-975.5 93,-969.5 99,-963.5 105,-963.5"/>
<text text-anchor="middle" x="125" y="-1003.5" font-family="Helvetica,sans-Serif" font-size="10.00" fill="#000000">Concat</text>
<text text-anchor="middle" x="125" y="-992.5" font-family="Helvetica,sans-Serif" font-size="10.00" fill="#000000">768 → 768</text>
<text text-anchor="middle" x="125" y="-981.5" font-family="Helvetica,sans-Serif" font-size="10.00" fill="#000000">n=1</text>
<text text-anchor="middle" x="125" y="-970.5" font-family="Helvetica,sans-Serif" font-size="10.00" fill="#000000">[1]</text>
</g>
<!-- L4&#45;&gt;L14 -->
<g id="edge17" class="edge">
<title>L4&#45;&gt;L14</title>
<path fill="none" stroke="#000000" stroke-width="1.1" d="M57.7578,-2171C37.8163,-2171 16,-2171 16,-2171 16,-2171 16,-989 16,-989 16,-989 82.8859,-989 82.8859,-989"/>
<polygon fill="#000000" stroke="#000000" stroke-width="1.1" points="92.8859,-989 82.886,-993.5001 87.8859,-989.05 82.8859,-989.0501 82.8859,-989.0001 82.8859,-988.9501 87.8859,-988.95 82.8859,-984.5001 92.8859,-989 92.8859,-989"/>
</g>
<!-- L6 -->
<g id="node8" class="node">
<title>L6</title>
<path fill="#ffd6a5" stroke="#2f4f4f" d="M70,-1909.5C70,-1909.5 110,-1909.5 110,-1909.5 116,-1909.5 122,-1915.5 122,-1921.5 122,-1921.5 122,-1949.5 122,-1949.5 122,-1955.5 116,-1961.5 110,-1961.5 110,-1961.5 70,-1961.5 70,-1961.5 64,-1961.5 58,-1955.5 58,-1949.5 58,-1949.5 58,-1921.5 58,-1921.5 58,-1915.5 64,-1909.5 70,-1909.5"/>
<text text-anchor="middle" x="90" y="-1949.5" font-family="Helvetica,sans-Serif" font-size="10.00" fill="#000000">C2f</text>
<text text-anchor="middle" x="90" y="-1938.5" font-family="Helvetica,sans-Serif" font-size="10.00" fill="#000000">512 → 512</text>
<text text-anchor="middle" x="90" y="-1927.5" font-family="Helvetica,sans-Serif" font-size="10.00" fill="#000000">n=6</text>
<text text-anchor="middle" x="90" y="-1916.5" font-family="Helvetica,sans-Serif" font-size="10.00" fill="#000000">[512, True]</text>
</g>
<!-- L5&#45;&gt;L6 -->
<g id="edge7" class="edge">
<title>L5&#45;&gt;L6</title>
<path fill="none" stroke="#000000" stroke-width="1.1" d="M90,-2027.312C90,-2027.312 90,-1971.6148 90,-1971.6148"/>
<polygon fill="#000000" stroke="#000000" stroke-width="1.1" points="90,-1961.6148 94.5001,-1971.6148 90.05,-1966.6148 90.0501,-1971.6148 90.0001,-1971.6148 89.9501,-1971.6148 89.95,-1966.6148 85.5001,-1971.6149 90,-1961.6148 90,-1961.6148"/>
</g>
<!-- L7 -->
<g id="node9" class="node">
<title>L7</title>
<path fill="#c2e7d9" stroke="#2f4f4f" d="M63.5,-1791.5C63.5,-1791.5 108.5,-1791.5 108.5,-1791.5 114.5,-1791.5 120.5,-1797.5 120.5,-1803.5 120.5,-1803.5 120.5,-1831.5 120.5,-1831.5 120.5,-1837.5 114.5,-1843.5 108.5,-1843.5 108.5,-1843.5 63.5,-1843.5 63.5,-1843.5 57.5,-1843.5 51.5,-1837.5 51.5,-1831.5 51.5,-1831.5 51.5,-1803.5 51.5,-1803.5 51.5,-1797.5 57.5,-1791.5 63.5,-1791.5"/>
<text text-anchor="middle" x="86" y="-1831.5" font-family="Helvetica,sans-Serif" font-size="10.00" fill="#000000">Conv</text>
<text text-anchor="middle" x="86" y="-1820.5" font-family="Helvetica,sans-Serif" font-size="10.00" fill="#000000">512 → 1024</text>
<text text-anchor="middle" x="86" y="-1809.5" font-family="Helvetica,sans-Serif" font-size="10.00" fill="#000000">n=1</text>
<text text-anchor="middle" x="86" y="-1798.5" font-family="Helvetica,sans-Serif" font-size="10.00" fill="#000000">[1024, 3, 2]</text>
</g>
<!-- L6&#45;&gt;L7 -->
<g id="edge8" class="edge">
<title>L6&#45;&gt;L7</title>
<path fill="none" stroke="#000000" stroke-width="1.1" d="M89.25,-1909.312C89.25,-1909.312 89.25,-1853.6148 89.25,-1853.6148"/>
<polygon fill="#000000" stroke="#000000" stroke-width="1.1" points="89.25,-1843.6148 93.7501,-1853.6148 89.3,-1848.6148 89.3001,-1853.6148 89.2501,-1853.6148 89.2001,-1853.6148 89.2,-1848.6148 84.7501,-1853.6149 89.25,-1843.6148 89.25,-1843.6148"/>
</g>
<!-- L11 -->
<g id="node13" class="node">
<title>L11</title>
<path fill="#bdb2ff" stroke="#2f4f4f" d="M72,-1317.5C72,-1317.5 122,-1317.5 122,-1317.5 128,-1317.5 134,-1323.5 134,-1329.5 134,-1329.5 134,-1357.5 134,-1357.5 134,-1363.5 128,-1369.5 122,-1369.5 122,-1369.5 72,-1369.5 72,-1369.5 66,-1369.5 60,-1363.5 60,-1357.5 60,-1357.5 60,-1329.5 60,-1329.5 60,-1323.5 66,-1317.5 72,-1317.5"/>
<text text-anchor="middle" x="97" y="-1357.5" font-family="Helvetica,sans-Serif" font-size="10.00" fill="#000000">Concat</text>
<text text-anchor="middle" x="97" y="-1346.5" font-family="Helvetica,sans-Serif" font-size="10.00" fill="#000000">1536 → 1536</text>
<text text-anchor="middle" x="97" y="-1335.5" font-family="Helvetica,sans-Serif" font-size="10.00" fill="#000000">n=1</text>
<text text-anchor="middle" x="97" y="-1324.5" font-family="Helvetica,sans-Serif" font-size="10.00" fill="#000000">[1]</text>
</g>
<!-- L6&#45;&gt;L11 -->
<g id="edge13" class="edge">
<title>L6&#45;&gt;L11</title>
<path fill="none" stroke="#000000" stroke-width="1.1" d="M122.1078,-1935C136.3733,-1935 150,-1935 150,-1935 150,-1935 150,-1343 150,-1343 150,-1343 144.0983,-1343 144.0983,-1343"/>
<polygon fill="#000000" stroke="#000000" stroke-width="1.1" points="134.0983,-1343 144.0983,-1338.5001 139.0983,-1342.95 144.0983,-1342.9501 144.0983,-1343.0001 144.0983,-1343.0501 139.0983,-1343.05 144.0982,-1347.5001 134.0983,-1343 134.0983,-1343"/>
</g>
<!-- L8 -->
<g id="node10" class="node">
<title>L8</title>
<path fill="#ffd6a5" stroke="#2f4f4f" d="M60,-1673.5C60,-1673.5 110,-1673.5 110,-1673.5 116,-1673.5 122,-1679.5 122,-1685.5 122,-1685.5 122,-1713.5 122,-1713.5 122,-1719.5 116,-1725.5 110,-1725.5 110,-1725.5 60,-1725.5 60,-1725.5 54,-1725.5 48,-1719.5 48,-1713.5 48,-1713.5 48,-1685.5 48,-1685.5 48,-1679.5 54,-1673.5 60,-1673.5"/>
<text text-anchor="middle" x="85" y="-1713.5" font-family="Helvetica,sans-Serif" font-size="10.00" fill="#000000">C2f</text>
<text text-anchor="middle" x="85" y="-1702.5" font-family="Helvetica,sans-Serif" font-size="10.00" fill="#000000">1024 → 1024</text>
<text text-anchor="middle" x="85" y="-1691.5" font-family="Helvetica,sans-Serif" font-size="10.00" fill="#000000">n=3</text>
<text text-anchor="middle" x="85" y="-1680.5" font-family="Helvetica,sans-Serif" font-size="10.00" fill="#000000">[1024, True]</text>
</g>
<!-- L7&#45;&gt;L8 -->
<g id="edge9" class="edge">
<title>L7&#45;&gt;L8</title>
<path fill="none" stroke="#000000" stroke-width="1.1" d="M86,-1791.312C86,-1791.312 86,-1735.6148 86,-1735.6148"/>
<polygon fill="#000000" stroke="#000000" stroke-width="1.1" points="86,-1725.6148 90.5001,-1735.6148 86.05,-1730.6148 86.0501,-1735.6148 86.0001,-1735.6148 85.9501,-1735.6148 85.95,-1730.6148 81.5001,-1735.6149 86,-1725.6148 86,-1725.6148"/>
</g>
<!-- L9 -->
<g id="node11" class="node">
<title>L9</title>
<path fill="#ffb5a7" stroke="#2f4f4f" d="M60,-1555.5C60,-1555.5 110,-1555.5 110,-1555.5 116,-1555.5 122,-1561.5 122,-1567.5 122,-1567.5 122,-1595.5 122,-1595.5 122,-1601.5 116,-1607.5 110,-1607.5 110,-1607.5 60,-1607.5 60,-1607.5 54,-1607.5 48,-1601.5 48,-1595.5 48,-1595.5 48,-1567.5 48,-1567.5 48,-1561.5 54,-1555.5 60,-1555.5"/>
<text text-anchor="middle" x="85" y="-1595.5" font-family="Helvetica,sans-Serif" font-size="10.00" fill="#000000">SPPF</text>
<text text-anchor="middle" x="85" y="-1584.5" font-family="Helvetica,sans-Serif" font-size="10.00" fill="#000000">1024 → 1024</text>
<text text-anchor="middle" x="85" y="-1573.5" font-family="Helvetica,sans-Serif" font-size="10.00" fill="#000000">n=1</text>
<text text-anchor="middle" x="85" y="-1562.5" font-family="Helvetica,sans-Serif" font-size="10.00" fill="#000000">[1024, 5]</text>
</g>
<!-- L8&#45;&gt;L9 -->
<g id="edge10" class="edge">
<title>L8&#45;&gt;L9</title>
<path fill="none" stroke="#000000" stroke-width="1.1" d="M85,-1673.312C85,-1673.312 85,-1617.6148 85,-1617.6148"/>
<polygon fill="#000000" stroke="#000000" stroke-width="1.1" points="85,-1607.6148 89.5001,-1617.6148 85.05,-1612.6148 85.0501,-1617.6148 85.0001,-1617.6148 84.9501,-1617.6148 84.95,-1612.6148 80.5001,-1617.6149 85,-1607.6148 85,-1607.6148"/>
</g>
<!-- L10 -->
<g id="node12" class="node">
<title>L10</title>
<path fill="#a0c4ff" stroke="#2f4f4f" d="M40,-1435.5C40,-1435.5 116,-1435.5 116,-1435.5 122,-1435.5 128,-1441.5 128,-1447.5 128,-1447.5 128,-1475.5 128,-1475.5 128,-1481.5 122,-1487.5 116,-1487.5 116,-1487.5 40,-1487.5 40,-1487.5 34,-1487.5 28,-1481.5 28,-1475.5 28,-1475.5 28,-1447.5 28,-1447.5 28,-1441.5 34,-1435.5 40,-1435.5"/>
<text text-anchor="middle" x="78" y="-1475.5" font-family="Helvetica,sans-Serif" font-size="10.00" fill="#000000">nn.Upsample</text>
<text text-anchor="middle" x="78" y="-1464.5" font-family="Helvetica,sans-Serif" font-size="10.00" fill="#000000">1024 → 1024</text>
<text text-anchor="middle" x="78" y="-1453.5" font-family="Helvetica,sans-Serif" font-size="10.00" fill="#000000">n=1</text>
<text text-anchor="middle" x="78" y="-1442.5" font-family="Helvetica,sans-Serif" font-size="10.00" fill="#000000">[None, 2, &#39;nearest&#39;]</text>
</g>
<!-- L9&#45;&gt;L10 -->
<g id="edge11" class="edge">
<title>L9&#45;&gt;L10</title>
<path fill="none" stroke="#000000" stroke-width="1.1" d="M85,-1555.4618C85,-1555.4618 85,-1497.9018 85,-1497.9018"/>
<polygon fill="#000000" stroke="#000000" stroke-width="1.1" points="85,-1487.9018 89.5001,-1497.9017 85.05,-1492.9018 85.0501,-1497.9018 85.0001,-1497.9018 84.9501,-1497.9018 84.95,-1492.9018 80.5001,-1497.9018 85,-1487.9018 85,-1487.9018"/>
</g>
<!-- L20 -->
<g id="node22" class="node">
<title>L20</title>
<path fill="#bdb2ff" stroke="#2f4f4f" d="M40,-255.5C40,-255.5 90,-255.5 90,-255.5 96,-255.5 102,-261.5 102,-267.5 102,-267.5 102,-295.5 102,-295.5 102,-301.5 96,-307.5 90,-307.5 90,-307.5 40,-307.5 40,-307.5 34,-307.5 28,-301.5 28,-295.5 28,-295.5 28,-267.5 28,-267.5 28,-261.5 34,-255.5 40,-255.5"/>
<text text-anchor="middle" x="65" y="-295.5" font-family="Helvetica,sans-Serif" font-size="10.00" fill="#000000">Concat</text>
<text text-anchor="middle" x="65" y="-284.5" font-family="Helvetica,sans-Serif" font-size="10.00" fill="#000000">1536 → 1536</text>
<text text-anchor="middle" x="65" y="-273.5" font-family="Helvetica,sans-Serif" font-size="10.00" fill="#000000">n=1</text>
<text text-anchor="middle" x="65" y="-262.5" font-family="Helvetica,sans-Serif" font-size="10.00" fill="#000000">[1]</text>
</g>
<!-- L9&#45;&gt;L20 -->
<g id="edge25" class="edge">
<title>L9&#45;&gt;L20</title>
<path fill="none" stroke="#000000" stroke-width="1.1" d="M47.819,-1581C26.5254,-1581 4,-1581 4,-1581 4,-1581 4,-281 4,-281 4,-281 17.7589,-281 17.7589,-281"/>
<polygon fill="#000000" stroke="#000000" stroke-width="1.1" points="27.7589,-281 17.7589,-285.5001 22.7589,-281.05 17.7589,-281.0501 17.7589,-281.0001 17.7589,-280.9501 22.7589,-280.95 17.7588,-276.5001 27.7589,-281 27.7589,-281"/>
</g>
<!-- L10&#45;&gt;L11 -->
<g id="edge12" class="edge">
<title>L10&#45;&gt;L11</title>
<path fill="none" stroke="#000000" stroke-width="1.1" d="M94,-1435.312C94,-1435.312 94,-1379.6148 94,-1379.6148"/>
<polygon fill="#000000" stroke="#000000" stroke-width="1.1" points="94,-1369.6148 98.5001,-1379.6148 94.05,-1374.6148 94.0501,-1379.6148 94.0001,-1379.6148 93.9501,-1379.6148 93.95,-1374.6148 89.5001,-1379.6149 94,-1369.6148 94,-1369.6148"/>
</g>
<!-- L12 -->
<g id="node14" class="node">
<title>L12</title>
<path fill="#ffd6a5" stroke="#2f4f4f" d="M74.5,-1199.5C74.5,-1199.5 119.5,-1199.5 119.5,-1199.5 125.5,-1199.5 131.5,-1205.5 131.5,-1211.5 131.5,-1211.5 131.5,-1239.5 131.5,-1239.5 131.5,-1245.5 125.5,-1251.5 119.5,-1251.5 119.5,-1251.5 74.5,-1251.5 74.5,-1251.5 68.5,-1251.5 62.5,-1245.5 62.5,-1239.5 62.5,-1239.5 62.5,-1211.5 62.5,-1211.5 62.5,-1205.5 68.5,-1199.5 74.5,-1199.5"/>
<text text-anchor="middle" x="97" y="-1239.5" font-family="Helvetica,sans-Serif" font-size="10.00" fill="#000000">C2f</text>
<text text-anchor="middle" x="97" y="-1228.5" font-family="Helvetica,sans-Serif" font-size="10.00" fill="#000000">1536 → 512</text>
<text text-anchor="middle" x="97" y="-1217.5" font-family="Helvetica,sans-Serif" font-size="10.00" fill="#000000">n=3</text>
<text text-anchor="middle" x="97" y="-1206.5" font-family="Helvetica,sans-Serif" font-size="10.00" fill="#000000">[512]</text>
</g>
<!-- L11&#45;&gt;L12 -->
<g id="edge14" class="edge">
<title>L11&#45;&gt;L12</title>
<path fill="none" stroke="#000000" stroke-width="1.1" d="M97,-1317.312C97,-1317.312 97,-1261.6148 97,-1261.6148"/>
<polygon fill="#000000" stroke="#000000" stroke-width="1.1" points="97,-1251.6148 101.5001,-1261.6148 97.05,-1256.6148 97.0501,-1261.6148 97.0001,-1261.6148 96.9501,-1261.6148 96.95,-1256.6148 92.5001,-1261.6149 97,-1251.6148 97,-1251.6148"/>
</g>
<!-- L13 -->
<g id="node15" class="node">
<title>L13</title>
<path fill="#a0c4ff" stroke="#2f4f4f" d="M78,-1081.5C78,-1081.5 154,-1081.5 154,-1081.5 160,-1081.5 166,-1087.5 166,-1093.5 166,-1093.5 166,-1121.5 166,-1121.5 166,-1127.5 160,-1133.5 154,-1133.5 154,-1133.5 78,-1133.5 78,-1133.5 72,-1133.5 66,-1127.5 66,-1121.5 66,-1121.5 66,-1093.5 66,-1093.5 66,-1087.5 72,-1081.5 78,-1081.5"/>
<text text-anchor="middle" x="116" y="-1121.5" font-family="Helvetica,sans-Serif" font-size="10.00" fill="#000000">nn.Upsample</text>
<text text-anchor="middle" x="116" y="-1110.5" font-family="Helvetica,sans-Serif" font-size="10.00" fill="#000000">512 → 512</text>
<text text-anchor="middle" x="116" y="-1099.5" font-family="Helvetica,sans-Serif" font-size="10.00" fill="#000000">n=1</text>
<text text-anchor="middle" x="116" y="-1088.5" font-family="Helvetica,sans-Serif" font-size="10.00" fill="#000000">[None, 2, &#39;nearest&#39;]</text>
</g>
<!-- L12&#45;&gt;L13 -->
<g id="edge15" class="edge">
<title>L12&#45;&gt;L13</title>
<path fill="none" stroke="#000000" stroke-width="1.1" d="M98.75,-1199.312C98.75,-1199.312 98.75,-1143.6148 98.75,-1143.6148"/>
<polygon fill="#000000" stroke="#000000" stroke-width="1.1" points="98.75,-1133.6148 103.2501,-1143.6148 98.8,-1138.6148 98.8001,-1143.6148 98.7501,-1143.6148 98.7001,-1143.6148 98.7,-1138.6148 94.2501,-1143.6149 98.75,-1133.6148 98.75,-1133.6148"/>
</g>
<!-- L17 -->
<g id="node19" class="node">
<title>L17</title>
<path fill="#bdb2ff" stroke="#2f4f4f" d="M72,-609.5C72,-609.5 112,-609.5 112,-609.5 118,-609.5 124,-615.5 124,-621.5 124,-621.5 124,-649.5 124,-649.5 124,-655.5 118,-661.5 112,-661.5 112,-661.5 72,-661.5 72,-661.5 66,-661.5 60,-655.5 60,-649.5 60,-649.5 60,-621.5 60,-621.5 60,-615.5 66,-609.5 72,-609.5"/>
<text text-anchor="middle" x="92" y="-649.5" font-family="Helvetica,sans-Serif" font-size="10.00" fill="#000000">Concat</text>
<text text-anchor="middle" x="92" y="-638.5" font-family="Helvetica,sans-Serif" font-size="10.00" fill="#000000">768 → 768</text>
<text text-anchor="middle" x="92" y="-627.5" font-family="Helvetica,sans-Serif" font-size="10.00" fill="#000000">n=1</text>
<text text-anchor="middle" x="92" y="-616.5" font-family="Helvetica,sans-Serif" font-size="10.00" fill="#000000">[1]</text>
</g>
<!-- L12&#45;&gt;L17 -->
<g id="edge21" class="edge">
<title>L12&#45;&gt;L17</title>
<path fill="none" stroke="#000000" stroke-width="1.1" d="M62.4366,-1225C54.3284,-1225 48,-1225 48,-1225 48,-1225 48,-635 48,-635 48,-635 49.5605,-635 49.5605,-635"/>
<polygon fill="#000000" stroke="#000000" stroke-width="1.1" points="59.5605,-635 49.5605,-639.5001 54.5605,-635.05 49.5605,-635.0501 49.5605,-635.0001 49.5605,-634.9501 54.5605,-634.95 49.5604,-630.5001 59.5605,-635 59.5605,-635"/>
</g>
<!-- L13&#45;&gt;L14 -->
<g id="edge16" class="edge">
<title>L13&#45;&gt;L14</title>
<path fill="none" stroke="#000000" stroke-width="1.1" d="M125,-1081.312C125,-1081.312 125,-1025.6148 125,-1025.6148"/>
<polygon fill="#000000" stroke="#000000" stroke-width="1.1" points="125,-1015.6148 129.5001,-1025.6148 125.05,-1020.6148 125.0501,-1025.6148 125.0001,-1025.6148 124.9501,-1025.6148 124.95,-1020.6148 120.5001,-1025.6149 125,-1015.6148 125,-1015.6148"/>
</g>
<!-- L15 -->
<g id="node17" class="node">
<title>L15</title>
<path fill="#ffd6a5" stroke="#2f4f4f" d="M105,-845.5C105,-845.5 145,-845.5 145,-845.5 151,-845.5 157,-851.5 157,-857.5 157,-857.5 157,-885.5 157,-885.5 157,-891.5 151,-897.5 145,-897.5 145,-897.5 105,-897.5 105,-897.5 99,-897.5 93,-891.5 93,-885.5 93,-885.5 93,-857.5 93,-857.5 93,-851.5 99,-845.5 105,-845.5"/>
<text text-anchor="middle" x="125" y="-885.5" font-family="Helvetica,sans-Serif" font-size="10.00" fill="#000000">C2f</text>
<text text-anchor="middle" x="125" y="-874.5" font-family="Helvetica,sans-Serif" font-size="10.00" fill="#000000">768 → 256</text>
<text text-anchor="middle" x="125" y="-863.5" font-family="Helvetica,sans-Serif" font-size="10.00" fill="#000000">n=3</text>
<text text-anchor="middle" x="125" y="-852.5" font-family="Helvetica,sans-Serif" font-size="10.00" fill="#000000">[256]</text>
</g>
<!-- L14&#45;&gt;L15 -->
<g id="edge18" class="edge">
<title>L14&#45;&gt;L15</title>
<path fill="none" stroke="#000000" stroke-width="1.1" d="M125,-963.312C125,-963.312 125,-907.6148 125,-907.6148"/>
<polygon fill="#000000" stroke="#000000" stroke-width="1.1" points="125,-897.6148 129.5001,-907.6148 125.05,-902.6148 125.0501,-907.6148 125.0001,-907.6148 124.9501,-907.6148 124.95,-902.6148 120.5001,-907.6149 125,-897.6148 125,-897.6148"/>
</g>
<!-- L16 -->
<g id="node18" class="node">
<title>L16</title>
<path fill="#c2e7d9" stroke="#2f4f4f" d="M96,-727.5C96,-727.5 136,-727.5 136,-727.5 142,-727.5 148,-733.5 148,-739.5 148,-739.5 148,-767.5 148,-767.5 148,-773.5 142,-779.5 136,-779.5 136,-779.5 96,-779.5 96,-779.5 90,-779.5 84,-773.5 84,-767.5 84,-767.5 84,-739.5 84,-739.5 84,-733.5 90,-727.5 96,-727.5"/>
<text text-anchor="middle" x="116" y="-767.5" font-family="Helvetica,sans-Serif" font-size="10.00" fill="#000000">Conv</text>
<text text-anchor="middle" x="116" y="-756.5" font-family="Helvetica,sans-Serif" font-size="10.00" fill="#000000">256 → 256</text>
<text text-anchor="middle" x="116" y="-745.5" font-family="Helvetica,sans-Serif" font-size="10.00" fill="#000000">n=1</text>
<text text-anchor="middle" x="116" y="-734.5" font-family="Helvetica,sans-Serif" font-size="10.00" fill="#000000">[256, 3, 2]</text>
</g>
<!-- L15&#45;&gt;L16 -->
<g id="edge19" class="edge">
<title>L15&#45;&gt;L16</title>
<path fill="none" stroke="#000000" stroke-width="1.1" d="M120.5,-845.312C120.5,-845.312 120.5,-789.6148 120.5,-789.6148"/>
<polygon fill="#000000" stroke="#000000" stroke-width="1.1" points="120.5,-779.6148 125.0001,-789.6148 120.55,-784.6148 120.5501,-789.6148 120.5001,-789.6148 120.4501,-789.6148 120.45,-784.6148 116.0001,-789.6149 120.5,-779.6148 120.5,-779.6148"/>
</g>
<!-- L22 -->
<g id="node24" class="node">
<title>L22</title>
<path fill="#b5e48c" stroke="#2f4f4f" d="M79,-28.5C79,-28.5 235,-28.5 235,-28.5 241,-28.5 247,-34.5 247,-40.5 247,-40.5 247,-57.5 247,-57.5 247,-63.5 241,-69.5 235,-69.5 235,-69.5 79,-69.5 79,-69.5 73,-69.5 67,-63.5 67,-57.5 67,-57.5 67,-40.5 67,-40.5 67,-34.5 73,-28.5 79,-28.5"/>
<text text-anchor="middle" x="157" y="-57.5" font-family="Helvetica,sans-Serif" font-size="10.00" fill="#000000">Detect</text>
<text text-anchor="middle" x="157" y="-46.5" font-family="Helvetica,sans-Serif" font-size="10.00" fill="#000000">n=1</text>
<text text-anchor="middle" x="157" y="-35.5" font-family="Helvetica,sans-Serif" font-size="10.00" fill="#000000">[&#39;nc&#39;]</text>
</g>
<!-- L15&#45;&gt;L22 -->
<g id="edge27" class="edge">
<title>L15&#45;&gt;L22</title>
<path fill="none" stroke="#000000" stroke-width="1.1" d="M152.5,-845.0655C152.5,-845.0655 152.5,-79.8634 152.5,-79.8634"/>
<polygon fill="#000000" stroke="#000000" stroke-width="1.1" points="152.5,-69.8634 157.0001,-79.8633 152.55,-74.8634 152.5501,-79.8634 152.5001,-79.8634 152.4501,-79.8634 152.45,-74.8634 148.0001,-79.8634 152.5,-69.8634 152.5,-69.8634"/>
</g>
<!-- L16&#45;&gt;L17 -->
<g id="edge20" class="edge">
<title>L16&#45;&gt;L17</title>
<path fill="none" stroke="#000000" stroke-width="1.1" d="M104,-727.312C104,-727.312 104,-671.6148 104,-671.6148"/>
<polygon fill="#000000" stroke="#000000" stroke-width="1.1" points="104,-661.6148 108.5001,-671.6148 104.05,-666.6148 104.0501,-671.6148 104.0001,-671.6148 103.9501,-671.6148 103.95,-666.6148 99.5001,-671.6149 104,-661.6148 104,-661.6148"/>
</g>
<!-- L18 -->
<g id="node20" class="node">
<title>L18</title>
<path fill="#ffd6a5" stroke="#2f4f4f" d="M72,-491.5C72,-491.5 112,-491.5 112,-491.5 118,-491.5 124,-497.5 124,-503.5 124,-503.5 124,-531.5 124,-531.5 124,-537.5 118,-543.5 112,-543.5 112,-543.5 72,-543.5 72,-543.5 66,-543.5 60,-537.5 60,-531.5 60,-531.5 60,-503.5 60,-503.5 60,-497.5 66,-491.5 72,-491.5"/>
<text text-anchor="middle" x="92" y="-531.5" font-family="Helvetica,sans-Serif" font-size="10.00" fill="#000000">C2f</text>
<text text-anchor="middle" x="92" y="-520.5" font-family="Helvetica,sans-Serif" font-size="10.00" fill="#000000">768 → 512</text>
<text text-anchor="middle" x="92" y="-509.5" font-family="Helvetica,sans-Serif" font-size="10.00" fill="#000000">n=3</text>
<text text-anchor="middle" x="92" y="-498.5" font-family="Helvetica,sans-Serif" font-size="10.00" fill="#000000">[512]</text>
</g>
<!-- L17&#45;&gt;L18 -->
<g id="edge22" class="edge">
<title>L17&#45;&gt;L18</title>
<path fill="none" stroke="#000000" stroke-width="1.1" d="M92,-609.312C92,-609.312 92,-553.6148 92,-553.6148"/>
<polygon fill="#000000" stroke="#000000" stroke-width="1.1" points="92,-543.6148 96.5001,-553.6148 92.05,-548.6148 92.0501,-553.6148 92.0001,-553.6148 91.9501,-553.6148 91.95,-548.6148 87.5001,-553.6149 92,-543.6148 92,-543.6148"/>
</g>
<!-- L19 -->
<g id="node21" class="node">
<title>L19</title>
<path fill="#c2e7d9" stroke="#2f4f4f" d="M48,-373.5C48,-373.5 88,-373.5 88,-373.5 94,-373.5 100,-379.5 100,-385.5 100,-385.5 100,-413.5 100,-413.5 100,-419.5 94,-425.5 88,-425.5 88,-425.5 48,-425.5 48,-425.5 42,-425.5 36,-419.5 36,-413.5 36,-413.5 36,-385.5 36,-385.5 36,-379.5 42,-373.5 48,-373.5"/>
<text text-anchor="middle" x="68" y="-413.5" font-family="Helvetica,sans-Serif" font-size="10.00" fill="#000000">Conv</text>
<text text-anchor="middle" x="68" y="-402.5" font-family="Helvetica,sans-Serif" font-size="10.00" fill="#000000">512 → 512</text>
<text text-anchor="middle" x="68" y="-391.5" font-family="Helvetica,sans-Serif" font-size="10.00" fill="#000000">n=1</text>
<text text-anchor="middle" x="68" y="-380.5" font-family="Helvetica,sans-Serif" font-size="10.00" fill="#000000">[512, 3, 2]</text>
</g>
<!-- L18&#45;&gt;L19 -->
<g id="edge23" class="edge">
<title>L18&#45;&gt;L19</title>
<path fill="none" stroke="#000000" stroke-width="1.1" d="M80,-491.312C80,-491.312 80,-435.6148 80,-435.6148"/>
<polygon fill="#000000" stroke="#000000" stroke-width="1.1" points="80,-425.6148 84.5001,-435.6148 80.05,-430.6148 80.0501,-435.6148 80.0001,-435.6148 79.9501,-435.6148 79.95,-430.6148 75.5001,-435.6149 80,-425.6148 80,-425.6148"/>
</g>
<!-- L18&#45;&gt;L22 -->
<g id="edge28" class="edge">
<title>L18&#45;&gt;L22</title>
<path fill="none" stroke="#000000" stroke-width="1.1" d="M113,-491.3075C113,-491.3075 113,-79.5299 113,-79.5299"/>
<polygon fill="#000000" stroke="#000000" stroke-width="1.1" points="113,-69.5299 117.5001,-79.5299 113.05,-74.5299 113.0501,-79.5299 113.0001,-79.5299 112.9501,-79.5299 112.95,-74.5299 108.5001,-79.53 113,-69.5299 113,-69.5299"/>
</g>
<!-- L19&#45;&gt;L20 -->
<g id="edge24" class="edge">
<title>L19&#45;&gt;L20</title>
<path fill="none" stroke="#000000" stroke-width="1.1" d="M68,-373.312C68,-373.312 68,-317.6148 68,-317.6148"/>
<polygon fill="#000000" stroke="#000000" stroke-width="1.1" points="68,-307.6148 72.5001,-317.6148 68.05,-312.6148 68.0501,-317.6148 68.0001,-317.6148 67.9501,-317.6148 67.95,-312.6148 63.5001,-317.6149 68,-307.6148 68,-307.6148"/>
</g>
<!-- L21 -->
<g id="node23" class="node">
<title>L21</title>
<path fill="#ffd6a5" stroke="#2f4f4f" d="M40,-137.5C40,-137.5 90,-137.5 90,-137.5 96,-137.5 102,-143.5 102,-149.5 102,-149.5 102,-177.5 102,-177.5 102,-183.5 96,-189.5 90,-189.5 90,-189.5 40,-189.5 40,-189.5 34,-189.5 28,-183.5 28,-177.5 28,-177.5 28,-149.5 28,-149.5 28,-143.5 34,-137.5 40,-137.5"/>
<text text-anchor="middle" x="65" y="-177.5" font-family="Helvetica,sans-Serif" font-size="10.00" fill="#000000">C2f</text>
<text text-anchor="middle" x="65" y="-166.5" font-family="Helvetica,sans-Serif" font-size="10.00" fill="#000000">1536 → 1024</text>
<text text-anchor="middle" x="65" y="-155.5" font-family="Helvetica,sans-Serif" font-size="10.00" fill="#000000">n=3</text>
<text text-anchor="middle" x="65" y="-144.5" font-family="Helvetica,sans-Serif" font-size="10.00" fill="#000000">[1024]</text>
</g>
<!-- L20&#45;&gt;L21 -->
<g id="edge26" class="edge">
<title>L20&#45;&gt;L21</title>
<path fill="none" stroke="#000000" stroke-width="1.1" d="M65,-255.312C65,-255.312 65,-199.6148 65,-199.6148"/>
<polygon fill="#000000" stroke="#000000" stroke-width="1.1" points="65,-189.6148 69.5001,-199.6148 65.05,-194.6148 65.0501,-199.6148 65.0001,-199.6148 64.9501,-199.6148 64.95,-194.6148 60.5001,-199.6149 65,-189.6148 65,-189.6148"/>
</g>
<!-- L21&#45;&gt;L22 -->
<g id="edge29" class="edge">
<title>L21&#45;&gt;L22</title>
<path fill="none" stroke="#000000" stroke-width="1.1" d="M84.5,-137.2314C84.5,-137.2314 84.5,-79.8067 84.5,-79.8067"/>
<polygon fill="#000000" stroke="#000000" stroke-width="1.1" points="84.5,-69.8067 89.0001,-79.8066 84.55,-74.8067 84.5501,-79.8067 84.5001,-79.8067 84.4501,-79.8067 84.45,-74.8067 80.0001,-79.8067 84.5,-69.8067 84.5,-69.8067"/>
</g>
</g>
</svg>
